STARTFONT 2.1
FONT -HP-Sung-Medium-R-Normal--24-240-75-75-C-240-CNS11643.1992-2
SIZE 24 75 75
FONTBOUNDINGBOX 24 24 0 -2

STARTPROPERTIES 23
FONTNAME_REGISTRY ""
FOUNDRY "HP"
FAMILY_NAME "Sung"
WEIGHT_NAME "Medium"
SLANT "R"
SETWIDTH_NAME "Normal"
ADD_STYLE_NAME ""
PIXEL_SIZE 24
POINT_SIZE 240
RESOLUTION_X 75
RESOLUTION_Y 75
SPACING "C"
AVERAGE_WIDTH 240
CHARSET_REGISTRY "CNS11643.1992"
CHARSET_ENCODING "2"
COPYRIGHT "Copyright (c) 1994 Hewlett-Packard Company."
_HP_ASXVERSION "@(#) ASX 3.00 $Revision: 13.9 $ sung24n2"
WEIGHT 10
X_HEIGHT 19
QUAD_WIDTH 24
DEFAULT_CHAR 29253
FONT_DESCENT 2
FONT_ASCENT 22
ENDPROPERTIES

CHARS 7651

STARTCHAR cns2_2121
ENCODING 8481
SWIDTH 960 0
DWIDTH 24 0
BBX 24 24 0 -2
BITMAP
000000
000000
000038
040030
040060
060060
0200C0
0300C0
018180
008180
00C300
004300
003600
001C00
001C00
001400
003600
006300
00C180
0180E0
070078
1C003E
70000C
000000
ENDCHAR

STARTCHAR cns2_2122
ENCODING 8482
SWIDTH 960 0
DWIDTH 24 0
BBX 24 24 0 -2
BITMAP
000000
000000
070000
060000
060030
0600F8
060738
061C30
06E030
0F0020
760060
060060
060040
0600C0
060080
060000
060000
060004
060004
060004
060006
07FFFE
03FFFC
000000
ENDCHAR

STARTCHAR cns2_2123
ENCODING 8483
SWIDTH 960 0
DWIDTH 24 0
BBX 24 24 0 -2
BITMAP
000000
000000
1C001C
180018
180018
180018
180018
180018
180018
180018
180018
180018
180018
180018
180018
180018
180018
180018
180018
1FFFF8
180018
180018
000000
000000
ENDCHAR

STARTCHAR cns2_2124
ENCODING 8484
SWIDTH 960 0
DWIDTH 24 0
BBX 24 24 0 -2
BITMAP
000000
000000
100018
1FFFFC
180000
180000
180000
180000
180000
180000
180000
180000
180000
180000
180000
180000
180000
180000
180008
18001C
1FFFFE
180000
180000
000000
ENDCHAR

STARTCHAR cns2_2125
ENCODING 8485
SWIDTH 960 0
DWIDTH 24 0
BBX 24 24 0 -2
BITMAP
000000
000008
08001C
0FFFFE
0C0000
0C0000
0C0000
0C0000
0C0000
0C0000
0C0000
0C0000
0C0000
0C0000
0C0000
0C0000
0C0000
180000
180000
180000
100000
100000
200000
000000
ENDCHAR

STARTCHAR cns2_2126
ENCODING 8486
SWIDTH 960 0
DWIDTH 24 0
BBX 24 24 0 -2
BITMAP
000000
000000
000000
00000C
7FFFFE
00C000
00C000
00C000
00C000
00C010
00FFF8
00C038
00C030
018030
018030
030030
030030
060030
060060
0C0060
180060
301FC0
400380
000000
ENDCHAR

STARTCHAR cns2_2127
ENCODING 8487
SWIDTH 960 0
DWIDTH 24 0
BBX 24 24 0 -2
BITMAP
000000
000008
00001C
7FFFFE
00C180
00C180
00C180
00C180
00C180
00C180
00C180
00C180
00C180
00C180
018180
018180
018180
030180
030180
060180
060180
0C0180
300180
000000
ENDCHAR

STARTCHAR cns2_2128
ENCODING 8488
SWIDTH 960 0
DWIDTH 24 0
BBX 24 24 0 -2
BITMAP
000000
0003C0
000F00
007800
07F000
7E3000
003000
003000
003000
003000
00300C
7FFFFE
003000
003000
003000
003000
003004
003004
003004
003004
003006
003FFE
001FFC
000000
ENDCHAR

STARTCHAR cns2_2129
ENCODING 8489
SWIDTH 960 0
DWIDTH 24 0
BBX 24 24 0 -2
BITMAP
000000
000030
1FFFF8
000000
000000
000000
000000
000008
00001C
7FFFFE
001800
001800
001800
001800
001800
001800
001800
001800
001800
001800
001800
07F800
00F000
000000
ENDCHAR

STARTCHAR cns2_212A
ENCODING 8490
SWIDTH 960 0
DWIDTH 24 0
BBX 24 24 0 -2
BITMAP
000000
200004
3FFFFE
30000E
30000C
30000C
30000C
30000C
30000C
30000C
30000C
30000C
30000C
30000C
30000C
30000C
30000C
30000C
30000C
30000C
3FFFFC
30000C
30000C
000000
ENDCHAR

STARTCHAR cns2_212B
ENCODING 8491
SWIDTH 960 0
DWIDTH 24 0
BBX 24 24 0 -2
BITMAP
000000
001C00
001800
001800
1C181C
181818
181818
181818
181818
181818
181818
181818
1FFFF8
181818
001800
001800
001800
001800
001800
001800
001800
001800
001000
000000
ENDCHAR

STARTCHAR cns2_212C
ENCODING 8492
SWIDTH 960 0
DWIDTH 24 0
BBX 24 24 0 -2
BITMAP
000000
000180
000380
000700
000C00
001830
006038
018070
0600C0
000180
000300
000600
001E00
003600
00C600
030600
1C0600
000600
000600
000600
000600
000600
000600
000000
ENDCHAR

STARTCHAR cns2_212D
ENCODING 8493
SWIDTH 960 0
DWIDTH 24 0
BBX 24 24 0 -2
BITMAP
000000
00000C
7FFFFE
003000
003000
003000
1C3008
183FFC
18301C
183018
183018
183018
1FFFF8
180018
000018
000018
000030
000030
000030
000060
0000E0
007FC0
000700
000000
ENDCHAR

STARTCHAR cns2_212E
ENCODING 8494
SWIDTH 960 0
DWIDTH 24 0
BBX 24 24 0 -2
BITMAP
000000
003800
003000
00600C
7FFFFE
00C000
018000
018020
03FFF0
070070
0F0060
1B0060
330060
430060
030060
030060
030060
030060
030060
030060
020060
0207E0
0400C0
000000
ENDCHAR

STARTCHAR cns2_212F
ENCODING 8495
SWIDTH 960 0
DWIDTH 24 0
BBX 24 24 0 -2
BITMAP
000000
070000
060010
060038
07FFFC
0C0000
0C0000
0C0004
0FFFFE
0C000E
00000C
00000C
00000C
00018C
7FFFCC
00000C
00000C
00000C
00001C
000018
000038
001FF0
0001C0
000000
ENDCHAR

STARTCHAR cns2_2130
ENCODING 8496
SWIDTH 960 0
DWIDTH 24 0
BBX 24 24 0 -2
BITMAP
000000
000010
7FFFF8
003038
003030
003030
003030
0FFFB0
0FFFB0
003030
003030
003030
1FFFF0
1FFFF0
003030
003030
003030
003032
00301A
00301A
00300E
00300E
003004
000000
ENDCHAR

STARTCHAR cns2_2131
ENCODING 8497
SWIDTH 960 0
DWIDTH 24 0
BBX 24 24 0 -2
BITMAP
000000
000030
1FFFF8
000000
000000
000000
000000
00000C
7FFFFE
018300
018300
018300
018300
018300
018300
018300
018300
030300
030300
030300
060300
060300
180300
000000
ENDCHAR

STARTCHAR cns2_2132
ENCODING 8498
SWIDTH 960 0
DWIDTH 24 0
BBX 24 24 0 -2
BITMAP
000000
030380
038300
030300
070300
060304
0E7FFE
0C030E
0C030C
1C030C
16030C
36060C
26060C
46060C
46060C
060C0C
060C0C
060C18
061818
061818
063038
0663F0
0680E0
000000
ENDCHAR

STARTCHAR cns2_2133
ENCODING 8499
SWIDTH 960 0
DWIDTH 24 0
BBX 24 24 0 -2
BITMAP
000000
060000
071040
061FE0
0C18E0
0C18C0
1818C0
1818C0
1818C0
3818C0
2C18C0
6C18C0
4C18C0
0C30C0
0C30C0
0C30C0
0C30C0
0C60C4
0C60C4
0C40C4
0CC0C6
0C80FE
0D007C
000000
ENDCHAR

STARTCHAR cns2_2134
ENCODING 8500
SWIDTH 960 0
DWIDTH 24 0
BBX 24 24 0 -2
BITMAP
000000
038300
030300
030300
060300
060980
0E0980
0C1980
1C1980
1E18C0
3618C0
6618C0
463060
063060
063060
063030
066030
066038
066018
06C01C
06C00C
07800E
060004
000000
ENDCHAR

STARTCHAR cns2_2135
ENCODING 8501
SWIDTH 960 0
DWIDTH 24 0
BBX 24 24 0 -2
BITMAP
000000
001C00
001800
001800
001800
101804
1FFFFE
30180E
30180C
301818
001800
001800
003600
003600
006600
006600
00C600
00C600
018604
030604
060606
1C07FE
7003FC
000000
ENDCHAR

STARTCHAR cns2_2136
ENCODING 8502
SWIDTH 960 0
DWIDTH 24 0
BBX 24 24 0 -2
BITMAP
000000
038000
030000
030004
03FFFE
06000E
06000C
0CE00C
0CC00C
18C40C
37FE0C
40CE0C
00CC0C
00CC0C
018C0C
018C4C
030C6C
030FF8
0607D8
080018
000030
000FF0
0000E0
000000
ENDCHAR

STARTCHAR cns2_2137
ENCODING 8503
SWIDTH 960 0
DWIDTH 24 0
BBX 24 24 0 -2
BITMAP
000000
006204
10F3FE
1F030E
18030C
18030C
18030C
18030C
18030C
18030C
18030C
18030C
18030C
18030C
18430C
19830C
3E037C
1C0318
000300
000300
000300
000300
000300
000000
ENDCHAR

STARTCHAR cns2_2138
ENCODING 8504
SWIDTH 960 0
DWIDTH 24 0
BBX 24 24 0 -2
BITMAP
000000
003800
003000
003040
3FFFE0
0060E0
0060C0
00C0C4
00C0C4
0180C4
0300C6
0C00FE
70007C
007000
006000
00E080
00C040
018060
010030
010018
0207F8
3FF81C
1F000C
000000
ENDCHAR

STARTCHAR cns2_2139
ENCODING 8505
SWIDTH 960 0
DWIDTH 24 0
BBX 24 24 0 -2
BITMAP
000000
0E0700
0C0600
0C0600
0C0600
0C0600
0C0600
0C8600
7FC600
0C0600
0C0600
0C0600
0C0600
0C0600
0C0600
0C0600
0CC604
0F8604
0E0604
780606
300606
0007FE
0003FC
000000
ENDCHAR

STARTCHAR cns2_213A
ENCODING 8506
SWIDTH 960 0
DWIDTH 24 0
BBX 24 24 0 -2
BITMAP
000000
000020
3FFFE0
000060
0E00C0
0C00C0
0C0180
0C0304
1813FE
1FFB0E
18300C
3C300C
24600C
46600C
03C00C
01800C
03C00C
067018
1C3C18
701830
000070
0007E0
0000C0
000000
ENDCHAR

STARTCHAR cns2_213B
ENCODING 8507
SWIDTH 960 0
DWIDTH 24 0
BBX 24 24 0 -2
BITMAP
000000
003800
003000
003000
003040
1FFFE0
0030E0
0030C0
0030C0
0030C0
0030C0
0030CC
7FFFFE
007000
006800
00C800
00C400
018600
018300
0301C0
0600F0
18003E
60000C
000000
ENDCHAR

STARTCHAR cns2_213C
ENCODING 8508
SWIDTH 960 0
DWIDTH 24 0
BBX 24 24 0 -2
BITMAP
000000
001C00
001800
001800
039880
031860
061830
061818
0C180C
0C180E
181806
181800
301800
401800
181800
0C0000
060000
038000
00F000
003C00
000F80
0003F0
00007E
000000
ENDCHAR

STARTCHAR cns2_213D
ENCODING 8509
SWIDTH 960 0
DWIDTH 24 0
BBX 24 24 0 -2
BITMAP
000000
003800
003000
00300C
7FFFFE
003000
003000
003000
203008
3FFFFC
30301C
303018
303018
303018
303018
303018
303018
303018
3031F8
303070
003000
003000
003000
000000
ENDCHAR

STARTCHAR cns2_213E
ENCODING 8510
SWIDTH 960 0
DWIDTH 24 0
BBX 24 24 0 -2
BITMAP
000000
0000C0
07FFE0
060C00
060C00
060C00
060C00
040C00
0C0C00
0C1830
0FFFF8
0C1800
001F00
003600
003600
006600
006600
00C604
018604
030604
060606
1807FE
6003FC
000000
ENDCHAR

STARTCHAR cns2_213F
ENCODING 8511
SWIDTH 960 0
DWIDTH 24 0
BBX 24 24 0 -2
BITMAP
000000
010080
01FFC0
0181C0
018180
018180
018180
030180
0301FE
0600FC
380000
000020
0FFFF0
020070
0180C0
00C180
006300
003E00
003C00
007700
01C1E0
0E007E
70001C
000000
ENDCHAR

STARTCHAR cns2_2140
ENCODING 8512
SWIDTH 960 0
DWIDTH 24 0
BBX 24 24 0 -2
BITMAP
000000
000000
080010
0FFFF8
0C1838
0C1830
0C1830
0C1830
0C1830
0C1830
0C1834
7FFFFE
183060
183060
183060
183060
186060
186060
186060
186060
1FFFE0
180060
000000
000000
ENDCHAR

STARTCHAR cns2_2141
ENCODING 8513
SWIDTH 960 0
DWIDTH 24 0
BBX 24 24 0 -2
BITMAP
000000
070000
060000
060030
07FFF8
0C0000
1800C0
13FFE0
200000
000040
7FFFE0
0000E0
0000C0
0000C0
0000C0
0000C0
000062
000062
000062
000032
00003A
00001E
000004
000000
ENDCHAR

STARTCHAR cns2_2142
ENCODING 8514
SWIDTH 960 0
DWIDTH 24 0
BBX 24 24 0 -2
BITMAP
000000
000070
038060
030060
030060
030060
030060
030060
03FFE0
020060
000060
000060
040060
07FFE0
060060
060060
060060
060060
060060
040060
0C0060
080060
100060
000000
ENDCHAR

STARTCHAR cns2_2143
ENCODING 8515
SWIDTH 960 0
DWIDTH 24 0
BBX 24 24 0 -2
BITMAP
000000
007380
006300
1C630E
18630C
18630C
18630C
18630C
18630C
18630C
18630C
18630C
1FE3FC
18630C
18630C
00C300
00C300
018300
018300
030300
060300
180300
200300
000000
ENDCHAR

STARTCHAR cns2_2144
ENCODING 8516
SWIDTH 960 0
DWIDTH 24 0
BBX 24 24 0 -2
BITMAP
000000
01C1C0
018180
018180
018198
3FFFFC
018180
018180
01B180
019980
019D80
018980
018180
018186
7FFFFE
018180
018180
030180
060180
060180
0C0180
180180
600180
000000
ENDCHAR

STARTCHAR cns2_2145
ENCODING 8517
SWIDTH 960 0
DWIDTH 24 0
BBX 24 24 0 -2
BITMAP
000000
01C000
018000
018000
030018
033FFC
060000
060000
0C0000
0C0000
1E0000
360030
261FF8
460000
060000
060000
060000
060000
06000C
067FFE
060000
060000
060000
000000
ENDCHAR

STARTCHAR cns2_2146
ENCODING 8518
SWIDTH 960 0
DWIDTH 24 0
BBX 24 24 0 -2
BITMAP
000000
01C000
018000
018000
030030
037FF8
060300
060300
0C0300
0C0300
1E0300
360300
260300
460300
060300
060300
060300
060300
06030C
07FFFE
060000
060000
060000
000000
ENDCHAR

STARTCHAR cns2_2147
ENCODING 8519
SWIDTH 960 0
DWIDTH 24 0
BBX 24 24 0 -2
BITMAP
000000
038380
030300
030300
060300
060300
0C0300
0C0300
0C0300
1C0318
1603FC
360300
260300
460300
060300
060300
060300
060300
060300
060300
06030C
06FFFE
060000
000000
ENDCHAR

STARTCHAR cns2_2148
ENCODING 8520
SWIDTH 960 0
DWIDTH 24 0
BBX 24 24 0 -2
BITMAP
000000
071C00
061800
061800
0C300C
0C3FFE
186000
184000
3C8000
2C0020
6C3FF8
4C00F0
0C01C0
0C0380
0C0600
0C0C00
0C1800
0C3004
0C3004
0C6006
0C7FFE
0C3FFC
0C0000
000000
ENDCHAR

STARTCHAR cns2_2149
ENCODING 8521
SWIDTH 960 0
DWIDTH 24 0
BBX 24 24 0 -2
BITMAP
000000
003800
003000
006800
00C600
018300
030180
0600E0
0C0078
18003E
60000C
000040
07FFE0
001800
001800
001800
001800
001800
001800
001800
001818
3FFFFC
000000
000000
ENDCHAR

STARTCHAR cns2_214A
ENCODING 8522
SWIDTH 960 0
DWIDTH 24 0
BBX 24 24 0 -2
BITMAP
000000
001C00
001800
001800
003400
003600
006300
00C180
0380E0
061C78
1C183E
70180C
001800
0E1838
0C1830
0C1830
0C1830
0C1830
0C1830
0C1830
0FFFF0
0C0030
0C0030
000000
ENDCHAR

STARTCHAR cns2_214B
ENCODING 8523
SWIDTH 960 0
DWIDTH 24 0
BBX 24 24 0 -2
BITMAP
000000
00700E
00600C
00600C
00600C
0060EC
006CCC
7FFECC
0060CC
0060CC
0060CC
1060CC
0C60CC
0660CC
0760CC
0360CC
0060CC
0060CC
00600C
00600C
00600C
03E07C
00C018
000000
ENDCHAR

STARTCHAR cns2_214C
ENCODING 8524
SWIDTH 960 0
DWIDTH 24 0
BBX 24 24 0 -2
BITMAP
000000
07000E
06000C
0C000C
0C180C
1FFC0C
3001CC
20018C
40018C
00218C
3FF98C
00718C
00E18C
01C18C
03818C
07018C
0E018C
18040C
18040C
30040C
30060C
3FFE7C
1FFC18
000000
ENDCHAR

STARTCHAR cns2_214D
ENCODING 8525
SWIDTH 960 0
DWIDTH 24 0
BBX 24 24 0 -2
BITMAP
000000
20000C
3FFFFE
300000
30E700
30C600
30C610
30C7F8
30FE38
37C630
30C630
30C660
30C680
30C600
30C008
30C00C
30FFFC
307FF8
300000
300000
30000C
3FFFFE
300000
000000
ENDCHAR

STARTCHAR cns2_214E
ENCODING 8526
SWIDTH 960 0
DWIDTH 24 0
BBX 24 24 0 -2
BITMAP
000000
0E0038
0C6630
0C6630
0C6630
0C6630
0C6630
0C6630
0C6630
0C6634
7FFFFE
0C6630
0C6630
0C6630
0C6630
0C6630
0C6630
0C6630
186630
186630
106630
300030
400030
000000
ENDCHAR

STARTCHAR cns2_214F
ENCODING 8527
SWIDTH 960 0
DWIDTH 24 0
BBX 24 24 0 -2
BITMAP
000000
0E000C
0C3FFE
0C00C0
0C00C0
0C00C0
0C00C0
0D80C0
7FC0C0
0C00C0
0C00C0
0C00C0
0C00C0
0C00C0
0C00C0
0C00C0
0DC0C0
0F00C0
7C00C0
7000C0
2000C0
000FC0
000380
000000
ENDCHAR

STARTCHAR cns2_2150
ENCODING 8528
SWIDTH 960 0
DWIDTH 24 0
BBX 24 24 0 -2
BITMAP
000000
000040
1FFFE0
0400C0
030180
018300
00C600
006C00
003800
006E00
01C780
0701E0
1C1C7C
701818
001800
001860
0FFFF0
001800
001800
001800
00180C
7FFFFE
000000
000000
ENDCHAR

STARTCHAR cns2_2151
ENCODING 8529
SWIDTH 960 0
DWIDTH 24 0
BBX 24 24 0 -2
BITMAP
038000
030302
0303FF
061B07
07FF06
0C1B06
0C1B06
181B06
181B06
343306
233306
41A31E
81E30C
00C300
00C300
018300
018300
030300
060300
0C0302
180303
300303
C003FF
0001FE
ENDCHAR

STARTCHAR cns2_2152
ENCODING 8530
SWIDTH 960 0
DWIDTH 24 0
BBX 24 24 0 -2
BITMAP
000000
001C00
001800
001800
00180C
7FFFFE
003000
006600
00C300
0381C0
0E7070
70601E
00600C
006020
0FFFF0
006070
00C060
00C060
018060
018060
0300E0
061FC0
180380
000000
ENDCHAR

STARTCHAR cns2_2153
ENCODING 8531
SWIDTH 960 0
DWIDTH 24 0
BBX 24 24 0 -2
BITMAP
000000
006000
003800
101804
1FFFFE
30000C
70000C
600018
000060
0FFFF0
001800
001800
001800
001800
001800
001800
001800
001800
001800
001800
001800
03F800
007000
000000
ENDCHAR

STARTCHAR cns2_2154
ENCODING 8532
SWIDTH 960 0
DWIDTH 24 0
BBX 24 24 0 -2
BITMAP
000000
006000
003800
101804
1FFFFE
30000E
70700C
606018
006000
006000
006080
0FFFC0
0061C0
006180
006180
00C180
00C180
018184
030184
030186
060186
0C01FE
3000FC
000000
ENDCHAR

STARTCHAR cns2_2155
ENCODING 8533
SWIDTH 960 0
DWIDTH 24 0
BBX 24 24 0 -2
BITMAP
000000
003800
003000
006800
006400
00C600
018300
0301C0
0600F0
0C003E
181C0C
301800
401800
001800
0318C0
031860
061830
0C1818
0C181C
18180C
201800
00F800
003000
000000
ENDCHAR

STARTCHAR cns2_2156
ENCODING 8534
SWIDTH 960 0
DWIDTH 24 0
BBX 24 24 0 -2
BITMAP
000000
080010
0FFFF8
0C0038
0C0030
0C0030
0C0030
0FFFF0
0C1830
0C1800
0C1800
0C1840
0DFFE0
0C18E0
1818C0
1830C0
1830C4
1060C4
1060C4
20C0C6
2180C6
4300FE
0C007C
000000
ENDCHAR

STARTCHAR cns2_2157
ENCODING 8535
SWIDTH 960 0
DWIDTH 24 0
BBX 24 24 0 -2
BITMAP
000000
001C00
001800
1C181C
181818
181818
181818
1FFFF8
180018
003800
003000
003008
7FFFFC
00301C
003018
006018
006018
00C018
00C030
018030
030070
0C0FE0
3003C0
000000
ENDCHAR

STARTCHAR cns2_2158
ENCODING 8536
SWIDTH 960 0
DWIDTH 24 0
BBX 24 24 0 -2
BITMAP
000000
007000
001800
001C00
003600
006300
00C180
0180C0
030060
061C30
0C181E
78180C
001800
071870
061860
061860
061860
061860
061860
061860
061860
07FFE0
060060
000000
ENDCHAR

STARTCHAR cns2_2159
ENCODING 8537
SWIDTH 960 0
DWIDTH 24 0
BBX 24 24 0 -2
BITMAP
000000
07000C
063FFE
0600C0
4620C0
7FF0C0
6670C0
6660C0
6660C0
6660C0
6660C0
6660C0
6660C0
6660C0
6660C0
6660C0
67E0C0
66C0C0
0600C0
0600C0
0600C0
060FC0
060380
000000
ENDCHAR

STARTCHAR cns2_215A
ENCODING 8538
SWIDTH 960 0
DWIDTH 24 0
BBX 24 24 0 -2
BITMAP
000000
001800
000E00
10060C
1FFFFE
180000
180000
18E000
18C038
18C030
18C060
18C0C0
18C380
18CE00
18F800
18C000
18C004
30C004
30C004
30C006
20C006
60FFFE
407FFC
000000
ENDCHAR

STARTCHAR cns2_215B
ENCODING 8539
SWIDTH 960 0
DWIDTH 24 0
BBX 24 24 0 -2
BITMAP
000000
001800
000E00
10060C
1FFFFE
180000
180700
180600
180600
180600
180600
180600
180600
180D00
180D80
181980
1818C0
3030C0
306060
318038
26001E
20000C
400000
000000
ENDCHAR

STARTCHAR cns2_215C
ENCODING 8540
SWIDTH 960 0
DWIDTH 24 0
BBX 24 24 0 -2
BITMAP
000000
0E0000
0C0004
0C7FFE
0C030E
0C030C
0E030C
2D030C
2D830C
2C830C
6C030C
4C030C
4C060C
0C060C
0C060C
0C0C0C
0C0C0C
0C180C
0C1818
0C3018
0C3038
0C63F0
0D8060
000000
ENDCHAR

STARTCHAR cns2_215D
ENCODING 8541
SWIDTH 960 0
DWIDTH 24 0
BBX 24 24 0 -2
BITMAP
000000
000EC0
000C70
000C30
200C0C
3FFFFE
300C00
300C00
300C00
300C30
300C38
300C30
300660
300660
3006C0
300380
30C308
370308
3C0588
700DC8
6038EC
00E07C
0F8038
000000
ENDCHAR

STARTCHAR cns2_215E
ENCODING 8542
SWIDTH 960 0
DWIDTH 24 0
BBX 24 24 0 -2
BITMAP
000000
0E0380
0C0300
0C0300
0C0300
0D0300
7F8304
0C7FFE
0C030E
0C030C
0C030C
0CC60C
0F060C
1C060C
7C0C0C
6C0C0C
0C0C0C
0C180C
0C1818
0C3018
0C3038
7C63F0
188060
000000
ENDCHAR

STARTCHAR cns2_215F
ENCODING 8543
SWIDTH 960 0
DWIDTH 24 0
BBX 24 24 0 -2
BITMAP
000000
070000
060030
0FFFF8
0C0000
180040
33FFE0
400000
000020
1FFFF0
000070
007060
006060
006060
006030
006032
00C032
00C032
00C01A
01801A
01800E
03000E
0C0004
000000
ENDCHAR

STARTCHAR cns2_2160
ENCODING 8544
SWIDTH 960 0
DWIDTH 24 0
BBX 24 24 0 -2
BITMAP
000000
000040
1FFFE0
0001C0
000700
001C00
001800
001800
009808
3FDA1C
01DA18
019B30
019B60
019BC0
031980
031980
0618C0
061860
0C1838
18181E
60180C
00F800
003000
000000
ENDCHAR

STARTCHAR cns2_2161
ENCODING 8545
SWIDTH 960 0
DWIDTH 24 0
BBX 24 24 0 -2
BITMAP
000000
300180
180180
180180
0A0180
020980
0208C0
6418C0
3418C0
3418C0
0C18C0
081860
183060
183060
183060
783030
306030
306038
306018
30C01C
18C00C
19800E
1E0004
000000
ENDCHAR

STARTCHAR cns2_2162
ENCODING 8546
SWIDTH 960 0
DWIDTH 24 0
BBX 24 24 0 -2
BITMAP
000000
301C00
181800
181800
0A1800
021820
021FF0
64F860
641860
341860
0C1860
081860
181860
181860
183060
783060
303064
302064
306064
304066
18C066
18807E
19003C
000000
ENDCHAR

STARTCHAR cns2_2163
ENCODING 8547
SWIDTH 960 0
DWIDTH 24 0
BBX 24 24 0 -2
BITMAP
000000
180380
0E0300
060300
000300
000304
617FFE
31030E
31030C
03030C
02030C
06060C
06060C
0C060C
0C060C
1C0C0C
780C0C
380C18
181818
181818
0C3038
0C63F0
0C80E0
000000
ENDCHAR

STARTCHAR cns2_2164
ENCODING 8548
SWIDTH 960 0
DWIDTH 24 0
BBX 24 24 0 -2
BITMAP
000000
01C000
018200
018180
0180C0
0180C0
01800C
7FFFFE
030000
030000
030000
036020
036030
063060
061840
060CC0
0C0780
0C0300
180780
100CC0
201870
40601E
03800C
000000
ENDCHAR

STARTCHAR cns2_2165
ENCODING 8549
SWIDTH 960 0
DWIDTH 24 0
BBX 24 24 0 -2
BITMAP
000000
030E00
230C00
160C00
1E0C00
0C0C00
1C0C20
36FFF0
460C70
060C60
0E0C60
0F0C60
1B0C60
331860
231860
431860
033060
033064
032064
066066
0C4066
7C807E
19003C
000000
ENDCHAR

STARTCHAR cns2_2166
ENCODING 8550
SWIDTH 960 0
DWIDTH 24 0
BBX 24 24 0 -2
BITMAP
000000
000018
3FFFFC
001800
001800
001900
0018C0
001870
001838
001810
001800
001830
1FFFF8
001800
001800
001800
001800
001800
001800
001800
001808
00181C
7FFFFE
000000
ENDCHAR

STARTCHAR cns2_2167
ENCODING 8551
SWIDTH 960 0
DWIDTH 24 0
BBX 24 24 0 -2
BITMAP
000000
001C00
001800
001800
001800
101808
3FFFFC
18181C
181818
181818
181818
181918
181998
181898
181FD8
19FCD8
18E0D8
180018
180018
180018
180018
1803F8
180070
000000
ENDCHAR

STARTCHAR cns2_2168
ENCODING 8552
SWIDTH 960 0
DWIDTH 24 0
BBX 24 24 0 -2
BITMAP
000000
208000
3FC004
31DFFE
31800E
31801C
318038
3D8070
3780E0
3180C0
3181C0
318380
318700
378600
3D8E00
319C00
31B804
31B004
31B004
21B006
21BFFE
4F9FFC
030000
000000
ENDCHAR

STARTCHAR cns2_2169
ENCODING 8553
SWIDTH 960 0
DWIDTH 24 0
BBX 24 24 0 -2
BITMAP
000000
208380
3FC300
318300
318300
330304
327FFE
32030E
34030C
32030C
33030C
31830C
31830C
31860C
31860C
3F060C
360C0C
300C0C
301818
301818
303038
3061F0
318060
000000
ENDCHAR

STARTCHAR cns2_216A
ENCODING 8554
SWIDTH 960 0
DWIDTH 24 0
BBX 24 24 0 -2
BITMAP
000000
070380
060300
060300
0C030C
0CFFFE
180300
180300
180300
380308
38FFFC
6C0018
4C1030
4C1830
0C0C60
0C06C0
0C0380
0C0380
0C0680
0C0C60
0C1838
0C601E
0D800C
000000
ENDCHAR

STARTCHAR cns2_216B
ENCODING 8555
SWIDTH 960 0
DWIDTH 24 0
BBX 24 24 0 -2
BITMAP
000000
070700
060630
060618
0C0618
0C0600
0C060C
19FFFE
180600
1805C0
3C0D80
2C0D80
4C0D80
0C0D80
0C1980
0C1980
0C1980
0C3184
0C3184
0C6184
0CC186
0D81FE
0C00FC
000000
ENDCHAR

STARTCHAR cns2_216C
ENCODING 8556
SWIDTH 960 0
DWIDTH 24 0
BBX 24 24 0 -2
BITMAP
000000
072008
063FFC
06301C
063018
0E3018
0C3018
0C3018
183018
183FF8
183418
383400
2C3400
6C3600
4C3200
0C3300
0C6180
0C60C0
0C60C0
0CC060
0CC038
0D801E
0E000C
000000
ENDCHAR

STARTCHAR cns2_216D
ENCODING 8557
SWIDTH 960 0
DWIDTH 24 0
BBX 24 24 0 -2
BITMAP
000000
071C00
061800
061800
0C3018
0C3FFC
0C3180
186180
186180
3CC180
2D0180
6C018C
4C7FFE
0C0180
0C0180
0C0180
0C0180
0C0180
0C0180
0C0180
0C0180
0C0180
0C0180
000000
ENDCHAR

STARTCHAR cns2_216E
ENCODING 8558
SWIDTH 960 0
DWIDTH 24 0
BBX 24 24 0 -2
BITMAP
000000
070000
064004
067FFE
0CC00E
0CC00C
0CC018
18C000
180000
181CE0
3C18C0
2C18C0
4C18C0
0C18C0
0C18C0
0C18C0
0C30C0
0C30C4
0C60C4
0C60C4
0CC0C6
0D80FE
0E007C
000000
ENDCHAR

STARTCHAR cns2_216F
ENCODING 8559
SWIDTH 960 0
DWIDTH 24 0
BBX 24 24 0 -2
BITMAP
000000
070700
060600
060D00
0C0980
0C18C0
0C3060
183038
18609E
18DFCC
3D0000
2C0000
4C0010
0CFFF8
0C0038
0C0030
0C0060
0C0060
0C00C0
0C00C0
0C0180
0C0180
0C0300
000000
ENDCHAR

STARTCHAR cns2_2170
ENCODING 8560
SWIDTH 960 0
DWIDTH 24 0
BBX 24 24 0 -2
BITMAP
000000
030040
030C40
060E40
060C60
0C1820
0C1820
181830
183018
38301C
2C630E
6CC304
4C0700
0C0600
0C0600
0C0C20
0C0C10
0C1818
0C1818
0C20FC
0CFF8C
0C700C
0C0000
000000
ENDCHAR

STARTCHAR cns2_2171
ENCODING 8561
SWIDTH 960 0
DWIDTH 24 0
BBX 24 24 0 -2
BITMAP
000000
070380
060300
060680
0606C0
0C0C40
0C0C60
0C1830
183018
18600E
38DC74
2D1860
6C1860
4C1860
0C1860
0C1860
0C1860
0C1860
0C1860
0C3060
0C3060
0C6060
0C8060
000000
ENDCHAR

STARTCHAR cns2_2172
ENCODING 8562
SWIDTH 960 0
DWIDTH 24 0
BBX 24 24 0 -2
BITMAP
000000
030000
038600
030180
0600C0
0600E0
060060
0C0E00
0C0C00
1C0C00
1C0C08
362C04
262C04
666C06
466C06
06CC16
06CC10
068C10
060C18
060C18
060FF8
0607F0
060000
000000
ENDCHAR

STARTCHAR cns2_2173
ENCODING 8563
SWIDTH 960 0
DWIDTH 24 0
BBX 24 24 0 -2
BITMAP
000000
038000
030030
033FF8
060000
060000
0C0000
0C0000
0C000C
1CFFFE
360600
260600
460400
060C00
060840
061820
061030
063018
06207C
06438C
06FE0E
066006
060004
000000
ENDCHAR

STARTCHAR cns2_2174
ENCODING 8564
SWIDTH 960 0
DWIDTH 24 0
BBX 24 24 0 -2
BITMAP
000000
070C00
060700
06030C
0CFFFE
0C0300
0C0300
180300
184308
187FFC
3C631C
2C6318
4C6318
0C6318
0C6318
0C6318
0C6318
0C6318
0C6378
0C6330
0C0300
0C0300
0C0300
000000
ENDCHAR

STARTCHAR cns2_2175
ENCODING 8565
SWIDTH 960 0
DWIDTH 24 0
BBX 24 24 0 -2
BITMAP
000000
030380
038300
03030C
06FFFE
060300
0C0300
0CE30E
18C30C
18C30C
3CC30C
3CC30C
4CC30C
0CC30C
0CC30C
0CFFFC
0CC30C
0CC300
0CC304
0C0304
0C0306
0C03FE
0C01FC
000000
ENDCHAR

STARTCHAR cns2_2176
ENCODING 8566
SWIDTH 960 0
DWIDTH 24 0
BBX 24 24 0 -2
BITMAP
000000
030018
03FFFC
0700C0
0638C0
0E30C0
0E30C0
0C30C0
1C30C0
1860C0
3860CC
3C7FFE
6C01C0
0C01C0
0C03C0
0C06C0
0C0CC0
0C18C0
0C30C0
0CC0C0
0F00C0
0C0FC0
0C0380
000000
ENDCHAR

STARTCHAR cns2_2177
ENCODING 8567
SWIDTH 960 0
DWIDTH 24 0
BBX 24 24 0 -2
BITMAP
000000
038000
03000C
037FFE
060180
060180
0C0300
0C0300
180600
1E0E40
360F20
661B30
463318
06630C
06C30E
070306
060300
060300
060300
060300
060300
060300
060300
000000
ENDCHAR

STARTCHAR cns2_2178
ENCODING 8568
SWIDTH 960 0
DWIDTH 24 0
BBX 24 24 0 -2
BITMAP
000000
030000
038008
07FFFC
06061C
0E0618
0E0618
0C8618
1CFFF8
18C600
38C600
3D8600
6D8604
0DFFFE
0D860E
0C060C
0C060C
0C060C
0C060C
0C063C
0C0618
0C0600
0C0600
000000
ENDCHAR

STARTCHAR cns2_2179
ENCODING 8569
SWIDTH 960 0
DWIDTH 24 0
BBX 24 24 0 -2
BITMAP
000000
038000
030804
030FFE
060C0E
060C0C
0C0C0C
0C0C0C
0E0FFC
1E0C0C
160C0C
360C0C
260C0C
460FFC
060C0C
060C0C
060C0C
060C0C
06180C
06180C
06180C
0630FC
06C038
000000
ENDCHAR

STARTCHAR cns2_217A
ENCODING 8570
SWIDTH 960 0
DWIDTH 24 0
BBX 24 24 0 -2
BITMAP
000000
07001C
06007E
0621E0
063F00
0C3000
0C3000
0C3000
18300C
183FFE
3C3060
2C3060
4C3060
0C3060
0C3060
0C3060
0C6060
0C6060
0C4060
0CC060
0C8060
0D0060
0E0060
000000
ENDCHAR

STARTCHAR cns2_217B
ENCODING 8571
SWIDTH 960 0
DWIDTH 24 0
BBX 24 24 0 -2
BITMAP
000000
00000C
41FFFE
301C00
181800
181800
021800
021810
023FF8
063038
063030
067030
0C6070
0C6060
187FE0
78E060
30C060
30C060
3000E0
1800C0
1800CC
19FFFE
180000
000000
ENDCHAR

STARTCHAR cns2_217C
ENCODING 8572
SWIDTH 960 0
DWIDTH 24 0
BBX 24 24 0 -2
BITMAP
000000
00000E
00600C
1FF00C
00000C
0001CC
00018C
00018C
00198C
7FFD8C
06C18C
06C18C
06C18C
06C18C
06C18C
06C18C
0CC18C
0CC00C
0CC00C
18CC0C
18F00C
30607C
400018
000000
ENDCHAR

STARTCHAR cns2_217D
ENCODING 8573
SWIDTH 960 0
DWIDTH 24 0
BBX 24 24 0 -2
BITMAP
000000
08100E
0FF80C
0C380C
0C30EC
0D30CC
0DB0CC
0DB0CC
0DB0CC
0CB0CC
0C34CC
7FFECC
0C30CC
0C30CC
0C30CC
0C30CC
0C30CC
0C30CC
18300C
18300C
10300C
31F07C
206018
000000
ENDCHAR

STARTCHAR cns2_217E
ENCODING 8574
SWIDTH 960 0
DWIDTH 24 0
BBX 24 24 0 -2
BITMAP
000000
001C00
001800
001810
0FFFF8
001838
003030
003030
006030
01C070
0707E0
3C01C0
000000
0700E0
0620C4
7FF7FE
0670CE
0660CC
0C618C
0C618C
18E31C
33C678
619830
000000
ENDCHAR

STARTCHAR cns2_2221
ENCODING 8737
SWIDTH 960 0
DWIDTH 24 0
BBX 24 24 0 -2
BITMAP
000000
20000C
3FFFFE
300000
307000
306000
306008
30FFFC
30D99C
319998
331998
3C3318
303318
306618
30C630
318C30
331830
3C3060
30C3E0
3000C0
30000C
3FFFFE
300000
000000
ENDCHAR

STARTCHAR cns2_2222
ENCODING 8738
SWIDTH 960 0
DWIDTH 24 0
BBX 24 24 0 -2
BITMAP
000000
20000C
3FFFFE
300000
301800
300C30
33FFF8
300000
300000
304080
307FC0
3061C0
306180
306180
306180
30C188
30C188
3181FC
3200F8
300000
30000C
3FFFFE
300000
000000
ENDCHAR

STARTCHAR cns2_2223
ENCODING 8739
SWIDTH 960 0
DWIDTH 24 0
BBX 24 24 0 -2
BITMAP
000000
00080E
7FFC0C
001C0C
00180C
00180C
00180C
00180C
00180C
00180C
20180C
3FFFFC
30180C
30180C
301800
301800
301800
301800
301800
301800
30180C
301FFE
301800
000000
ENDCHAR

STARTCHAR cns2_2224
ENCODING 8740
SWIDTH 960 0
DWIDTH 24 0
BBX 24 24 0 -2
BITMAP
000000
04000C
07FFFE
060018
061FFC
0600C0
0670C0
0660C0
0660C0
06C0C0
06C0CC
06FFFE
0600C0
0C01C0
0C03C0
0C07C0
0C1CC0
1830C0
1860C0
1980C0
3200C0
300FC0
400380
000000
ENDCHAR

STARTCHAR cns2_2225
ENCODING 8741
SWIDTH 960 0
DWIDTH 24 0
BBX 24 24 0 -2
BITMAP
000000
000008
003FFC
20801C
3FC018
31C030
318060
3181C0
318180
318180
318180
31818C
31BFFE
318180
318180
318180
318180
3F8180
318180
300180
000180
001F80
000700
000000
ENDCHAR

STARTCHAR cns2_2226
ENCODING 8742
SWIDTH 960 0
DWIDTH 24 0
BBX 24 24 0 -2
BITMAP
000000
200004
3FFFFE
30000E
30000C
30380C
30300C
30300C
3060CC
3060CC
33FFEC
30C18C
30C30C
31830C
33760C
330C0C
301F0C
3031CC
33C06C
30000C
30000C
3FFFFC
30000C
000000
ENDCHAR

STARTCHAR cns2_2227
ENCODING 8743
SWIDTH 960 0
DWIDTH 24 0
BBX 24 24 0 -2
BITMAP
000000
007800
007000
00C000
110010
1FFFFC
18001C
180198
180198
190318
18C318
183618
181C18
181C18
183618
186318
18C198
1981D8
1A00D8
180018
1FFFF8
180018
180018
000000
ENDCHAR

STARTCHAR cns2_2228
ENCODING 8744
SWIDTH 960 0
DWIDTH 24 0
BBX 24 24 0 -2
BITMAP
000000
0E0008
0C1FFC
0C001C
0C0018
0C0018
0C0018
0C8018
7FC018
0C1018
0C1FF8
0C1818
0C1800
0C1800
0C1800
0C1800
0CD800
0F9804
0E1804
781804
301806
001FFE
000FFC
000000
ENDCHAR

STARTCHAR cns2_2229
ENCODING 8745
SWIDTH 960 0
DWIDTH 24 0
BBX 24 24 0 -2
BITMAP
000000
0E0E00
0C0C00
0C0C00
0C180C
0C1FFE
0C1800
0D3000
7FA000
0C4010
0C1FF8
0C0070
0C00E0
0C01C0
0C0380
0C0700
0CCE00
0F9804
0E1804
783006
303006
003FFE
001FFC
000000
ENDCHAR

STARTCHAR cns2_222A
ENCODING 8746
SWIDTH 960 0
DWIDTH 24 0
BBX 24 24 0 -2
BITMAP
000000
0E0700
0C0600
0C0600
0C0C04
0C0FFE
0C180E
0C980C
7FD00C
0C200C
0C040C
0C030C
0C018C
0C01CC
0C00CC
0C000C
0CC00C
0F800C
0E0018
780018
300038
0007F0
0000E0
000000
ENDCHAR

STARTCHAR cns2_222B
ENCODING 8747
SWIDTH 960 0
DWIDTH 24 0
BBX 24 24 0 -2
BITMAP
000000
001C00
001800
00180C
7FFFFE
003200
003300
006180
00C0C0
018070
070038
1C001E
7380EC
031CC0
0318C0
0318C0
0318C0
0318C0
0318C0
0618C0
0618C0
0C18C0
3000C0
000000
ENDCHAR

STARTCHAR cns2_222C
ENCODING 8748
SWIDTH 960 0
DWIDTH 24 0
BBX 24 24 0 -2
BITMAP
000000
000380
008300
7FC310
01C318
019FFE
018318
018318
018318
218618
3F8618
318630
300C30
300C30
303860
303660
3001C0
3001C0
3041B0
31831C
37060E
3C0C06
183000
000000
ENDCHAR

STARTCHAR cns2_222D
ENCODING 8749
SWIDTH 960 0
DWIDTH 24 0
BBX 24 24 0 -2
BITMAP
000000
0E0030
0C0078
0C03C0
0CBF00
0CC300
7FE300
18C300
18C300
18C318
18C3FC
18FF00
30C300
318300
318300
6D8300
630300
038304
06C304
066304
0C4306
1803FE
2001FC
000000
ENDCHAR

STARTCHAR cns2_222E
ENCODING 8750
SWIDTH 960 0
DWIDTH 24 0
BBX 24 24 0 -2
BITMAP
000000
0E0000
0C0000
0C8018
0CCFFC
7FE0C0
0CC0C0
0CC0C0
0CC0C0
18C0C0
18C0C0
18C0C0
3180C0
3180C0
3180C0
7900C0
6700C0
0380C0
06C0C0
0C60C0
1840CC
301FFE
400000
000000
ENDCHAR

STARTCHAR cns2_222F
ENCODING 8751
SWIDTH 960 0
DWIDTH 24 0
BBX 24 24 0 -2
BITMAP
000000
0700E0
0600C0
0620C4
0660CC
7FF7FE
0670CE
0C618C
0C618C
0C618C
18630C
18C318
18C318
18C318
3E87D0
318630
01C038
01602C
033066
0620C4
0C0180
180300
600C00
000000
ENDCHAR

STARTCHAR cns2_2230
ENCODING 8752
SWIDTH 960 0
DWIDTH 24 0
BBX 24 24 0 -2
BITMAP
000000
0E00E0
0C00C0
0C80C0
0CC0C0
7FE0C0
0CCECE
18CCCC
18CCCC
18CCCC
18CCCC
30CCCC
318CCC
318CCC
318CCC
7D0CCC
630CCC
038CCC
06CCCC
0C6FFC
184C0C
300C0C
400000
000000
ENDCHAR

STARTCHAR cns2_2231
ENCODING 8753
SWIDTH 960 0
DWIDTH 24 0
BBX 24 24 0 -2
BITMAP
000000
0E003C
0C00F0
0C03C0
181CC0
1880C0
7FC0C0
19C0C0
1980C0
3180CC
31BFFE
3180C0
3180C0
6180C0
6100C0
6300C0
7A00C0
6600C0
0700C0
0D80C0
1880C0
1000C0
6000C0
000000
ENDCHAR

STARTCHAR cns2_2232
ENCODING 8754
SWIDTH 960 0
DWIDTH 24 0
BBX 24 24 0 -2
BITMAP
000000
1C0700
180600
180620
180634
185FFE
7FE630
18E630
18C630
58CC30
38CC60
38CC60
18DE60
1CDB60
1EC0C0
16C1C0
10C360
30C634
30CC24
20D004
20C006
40FFFE
407FFC
000000
ENDCHAR

STARTCHAR cns2_2233
ENCODING 8755
SWIDTH 960 0
DWIDTH 24 0
BBX 24 24 0 -2
BITMAP
000000
002004
3FF7FE
003006
00600C
00C018
0380F0
0300C0
0300C0
0310C0
0360C0
03C0CC
0F1FFE
7B00C0
2300C0
0300C0
0300C0
0300C0
0300C0
0300C0
0300C0
1F07C0
060180
000000
ENDCHAR

STARTCHAR cns2_2234
ENCODING 8756
SWIDTH 960 0
DWIDTH 24 0
BBX 24 24 0 -2
BITMAP
000000
000080
1FFFC0
0181C0
018180
018308
0303FC
03001C
030018
060018
061818
0C1830
1819F0
601860
039800
031840
061860
061830
0C1818
18181C
60180C
01F800
007000
000000
ENDCHAR

STARTCHAR cns2_2235
ENCODING 8757
SWIDTH 960 0
DWIDTH 24 0
BBX 24 24 0 -2
BITMAP
000000
070000
060380
060300
063300
7FFE00
060608
0607FC
06CC1C
06D818
06E018
0CCC18
0CC718
0CC3D8
0CC198
18C018
18C018
18C018
30C1F4
30C064
20C006
40FFFE
407FFC
000000
ENDCHAR

STARTCHAR cns2_2236
ENCODING 8758
SWIDTH 960 0
DWIDTH 24 0
BBX 24 24 0 -2
BITMAP
000000
000000
06000C
043FFE
040660
040660
74E660
64C660
64C660
64C660
64C660
64C660
64CC60
64CC60
64CC60
64CC60
64D860
64D864
7FD864
60B064
603066
00607E
01803C
000000
ENDCHAR

STARTCHAR cns2_2237
ENCODING 8759
SWIDTH 960 0
DWIDTH 24 0
BBX 24 24 0 -2
BITMAP
000000
070004
0607FE
06000E
06000C
06000C
66600C
66600C
66600C
66660C
6667FC
66660C
666600
666600
666600
666600
666604
666604
7FE604
606604
600606
0007FE
0003FC
000000
ENDCHAR

STARTCHAR cns2_2238
ENCODING 8760
SWIDTH 960 0
DWIDTH 24 0
BBX 24 24 0 -2
BITMAP
000000
070004
061FFE
06018E
06018C
66618C
66618C
66618C
66618C
66698C
666D8C
66678C
66638C
66618C
66618C
66630C
66630C
66630C
66660C
7FEC0C
601818
6031F8
004070
000000
ENDCHAR

STARTCHAR cns2_2239
ENCODING 8761
SWIDTH 960 0
DWIDTH 24 0
BBX 24 24 0 -2
BITMAP
000000
0700E0
0600C0
0600C0
0600C0
0600C0
766CCE
666CCC
666CCC
666CCC
666CCC
666CCC
666CCC
666CCC
666CCC
666CCC
666CCC
666CCC
666CCC
666CCC
7FEFFC
606C0C
600C00
000000
ENDCHAR

STARTCHAR cns2_223A
ENCODING 8762
SWIDTH 960 0
DWIDTH 24 0
BBX 24 24 0 -2
BITMAP
000000
001800
000C0C
7FFFFE
0C0000
0C0000
0C0000
0C0000
0C0000
0FFFF8
07FFF0
000000
0739C0
063180
063180
063180
063180
063180
0C3184
0C3184
183186
3031FE
4000FC
000000
ENDCHAR

STARTCHAR cns2_223B
ENCODING 8763
SWIDTH 960 0
DWIDTH 24 0
BBX 24 24 0 -2
BITMAP
000000
00C018
3FE7FC
0600C0
0600C0
0600C0
0600C0
0600C0
0600C0
0600CC
07CFFE
7E00C0
3600C0
0600C0
0600C0
0C00C0
0C00C0
0C00C0
0C00C0
1800C0
1800C0
1800C0
3000C0
000000
ENDCHAR

STARTCHAR cns2_223C
ENCODING 8764
SWIDTH 960 0
DWIDTH 24 0
BBX 24 24 0 -2
BITMAP
000000
001800
000E00
10060C
1FFFFE
180000
180700
180600
180600
180600
180618
19FFFC
180600
180600
180600
300600
300600
300600
200600
600600
40060C
47FFFE
000000
000000
ENDCHAR

STARTCHAR cns2_223D
ENCODING 8765
SWIDTH 960 0
DWIDTH 24 0
BBX 24 24 0 -2
BITMAP
000000
000010
1FFFF8
000038
000030
0FFFF0
0C0030
0C0004
0C0004
0FFFFE
07FFFC
000000
01C1C0
018180
01818C
7FFFFE
018180
018180
018180
030180
030180
060180
180180
000000
ENDCHAR

STARTCHAR cns2_223E
ENCODING 8766
SWIDTH 960 0
DWIDTH 24 0
BBX 24 24 0 -2
BITMAP
000000
030100
0380C0
070060
1C0038
70001E
00000C
3FFFF8
003018
003018
203018
3FFFF8
303018
303000
303004
3FFFFE
30300E
00300C
00300C
00301C
0031F8
003070
003000
000000
ENDCHAR

STARTCHAR cns2_223F
ENCODING 8767
SWIDTH 960 0
DWIDTH 24 0
BBX 24 24 0 -2
BITMAP
000000
030700
030600
060C00
0C0C04
180FFE
31980E
41980C
03100C
03200C
06000C
0C040C
1E030C
36018C
4601CC
0600CC
0600CC
06000C
060018
060018
060038
0603F0
060060
000000
ENDCHAR

STARTCHAR cns2_2240
ENCODING 8768
SWIDTH 960 0
DWIDTH 24 0
BBX 24 24 0 -2
BITMAP
000000
0E0380
0C0300
0C0300
0C0300
0C0300
0E0300
2D0300
2D8318
6D7FFC
6C0300
4C0300
4C0680
0C0680
0C06C0
0C0C40
0C0C60
0C1820
0C1830
0C3018
0C601C
0CC00E
0F0004
000000
ENDCHAR

STARTCHAR cns2_2241
ENCODING 8769
SWIDTH 960 0
DWIDTH 24 0
BBX 24 24 0 -2
BITMAP
000000
0E0700
0C0600
0C0600
0C0C18
0C0FFC
0E1800
2D1000
2DA010
2CDFFC
6C0078
6C00E0
4C01C0
4C0380
0C0700
0C0E00
0C1C04
0C1804
0C3004
0C3006
0C3FFE
0C1FFC
0C0000
000000
ENDCHAR

STARTCHAR cns2_2242
ENCODING 8770
SWIDTH 960 0
DWIDTH 24 0
BBX 24 24 0 -2
BITMAP
000000
0E0010
0C0038
0C00F8
0C07C0
0C3980
0C0180
0C0180
4E0180
6D8180
6D818C
6DBFFE
2C0180
0C0180
0C0180
0C0180
0C0180
0C0180
0C0180
0C0180
0C0180
0C0180
0C0180
000000
ENDCHAR

STARTCHAR cns2_2243
ENCODING 8771
SWIDTH 960 0
DWIDTH 24 0
BBX 24 24 0 -2
BITMAP
000000
0E0000
0C0018
0C3FFC
0C0180
0D0180
7F8180
0C0180
0C0180
0C018C
0C7FFE
0D0180
0E0180
1C0180
7C0180
6C0180
0C0180
0C0180
0C0180
0C0180
0C0180
7C0F80
180300
000000
ENDCHAR

STARTCHAR cns2_2244
ENCODING 8772
SWIDTH 960 0
DWIDTH 24 0
BBX 24 24 0 -2
BITMAP
000000
070000
060018
061FFC
060180
068180
7FC180
060180
060180
06018C
063FFE
068180
070180
0E0180
7E0180
660180
060180
060180
060180
060180
060180
3E0180
0C0180
000000
ENDCHAR

STARTCHAR cns2_2245
ENCODING 8773
SWIDTH 960 0
DWIDTH 24 0
BBX 24 24 0 -2
BITMAP
000000
0E0000
0C0000
0C000C
0C7FFE
0D0660
7F8660
0C0660
0C0660
0C0660
0C4660
0D8660
0E0660
1C0660
7C0660
6C0C60
0C0C60
0C0C64
0C1864
0C1864
0C3066
7C607E
18803C
000000
ENDCHAR

STARTCHAR cns2_2246
ENCODING 8774
SWIDTH 960 0
DWIDTH 24 0
BBX 24 24 0 -2
BITMAP
000000
0E01C0
0C0180
0C1D80
0C1980
0D1984
7F999E
0C19EE
0C1F8C
0C798C
0C1988
0D9998
0E1998
1C1990
7C1990
6C1980
0C1980
0C1980
0C1804
0C1804
0C1806
7C1FFE
180FFC
000000
ENDCHAR

STARTCHAR cns2_2247
ENCODING 8775
SWIDTH 960 0
DWIDTH 24 0
BBX 24 24 0 -2
BITMAP
000000
0E0018
0C007C
0C07C0
0C3D80
0C8180
7FC180
0C0180
0C0180
0C018C
0C7FFE
0C8180
0F0180
7C0180
6C0180
0C0180
0C0180
0C0180
0C0180
0C0180
0C0180
7C0180
180180
000000
ENDCHAR

STARTCHAR cns2_2248
ENCODING 8776
SWIDTH 960 0
DWIDTH 24 0
BBX 24 24 0 -2
BITMAP
000000
0E0C00
0C0C00
0C1800
0C180C
0D1FFE
7FB000
0C2000
0C4000
0C4010
0C1FF8
0C8070
0F00E0
7C01C0
6C0380
0C0700
0C0E00
0C1804
0C1804
0C3004
0C3006
7C3FFE
181FFC
000000
ENDCHAR

STARTCHAR cns2_2249
ENCODING 8777
SWIDTH 960 0
DWIDTH 24 0
BBX 24 24 0 -2
BITMAP
000000
0E00E0
0C00C0
0C00C0
0C00CC
0D7FFE
7F80C0
0C10C0
0C10C0
0C18C0
0D18C0
0E0CC0
1C0CC0
7C06C0
6C0380
0C0180
0C0080
0C01C0
0C0360
0C0630
0C0C1C
7C300F
18C006
000000
ENDCHAR

STARTCHAR cns2_224A
ENCODING 8778
SWIDTH 960 0
DWIDTH 24 0
BBX 24 24 0 -2
BITMAP
000000
0E0000
0C000C
0C3FFE
0C000C
0C900C
7FD20C
0C1B18
0C0998
0C0CB0
0C0C30
0C8660
0F0660
7C0340
6C03C0
0C0180
0C01C0
0C02C0
0C0660
0C0C30
0C181C
7C300E
18C006
000000
ENDCHAR

STARTCHAR cns2_224B
ENCODING 8779
SWIDTH 960 0
DWIDTH 24 0
BBX 24 24 0 -2
BITMAP
000000
070600
060700
060600
060C04
068FFE
7FD80E
06300C
06400C
06000C
06040C
06460C
07830C
0E038C
7E018C
66000C
06000C
06000C
06000C
06001C
060018
3E01F8
0C0070
000000
ENDCHAR

STARTCHAR cns2_224C
ENCODING 8780
SWIDTH 960 0
DWIDTH 24 0
BBX 24 24 0 -2
BITMAP
000000
0E0300
0C0318
0C037C
0C0FC0
0D7B00
7F8300
0C0300
0C0300
0C0300
0D0300
0E030C
1DFFFE
7C0300
6C0300
0C0300
0C0304
0C0304
0C0304
0C0306
0C0306
7C03FE
1801FC
000000
ENDCHAR

STARTCHAR cns2_224D
ENCODING 8781
SWIDTH 960 0
DWIDTH 24 0
BBX 24 24 0 -2
BITMAP
000000
000380
00C300
7FE300
0C0600
0C060C
0C07FE
180C18
180C18
185218
3FE218
30E230
30C230
00C130
00C160
00C1E0
00C0C0
00C1C0
00C160
018330
01861C
1F0C0E
063004
000000
ENDCHAR

STARTCHAR cns2_224E
ENCODING 8782
SWIDTH 960 0
DWIDTH 24 0
BBX 24 24 0 -2
BITMAP
000000
200010
3FFFF8
300038
300030
3FFFF0
300030
300030
3FFFF0
300030
00E000
00C000
00C080
3FFFC0
00C1C0
00C180
00C180
018184
018184
030184
060186
1801FE
6000FC
000000
ENDCHAR

STARTCHAR cns2_224F
ENCODING 8783
SWIDTH 960 0
DWIDTH 24 0
BBX 24 24 0 -2
BITMAP
000000
00E000
00C000
00C080
3FFFC0
00C1C0
00C180
018180
018184
030184
060186
1801FE
6000FC
000000
100008
1FFFFC
18001C
180018
1FFFF8
180018
180018
1FFFF8
180018
000000
ENDCHAR

STARTCHAR cns2_2250
ENCODING 8784
SWIDTH 960 0
DWIDTH 24 0
BBX 24 24 0 -2
BITMAP
000000
0E0000
0C000C
0C3FFE
0C00C0
0C80C0
7FC0C0
0C00C0
0C00C0
1C00C0
1E00C0
1D80C0
3CC0C0
2CE0C0
6C40C0
4C00C0
4C00C0
0C00C0
0C00C0
0C00C0
0C00C0
0C1FC0
0C0380
000000
ENDCHAR

STARTCHAR cns2_2251
ENCODING 8785
SWIDTH 960 0
DWIDTH 24 0
BBX 24 24 0 -2
BITMAP
000000
0E0E00
0C0C00
0C0C00
0C0C00
0D0C00
7F8C20
0C7FF0
0C0C70
1C0C60
1E0C60
3D0C60
2D8C60
6C8C60
4C0C60
4C0C60
0C1864
0C1864
0C1064
0C3066
0C2066
0C407E
0D803C
000000
ENDCHAR

STARTCHAR cns2_2252
ENCODING 8786
SWIDTH 960 0
DWIDTH 24 0
BBX 24 24 0 -2
BITMAP
000000
0701C0
060180
060180
060180
068184
7FDFFE
06018E
06018C
0E018C
0F018C
1E818C
16C30C
36630C
26630C
66060C
46060C
460C0C
060C1C
061818
063018
0641F0
060060
000000
ENDCHAR

STARTCHAR cns2_2253
ENCODING 8787
SWIDTH 960 0
DWIDTH 24 0
BBX 24 24 0 -2
BITMAP
000000
07000E
06000C
06000C
060E0C
064C0C
7FEC0C
060C0C
060C0C
060C0C
0E0C0C
0F0C0C
1E8C0C
16CC0C
366C0C
266FFC
660C0C
460C0C
46000C
06000C
06000C
06000C
06000C
000000
ENDCHAR

STARTCHAR cns2_2254
ENCODING 8788
SWIDTH 960 0
DWIDTH 24 0
BBX 24 24 0 -2
BITMAP
000000
070820
060FF0
060C70
060C60
068C60
7FCC60
060C60
060C60
0E0C60
0F0C60
0E8C60
1ECC60
164C60
260C60
260C60
460860
461864
061864
061064
063066
06207E
06C03C
000000
ENDCHAR

STARTCHAR cns2_2255
ENCODING 8789
SWIDTH 960 0
DWIDTH 24 0
BBX 24 24 0 -2
BITMAP
000000
001C00
001800
00180C
7FFFFE
001800
001800
081808
0FFFFC
0C181C
0C1818
0C1818
0C1818
0C3818
0C3C78
0C7B30
00D980
0198C0
031870
0C183E
70180C
001800
001800
000000
ENDCHAR

STARTCHAR cns2_2256
ENCODING 8790
SWIDTH 960 0
DWIDTH 24 0
BBX 24 24 0 -2
BITMAP
000000
070E00
060C00
060C00
060C00
068C00
7FCC00
060C18
060FFC
0E0C00
0E0C00
1F0C00
168C00
36CC00
266C00
664C04
460C04
460C04
060C04
060C06
060FFE
0607FC
060000
000000
ENDCHAR

STARTCHAR cns2_2257
ENCODING 8791
SWIDTH 960 0
DWIDTH 24 0
BBX 24 24 0 -2
BITMAP
000000
070000
060180
060080
0600C0
0640C0
7FE0C0
060C40
060E60
0E0C60
0F0C60
1E8C20
16D830
365830
261830
663018
463018
46301C
06600C
06600E
06C006
068004
060000
000000
ENDCHAR

STARTCHAR cns2_2258
ENCODING 8792
SWIDTH 960 0
DWIDTH 24 0
BBX 24 24 0 -2
BITMAP
000000
070000
060030
0FFFF8
0C0000
180040
33FFE0
400000
000020
1FFFF0
000070
01CE60
018C60
018C60
018C30
018C32
030C32
030C32
030C1A
060C1A
060C0E
0C0C0E
300C04
000000
ENDCHAR

STARTCHAR cns2_2259
ENCODING 8793
SWIDTH 960 0
DWIDTH 24 0
BBX 24 24 0 -2
BITMAP
000000
007000
003000
001800
001C00
003600
006300
00C180
0180C0
030070
0C003E
301C0C
001800
001800
009C18
3FDA38
00DA60
019980
019980
0318C0
061870
18F83E
60300C
000000
ENDCHAR

STARTCHAR cns2_225A
ENCODING 8794
SWIDTH 960 0
DWIDTH 24 0
BBX 24 24 0 -2
BITMAP
000000
180300
0E0180
060180
00008C
007FFE
611800
311800
311800
031800
021800
061800
061800
0C1800
0C1800
1C1800
781800
381800
181800
181800
0C1FFE
0C0FFC
0C0000
000000
ENDCHAR

STARTCHAR cns2_225B
ENCODING 8795
SWIDTH 960 0
DWIDTH 24 0
BBX 24 24 0 -2
BITMAP
000000
180000
0E2008
063FFC
00301C
003018
613018
313018
313018
033018
023FF8
063018
063000
0C3000
0C3000
1C3000
783004
383004
183004
183006
0C3FFE
0C1FFC
0C0000
000000
ENDCHAR

STARTCHAR cns2_225C
ENCODING 8796
SWIDTH 960 0
DWIDTH 24 0
BBX 24 24 0 -2
BITMAP
000000
300700
180600
180600
0A0600
020600
02060C
65FFFE
340600
340600
0C0D00
080D00
180D00
180D80
181880
7818C0
301840
303060
303030
306038
18601E
18800E
190004
000000
ENDCHAR

STARTCHAR cns2_225D
ENCODING 8797
SWIDTH 960 0
DWIDTH 24 0
BBX 24 24 0 -2
BITMAP
000000
300000
180010
187FF8
0A1038
021430
021630
641330
341960
340860
0C0860
080CC0
1804C0
1806C0
180380
780380
300380
300680
300CC0
301860
183038
18C01E
1B000C
000000
ENDCHAR

STARTCHAR cns2_225E
ENCODING 8798
SWIDTH 960 0
DWIDTH 24 0
BBX 24 24 0 -2
BITMAP
000000
203800
183000
0C300C
0C7FFE
006000
624000
32C010
349FF8
050030
040060
0C00C0
180180
180300
180600
700C00
301804
301804
183004
183006
181FFE
180FFC
180000
000000
ENDCHAR

STARTCHAR cns2_225F
ENCODING 8799
SWIDTH 960 0
DWIDTH 24 0
BBX 24 24 0 -2
BITMAP
000000
180C00
0E0E00
060C00
001804
001FFE
61300E
31300C
31200C
03400C
02000C
06000C
061C0C
0C070C
0C038C
1C00CC
78000C
38000C
180018
180018
0C0038
0C03F0
0C0060
000000
ENDCHAR

STARTCHAR cns2_2260
ENCODING 8800
SWIDTH 960 0
DWIDTH 24 0
BBX 24 24 0 -2
BITMAP
000000
18380E
0E300C
0631CC
00318C
00318C
61318C
31318C
31318C
03318C
02318C
06318C
06318C
0C318C
0C318C
1C318C
78618C
38618C
18618C
18418C
0CC00C
0C800C
0D000C
000000
ENDCHAR

STARTCHAR cns2_2261
ENCODING 8801
SWIDTH 960 0
DWIDTH 24 0
BBX 24 24 0 -2
BITMAP
000000
070000
060004
060FFE
06218E
06618C
26418C
26C18C
36818C
37018C
16018C
16030C
06030C
06030C
06030C
06030C
0D8618
0CC618
0CE618
186C18
181830
3061F0
400060
000000
ENDCHAR

STARTCHAR cns2_2262
ENCODING 8802
SWIDTH 960 0
DWIDTH 24 0
BBX 24 24 0 -2
BITMAP
000000
0701C0
060180
060180
360180
360180
360184
7FDFFE
66018E
46018C
06018C
06C30C
07030C
0E030C
1E060C
76060C
66060C
060C0C
060C18
061818
061838
0631F0
06C060
000000
ENDCHAR

STARTCHAR cns2_2263
ENCODING 8803
SWIDTH 960 0
DWIDTH 24 0
BBX 24 24 0 -2
BITMAP
000000
010000
418018
333FFC
1A0180
0E0180
0C0180
1E0180
360180
420180
03018C
077FFE
070180
0B0180
1B0180
330180
430180
030180
030180
030180
060180
7E0180
1C0180
000000
ENDCHAR

STARTCHAR cns2_2264
ENCODING 8804
SWIDTH 960 0
DWIDTH 24 0
BBX 24 24 0 -2
BITMAP
000000
030700
230600
160600
1E0C0C
0C1FFE
1C1800
363000
462010
064FF8
0E8030
0F0060
1B00C0
330180
230300
430600
030600
030C04
030C04
061806
0C1FFE
7C0FFC
180000
000000
ENDCHAR

STARTCHAR cns2_2265
ENCODING 8805
SWIDTH 960 0
DWIDTH 24 0
BBX 24 24 0 -2
BITMAP
000000
00000C
019FFE
7FC0C0
0C00C0
0C00C0
0C00C0
0C00C0
0C00C0
0D00C0
7F80C0
0C00C0
0C00C0
0C00C0
0C00C0
0C00C0
0C00C0
0CC0C0
0F00C0
7C00C0
7000C0
000FC0
000380
000000
ENDCHAR

STARTCHAR cns2_2266
ENCODING 8806
SWIDTH 960 0
DWIDTH 24 0
BBX 24 24 0 -2
BITMAP
000000
006000
00F000
038000
0E0008
3FFFFC
58181C
181818
181818
181818
1FFFF8
181818
181818
181818
181818
1FFFF8
181818
181818
181818
101818
301818
2019F8
400070
000000
ENDCHAR

STARTCHAR cns2_2267
ENCODING 8807
SWIDTH 960 0
DWIDTH 24 0
BBX 24 24 0 -2
BITMAP
000000
030700
030600
060600
242600
3FF600
307600
306600
306600
306600
306600
3FE600
306600
306600
306604
306604
306604
306604
3FE606
306606
3007FE
0003FC
000000
000000
ENDCHAR

STARTCHAR cns2_2268
ENCODING 8808
SWIDTH 960 0
DWIDTH 24 0
BBX 24 24 0 -2
BITMAP
000000
003000
101C04
1FFFFE
30C30C
60C318
60C300
0303FC
0601F8
380000
000040
0FFFE0
0000C0
000180
000600
001800
007000
01C000
038008
070008
0E000C
0FFFFC
07FFF8
000000
ENDCHAR

STARTCHAR cns2_2269
ENCODING 8809
SWIDTH 960 0
DWIDTH 24 0
BBX 24 24 0 -2
BITMAP
000000
200004
3FFFFE
30000E
30810C
30E1CC
30E1CC
30C18C
30C18C
36DD8C
31C78C
31C38C
30E1CC
31B36C
31A34C
33060C
3C180C
30000C
30000C
30000C
30000C
3000FC
300038
000000
ENDCHAR

STARTCHAR cns2_226A
ENCODING 8810
SWIDTH 960 0
DWIDTH 24 0
BBX 24 24 0 -2
BITMAP
000000
0700E0
0600C0
0600C0
0600C0
666CCE
666CCC
666CCC
666CCC
666CCC
666CCC
666CCC
666CCC
666CCC
7FEFFC
666CCC
0600C0
0600C0
0C00C0
0C00C0
1800C0
3000C0
4000C0
000000
ENDCHAR

STARTCHAR cns2_226B
ENCODING 8811
SWIDTH 960 0
DWIDTH 24 0
BBX 24 24 0 -2
BITMAP
000000
070070
060060
064064
7FE7FE
060060
060060
060060
000000
00000C
7FFFFE
000C00
000C00
000C00
000C00
000C00
000C00
000C00
000C00
000C00
000C00
01FC00
003800
000000
ENDCHAR

STARTCHAR cns2_226C
ENCODING 8812
SWIDTH 960 0
DWIDTH 24 0
BBX 24 24 0 -2
BITMAP
000000
070070
060060
064064
7FE7FE
060060
060060
060060
000000
000010
1FFFF8
006038
006030
006030
00C030
00C030
018030
018030
030030
060060
0C00E0
301FC0
000780
000000
ENDCHAR

STARTCHAR cns2_226D
ENCODING 8813
SWIDTH 960 0
DWIDTH 24 0
BBX 24 24 0 -2
BITMAP
000000
070070
060060
064064
7FE7FE
060060
060060
063860
003000
003000
003040
0FFFE0
0030E0
0030C0
0030C0
0060C0
0060C0
00C0C4
00C0C4
0180C4
0300C6
0600FE
38007C
000000
ENDCHAR

STARTCHAR cns2_226E
ENCODING 8814
SWIDTH 960 0
DWIDTH 24 0
BBX 24 24 0 -2
BITMAP
000000
0700E0
0600CC
7FEFFE
0600C0
0600C0
000000
1FFF80
018380
018300
018300
018300
0183FE
01860E
01860C
03000C
03000C
06000C
06000C
0C0018
0C0030
1803F0
2000E0
000000
ENDCHAR

STARTCHAR cns2_226F
ENCODING 8815
SWIDTH 960 0
DWIDTH 24 0
BBX 24 24 0 -2
BITMAP
000000
003800
003060
003FF0
003000
103004
1FFFFE
18000C
18380C
183008
1830C0
183FE0
1BF000
183000
183000
183FFC
181FF8
100000
100000
300000
200000
200000
400000
000000
ENDCHAR

STARTCHAR cns2_2270
ENCODING 8816
SWIDTH 960 0
DWIDTH 24 0
BBX 24 24 0 -2
BITMAP
000000
000000
00000C
7FFFFE
00C300
00C300
00C300
10C308
1FFFFC
18C31C
18C318
18C318
18C318
18C318
18FF18
18C318
18C318
180018
180018
180018
180018
180018
000000
000000
ENDCHAR

STARTCHAR cns2_2271
ENCODING 8817
SWIDTH 960 0
DWIDTH 24 0
BBX 24 24 0 -2
BITMAP
000000
020000
030104
0181FE
01818E
00998C
7FFD88
0C0198
0C0190
0C01A0
0C0190
0C0198
0C018C
0C018C
0C0186
0C0186
0C0186
0C0186
0C01BC
0C0198
0FF980
07F180
000180
000000
ENDCHAR

STARTCHAR cns2_2272
ENCODING 8818
SWIDTH 960 0
DWIDTH 24 0
BBX 24 24 0 -2
BITMAP
000000
000000
002204
3FF3FE
03030E
03030C
030308
030318
030310
030320
031310
7FFB18
03030C
03030C
030306
030306
030306
030306
03037C
030318
030300
030300
030300
000000
ENDCHAR

STARTCHAR cns2_2273
ENCODING 8819
SWIDTH 960 0
DWIDTH 24 0
BBX 24 24 0 -2
BITMAP
000000
000204
0063FE
3FF30C
03030C
030318
030318
030330
030360
033330
7FFB18
03030C
03030C
030306
030306
030306
030306
03037E
03031C
030300
030300
1F0300
060300
000000
ENDCHAR

STARTCHAR cns2_2274
ENCODING 8820
SWIDTH 960 0
DWIDTH 24 0
BBX 24 24 0 -2
BITMAP
000000
000000
000104
0031FE
3FF98E
03018C
030188
030198
030190
0301A0
030190
030198
03018C
03018C
030186
030186
031986
03E186
7F01BC
3C0198
100180
000180
000180
000000
ENDCHAR

STARTCHAR cns2_2275
ENCODING 8821
SWIDTH 960 0
DWIDTH 24 0
BBX 24 24 0 -2
BITMAP
000000
001204
3FFBFE
003B0C
00330C
003318
003318
003330
203360
3FF330
303318
30030C
30030C
300306
300306
300306
300306
30137E
30131C
301B00
3FFB00
1FF300
000300
000000
ENDCHAR

STARTCHAR cns2_2276
ENCODING 8822
SWIDTH 960 0
DWIDTH 24 0
BBX 24 24 0 -2
BITMAP
000000
208000
3FC000
31800C
31BFFE
330C60
320C60
320C60
340C60
320C60
330C60
318C60
318C60
318C60
318C60
3F0C60
361860
301864
303064
303066
306066
30407E
30803C
000000
ENDCHAR

STARTCHAR cns2_2277
ENCODING 8823
SWIDTH 960 0
DWIDTH 24 0
BBX 24 24 0 -2
BITMAP
000000
2081C0
3FC180
319D80
319980
331984
32199E
3219EE
341F8C
32798C
331988
319998
319998
319990
319980
3F1980
361980
301804
301804
301806
301FFE
300FFC
300000
000000
ENDCHAR

STARTCHAR cns2_2278
ENCODING 8824
SWIDTH 960 0
DWIDTH 24 0
BBX 24 24 0 -2
BITMAP
000000
208000
3FC020
31BFF0
318C70
330C60
320C60
320C60
340C60
320C60
330C60
31BFE0
318C60
318C60
318C60
3F0C60
360C64
300C64
300C64
300C66
300C66
300C7E
30003C
000000
ENDCHAR

STARTCHAR cns2_2279
ENCODING 8825
SWIDTH 960 0
DWIDTH 24 0
BBX 24 24 0 -2
BITMAP
000000
411800
7F9800
63B000
63300C
663FFE
644000
6C8000
690010
703FFC
680078
6C0060
6600C0
630180
630300
618600
618C00
639804
7F3004
666004
606006
607FFE
603FFC
000000
ENDCHAR

STARTCHAR cns2_227A
ENCODING 8826
SWIDTH 960 0
DWIDTH 24 0
BBX 24 24 0 -2
BITMAP
000000
070000
06061C
060318
0C0198
0C0018
0C0018
180C30
180C30
180C30
3C0C60
2C4C68
4C4CC4
0CCCC6
0CCD86
0D8D06
0D8F00
0C0E08
0C0C08
0C0C08
0C1C0C
0C6FFC
0D87F8
000000
ENDCHAR

STARTCHAR cns2_227B
ENCODING 8827
SWIDTH 960 0
DWIDTH 24 0
BBX 24 24 0 -2
BITMAP
000000
070008
067FFC
060300
0C0300
0C430C
0C230C
183318
183318
181B30
3C1320
3C0300
6C030C
4CFFFE
0C0300
0C0300
0C0300
0C0300
0C0300
0C0300
0C0300
0C0300
0C0300
000000
ENDCHAR

STARTCHAR cns2_227C
ENCODING 8828
SWIDTH 960 0
DWIDTH 24 0
BBX 24 24 0 -2
BITMAP
000000
038000
03000C
033FFE
061800
061800
0C1800
0C1800
0C1808
1C1FFC
16181C
361818
261818
461818
061818
061FF8
061818
061800
061800
061800
06180C
067FFE
060000
000000
ENDCHAR

STARTCHAR cns2_227D
ENCODING 8829
SWIDTH 960 0
DWIDTH 24 0
BBX 24 24 0 -2
BITMAP
000000
070380
060300
060300
0C0318
0C7FFC
180300
180300
180300
3C0300
2C030C
6CFFFE
4C0700
0C0600
0C0600
0C0C20
0C0810
0C1818
0C100C
0C20FC
0DFF0E
0CF006
0C0006
000000
ENDCHAR

STARTCHAR cns2_227E
ENCODING 8830
SWIDTH 960 0
DWIDTH 24 0
BBX 24 24 0 -2
BITMAP
000000
060380
070300
060300
060300
0C030C
0CFFFE
0C0300
180780
180780
380F40
2C0B60
4C1B30
4C3318
0C630C
0CC30E
0F0324
0C3FF0
0C0300
0C0300
0C0300
0C0300
0C0300
000000
ENDCHAR

STARTCHAR cns2_2321
ENCODING 8993
SWIDTH 960 0
DWIDTH 24 0
BBX 24 24 0 -2
BITMAP
000000
070030
067FF8
061800
0C1800
0C1820
0C1FF0
181870
181860
181860
3C1C60
2C1A60
4C1A60
0C3360
0C3360
0C3160
0C3060
0C3060
0C3064
0C3364
0C7C66
0CF07E
0CC03C
000000
ENDCHAR

STARTCHAR cns2_2322
ENCODING 8994
SWIDTH 960 0
DWIDTH 24 0
BBX 24 24 0 -2
BITMAP
000000
070000
06000C
06FFFE
0C01C0
0C0180
0C0300
180300
180600
180E40
3C0F20
2C1B30
4C3318
0C630C
0CC30E
0F0306
0C0306
0C0300
0C0300
0C0300
0C0318
0CFFFC
0C0000
000000
ENDCHAR

STARTCHAR cns2_2323
ENCODING 8995
SWIDTH 960 0
DWIDTH 24 0
BBX 24 24 0 -2
BITMAP
000000
038380
030300
030300
060330
0603F8
0C0300
0C0300
0C0300
1C030C
16FFFE
360300
260300
4603C0
060370
060338
06031C
06030C
060300
060300
060300
060300
060300
000000
ENDCHAR

STARTCHAR cns2_2324
ENCODING 8996
SWIDTH 960 0
DWIDTH 24 0
BBX 24 24 0 -2
BITMAP
000000
070380
060300
060300
0C0300
0C4308
0C7FFC
18631C
186318
186318
3C6318
2C6318
4C6318
0DFFFE
0C0700
0C0680
0C0C80
0C0C40
0C1860
0C1830
0C3038
0C601E
0D800C
000000
ENDCHAR

STARTCHAR cns2_2325
ENCODING 8997
SWIDTH 960 0
DWIDTH 24 0
BBX 24 24 0 -2
BITMAP
000000
071C00
061800
061810
063FF8
0C3038
0C7030
18D060
1B0860
1806C0
3C0380
2C0EE0
6C383E
4DC00C
0C0600
0C0380
0C00E0
0C0060
0C1800
0C0700
0C03C0
0C00E0
0C0060
000000
ENDCHAR

STARTCHAR cns2_2326
ENCODING 8998
SWIDTH 960 0
DWIDTH 24 0
BBX 24 24 0 -2
BITMAP
000000
038300
030380
030300
060600
060610
0C0C08
0C080C
0E1076
1EFF86
163806
360000
260000
462008
063FFC
06301C
063018
063018
063018
063018
063018
063FF8
063018
000000
ENDCHAR

STARTCHAR cns2_2327
ENCODING 8999
SWIDTH 960 0
DWIDTH 24 0
BBX 24 24 0 -2
BITMAP
000000
003800
007800
006400
00C300
018180
0300E0
06013E
0DFF8C
180000
600000
000000
000018
3FFFFC
001800
001800
0398C0
031860
061830
0C1838
301818
00F800
003000
000000
ENDCHAR

STARTCHAR cns2_2328
ENCODING 9000
SWIDTH 960 0
DWIDTH 24 0
BBX 24 24 0 -2
BITMAP
000000
038300
030180
030180
06008C
067FFE
0C0180
0C0300
0E0200
1E0600
166430
361838
260C70
460660
0606C0
060180
060310
060618
06080C
06107C
067F86
063C06
060004
000000
ENDCHAR

STARTCHAR cns2_2329
ENCODING 9001
SWIDTH 960 0
DWIDTH 24 0
BBX 24 24 0 -2
BITMAP
000000
038000
033BB8
033330
063330
063330
0C3330
0C3334
0EFFFE
1E3330
163330
363330
263330
463330
063330
0633F0
063330
063000
063000
063000
06300C
063FFE
063000
000000
ENDCHAR

STARTCHAR cns2_232A
ENCODING 9002
SWIDTH 960 0
DWIDTH 24 0
BBX 24 24 0 -2
BITMAP
000000
030000
038000
032008
063FFC
06301C
0C3018
0C3018
0E3018
1E3018
163018
363018
263018
463FF8
063018
060000
060C40
060E20
060C30
061818
06300C
06600E
068006
000000
ENDCHAR

STARTCHAR cns2_232B
ENCODING 9003
SWIDTH 960 0
DWIDTH 24 0
BBX 24 24 0 -2
BITMAP
000000
060200
070600
060F00
0C1D80
0C18C0
0C3060
186030
18C01C
19800F
3F0386
2C0300
4C0300
0C731C
0C6318
0C6318
0C6318
0C6318
0C6318
0C6318
0C7FF8
0C6018
0C6018
000000
ENDCHAR

STARTCHAR cns2_232C
ENCODING 9004
SWIDTH 960 0
DWIDTH 24 0
BBX 24 24 0 -2
BITMAP
000000
200004
3FFFFE
30C60E
30C60C
30C60C
30C60C
31860C
31860C
3307FC
3403EC
30000C
30810C
30FF8C
30C38C
30C30C
30C30C
30C30C
30FF0C
30C30C
30000C
3001FC
300038
000000
ENDCHAR

STARTCHAR cns2_232D
ENCODING 9005
SWIDTH 960 0
DWIDTH 24 0
BBX 24 24 0 -2
BITMAP
000000
000E00
400C80
300C60
180C30
180C30
020C0C
02FFFE
060C00
040C00
040C1C
041C18
081A18
081A30
183A30
783330
303160
3061E0
3060C0
18C1C0
198360
1B0C3E
1E700C
000000
ENDCHAR

STARTCHAR cns2_232E
ENCODING 9006
SWIDTH 960 0
DWIDTH 24 0
BBX 24 24 0 -2
BITMAP
000000
07700E
06600C
06640C
3FFE0C
066EEC
066CCC
066CCC
3FFCCC
366CCC
3660CC
6660CC
6662CC
7FFECC
6666CC
0666CC
0666CC
0C660C
0C7E0C
186C0C
18600C
3060FC
406038
000000
ENDCHAR

STARTCHAR cns2_232F
ENCODING 9007
SWIDTH 960 0
DWIDTH 24 0
BBX 24 24 0 -2
BITMAP
000000
00000E
10200C
1FF00C
1871CC
18618C
18618C
18618C
18618C
1FE18C
18618C
18618C
18618C
18618C
18618C
1FE18C
18618C
18600C
18600C
18780C
19E00C
7F007C
380018
000000
ENDCHAR

STARTCHAR cns2_2330
ENCODING 9008
SWIDTH 960 0
DWIDTH 24 0
BBX 24 24 0 -2
BITMAP
000000
200406
3FFE06
300E06
300CE6
300CC6
300CC6
3FFCC6
30CCC6
30C0C6
30C0C6
30CCC6
3FFEC6
30C0C6
30C0C6
3060C6
3060C6
3060C6
3032C6
313206
361A06
3C0E3E
18040C
000000
ENDCHAR

STARTCHAR cns2_2331
ENCODING 9009
SWIDTH 960 0
DWIDTH 24 0
BBX 24 24 0 -2
BITMAP
000000
0021C0
7FF180
0C7180
0C6184
0C6FFE
18618E
18618C
30618C
20618C
47C18C
01818C
20418C
3FE18C
30E30C
30C30C
30C60C
30C60C
30CC0C
30CC18
3FD818
3031F0
30C060
000000
ENDCHAR

STARTCHAR cns2_2332
ENCODING 9010
SWIDTH 960 0
DWIDTH 24 0
BBX 24 24 0 -2
BITMAP
000000
0381C0
1B0180
1B0180
1B2180
3FF184
3307FE
23018E
23018C
43018C
43018C
03098C
7FFD8C
03018C
02818C
06818C
06C18C
04618C
04618C
0C330C
18330C
301EFC
601C38
000000
ENDCHAR

STARTCHAR cns2_2333
ENCODING 9011
SWIDTH 960 0
DWIDTH 24 0
BBX 24 24 0 -2
BITMAP
000000
038000
030000
060004
07FFFE
0C000E
0C000C
1C030C
1BFF8C
30300C
62310C
03330C
01B60C
00B80C
0030CC
1FFFEC
00300C
00300C
00300C
00300C
00300C
0033FC
003070
000000
ENDCHAR

STARTCHAR cns2_2334
ENCODING 9012
SWIDTH 960 0
DWIDTH 24 0
BBX 24 24 0 -2
BITMAP
000000
003800
003000
0030C0
003FE0
003000
003000
103008
1FFFFC
18001C
180018
180118
1FFF98
180398
180318
180318
1FFF18
180318
180018
180018
1FFFF8
180018
180018
000000
ENDCHAR

STARTCHAR cns2_2335
ENCODING 9013
SWIDTH 960 0
DWIDTH 24 0
BBX 24 24 0 -2
BITMAP
000000
002204
7FF3FE
0C730E
0C630C
0C630C
18630C
18630C
30630C
20E30C
47C30C
01830C
00030C
20430C
3FE30C
30E30C
30C37C
30C318
30C300
30C300
30C300
3FC300
30C300
000000
ENDCHAR

STARTCHAR cns2_2336
ENCODING 9014
SWIDTH 960 0
DWIDTH 24 0
BBX 24 24 0 -2
BITMAP
000000
10000C
1FFFFE
180000
180040
1907E0
19FE00
198600
198600
198600
198618
19FFFC
198300
198300
198300
118180
118580
3198C4
21E0C4
20C064
400336
43FF9E
00000C
000000
ENDCHAR

STARTCHAR cns2_2337
ENCODING 9015
SWIDTH 960 0
DWIDTH 24 0
BBX 24 24 0 -2
BITMAP
000000
10000C
1FFFFE
180000
187000
186000
186000
18C018
18FFFC
18CC00
198C00
1B0C00
1C0C30
180FF8
180C00
180C00
180C00
180C30
180FF8
180C00
300C00
300C00
400C00
000000
ENDCHAR

STARTCHAR cns2_2338
ENCODING 9016
SWIDTH 960 0
DWIDTH 24 0
BBX 24 24 0 -2
BITMAP
000000
000380
000300
210300
3F830C
33BFFE
330300
330300
330300
330600
330670
330660
330660
330C60
330CC0
330CC0
330880
3F1990
33110C
30310C
002236
004FC6
000706
000000
ENDCHAR

STARTCHAR cns2_2339
ENCODING 9017
SWIDTH 960 0
DWIDTH 24 0
BBX 24 24 0 -2
BITMAP
000000
000380
000300
410300
7F8308
63BFFC
63031C
630318
630318
630318
630318
630318
637FFE
630300
630380
630680
630640
7F0C60
630C20
601830
003018
00600E
018004
000000
ENDCHAR

STARTCHAR cns2_233A
ENCODING 9018
SWIDTH 960 0
DWIDTH 24 0
BBX 24 24 0 -2
BITMAP
000000
000DC0
440D80
7F0D80
671980
661980
663180
663180
666188
66E1FC
66B180
673180
663180
663180
663180
663180
663180
663184
7E3184
663184
603186
0031FE
0030FC
000000
ENDCHAR

STARTCHAR cns2_233B
ENCODING 9019
SWIDTH 960 0
DWIDTH 24 0
BBX 24 24 0 -2
BITMAP
000000
000380
000300
210300
3F8300
338300
33030C
337FFE
330300
330300
330680
330680
330680
330640
330C40
330C60
331A20
3F1B30
333198
30318C
006006
00C006
010002
000000
ENDCHAR

STARTCHAR cns2_233C
ENCODING 9020
SWIDTH 960 0
DWIDTH 24 0
BBX 24 24 0 -2
BITMAP
000000
000300
000180
210180
3F808C
33BFFE
330818
330818
330818
330818
330418
330430
330630
330220
330260
330340
3301C0
3F0180
3303C0
300660
000C38
00301E
01C004
000000
ENDCHAR

STARTCHAR cns2_233D
ENCODING 9021
SWIDTH 960 0
DWIDTH 24 0
BBX 24 24 0 -2
BITMAP
000000
000380
420300
7F0300
670300
660318
66231C
662318
662330
666360
6667C0
66C680
66C680
660680
660640
660C40
660C60
660C60
661830
7E1830
663018
60601C
008008
000000
ENDCHAR

STARTCHAR cns2_233E
ENCODING 9022
SWIDTH 960 0
DWIDTH 24 0
BBX 24 24 0 -2
BITMAP
000000
000010
003FF8
410638
7F8630
638630
630630
630630
630630
630630
630634
633FFE
630630
630630
630630
630630
630630
7F0C30
630C30
600C30
000C34
00FFFE
000000
000000
ENDCHAR

STARTCHAR cns2_233F
ENCODING 9023
SWIDTH 960 0
DWIDTH 24 0
BBX 24 24 0 -2
BITMAP
000000
00000C
003FFE
2080E0
3FC0C0
31C1C0
318180
318180
318380
3183E0
3187B0
318598
318D8C
31898E
319986
319186
31A180
3F8180
318180
300180
000180
000180
000180
000000
ENDCHAR

STARTCHAR cns2_2340
ENCODING 9024
SWIDTH 960 0
DWIDTH 24 0
BBX 24 24 0 -2
BITMAP
000000
000700
000600
210600
3F8C08
338FFC
3318C0
3330C0
3340C0
3300C0
3300C0
3300C0
3300CC
333FFE
3300C0
3300C0
3300C0
3F00C0
3300C0
3000C0
0000C0
0000C0
0000C0
000000
ENDCHAR

STARTCHAR cns2_2341
ENCODING 9025
SWIDTH 960 0
DWIDTH 24 0
BBX 24 24 0 -2
BITMAP
000000
0001C0
210180
3F9D80
339980
331988
333FFC
333180
332180
336180
334180
330180
330180
33018C
337FFE
330180
330180
3F0180
330180
300180
000180
000180
000180
000000
ENDCHAR

STARTCHAR cns2_2342
ENCODING 9026
SWIDTH 960 0
DWIDTH 24 0
BBX 24 24 0 -2
BITMAP
000000
0001B8
0007B0
421C30
7FFC30
670C30
660C30
660C30
660C30
660C30
660C34
667FFE
660C30
660C30
660C30
660C30
661830
661830
7E1830
663030
606030
60C030
030030
000000
ENDCHAR

STARTCHAR cns2_2343
ENCODING 9027
SWIDTH 960 0
DWIDTH 24 0
BBX 24 24 0 -2
BITMAP
000000
000700
000600
410C00
7F8804
639FFE
63100E
63200C
63400C
63008C
630FCC
63000C
63000C
63000C
63000C
63008C
631FCC
63000C
7F000C
63001C
600038
6007F0
0001E0
000000
ENDCHAR

STARTCHAR cns2_2344
ENCODING 9028
SWIDTH 960 0
DWIDTH 24 0
BBX 24 24 0 -2
BITMAP
000000
0001C0
000180
210180
3F818C
33BFFE
330180
330180
330180
33398E
33318C
33318C
33318C
33318C
33318C
333FFC
33318C
3F0180
330184
300184
000186
0001FE
0000FC
000000
ENDCHAR

STARTCHAR cns2_2345
ENCODING 9029
SWIDTH 960 0
DWIDTH 24 0
BBX 24 24 0 -2
BITMAP
000000
000380
000300
420600
7F0700
670CC0
661860
661830
663018
66600E
66CEE4
670CC0
660CC0
660CC0
660CC0
660CC0
660CC0
660CC0
7E0CC0
660CC0
6018C0
6030C0
00E0C0
000000
ENDCHAR

STARTCHAR cns2_2346
ENCODING 9030
SWIDTH 960 0
DWIDTH 24 0
BBX 24 24 0 -2
BITMAP
000000
001C00
001810
009838
3F9C30
019C60
019AC0
031B00
031900
061980
0618C0
0C1870
18F838
30300E
440024
07FFF0
060070
060060
060060
060060
060060
07FFE0
040020
000000
ENDCHAR

STARTCHAR cns2_2347
ENCODING 9031
SWIDTH 960 0
DWIDTH 24 0
BBX 24 24 0 -2
BITMAP
000000
200004
3FFFFE
30000E
30EE0C
30CC0C
30CC0C
318C0C
318C0C
338CCC
338FEC
378C0C
358C0C
398C0C
318C4C
318C4C
318C6C
318FEC
3187CC
30000C
30000C
3FFFFC
30000C
000000
ENDCHAR

STARTCHAR cns2_2348
ENCODING 9032
SWIDTH 960 0
DWIDTH 24 0
BBX 24 24 0 -2
BITMAP
000000
200004
3FFFFE
30630E
30630C
30630C
30C30C
30C30C
3183FC
3601EC
3C000C
30000C
31008C
31FFCC
3181CC
31818C
31818C
31818C
31818C
31818C
3FFFFC
30000C
30000C
000000
ENDCHAR

STARTCHAR cns2_2349
ENCODING 9033
SWIDTH 960 0
DWIDTH 24 0
BBX 24 24 0 -2
BITMAP
000000
200004
3FFFFE
30000E
30300C
3018CC
37FFEC
30000C
30000C
30820C
30FF0C
30C60C
30C60C
30C60C
30C64C
30C64C
31864C
31866C
3307EC
3403CC
30000C
3FFFFC
30000C
000000
ENDCHAR

STARTCHAR cns2_234A
ENCODING 9034
SWIDTH 960 0
DWIDTH 24 0
BBX 24 24 0 -2
BITMAP
000000
0E0018
0C107C
0C1FC0
0C18C0
0C18C0
0C18C0
0D18C0
7F98C0
0C18D8
0C1FFC
0C18C0
0C18C0
0C18C0
0C18C0
0C18C0
0CD864
0F9864
0E1864
7818B4
301B3E
001E1E
000C0C
000000
ENDCHAR

STARTCHAR cns2_234B
ENCODING 9035
SWIDTH 960 0
DWIDTH 24 0
BBX 24 24 0 -2
BITMAP
000000
0E0380
0C0300
0C0680
0C0CC0
0C0C60
0C1838
0D301E
7FA04C
0C4FE0
0C0000
0C0000
0C0008
0C1FFC
0C0018
0C0018
0CC030
0F8030
0E0030
780060
300060
0000C0
0000C0
000000
ENDCHAR

STARTCHAR cns2_234C
ENCODING 9036
SWIDTH 960 0
DWIDTH 24 0
BBX 24 24 0 -2
BITMAP
000000
01C600
018300
030180
0600C0
0C0070
1BFFDE
6060CC
0060C0
00C0C0
00C0C0
0181C0
031F80
0C0700
001800
001860
0FFFF0
001800
001800
001800
00180C
7FFFFE
000000
000000
ENDCHAR

STARTCHAR cns2_234D
ENCODING 9037
SWIDTH 960 0
DWIDTH 24 0
BBX 24 24 0 -2
BITMAP
000000
0E0380
0C0300
0C0318
0C7FFC
0C0300
0C0300
0D731C
7FE318
0C6318
0C6318
0C6318
0C6318
0C6318
0C6318
0C7FF8
0DE318
0F6300
7C0304
700304
200306
0003FE
0001FC
000000
ENDCHAR

STARTCHAR cns2_234E
ENCODING 9038
SWIDTH 960 0
DWIDTH 24 0
BBX 24 24 0 -2
BITMAP
000000
0E00C0
0C0640
0C0660
0C0420
0C0C30
0C0C18
0D180C
7FB00E
0C4004
0C0008
0C1FFC
0C031C
0C0318
0C0318
0C0318
0CC618
0F8618
0E0C18
780C18
301830
0031F0
00C060
000000
ENDCHAR

STARTCHAR cns2_234F
ENCODING 9039
SWIDTH 960 0
DWIDTH 24 0
BBX 24 24 0 -2
BITMAP
000000
380700
300600
300600
30C618
3FE7FC
300600
300604
300604
30E606
3F07FE
1C03FC
001C00
001800
001800
001830
0FFFF8
001800
001800
001800
001800
00180C
7FFFFE
000000
ENDCHAR

STARTCHAR cns2_2350
ENCODING 9040
SWIDTH 960 0
DWIDTH 24 0
BBX 24 24 0 -2
BITMAP
000000
038000
0300C0
03FFE0
0701C0
06C300
0C3600
303F00
00E1C0
078070
781C1E
00180C
07FFE0
001800
001820
0FFFF0
001800
001818
3FFFFC
001800
001800
001800
001800
000000
ENDCHAR

STARTCHAR cns2_2351
ENCODING 9041
SWIDTH 960 0
DWIDTH 24 0
BBX 24 24 0 -2
BITMAP
000000
00000C
7FFFFE
000C00
001800
003000
007800
00DB00
0198C0
031830
0C181C
70180C
000000
001C00
00180C
7FFFFE
001800
003400
006300
00C1C0
038070
0E001E
70000C
000000
ENDCHAR

STARTCHAR cns2_2352
ENCODING 9042
SWIDTH 960 0
DWIDTH 24 0
BBX 24 24 0 -2
BITMAP
000000
0E00E0
0C00C0
0C80C8
0CC0DC
7FE0F0
18CFC0
18C0C0
18C0C0
30C0C0
30C0D8
319FFC
3180C0
7180C0
6D80C0
0700CC
033FFE
0780C0
06C0C0
0C60C0
1840C0
2000C0
4000C0
000000
ENDCHAR

STARTCHAR cns2_2353
ENCODING 9043
SWIDTH 960 0
DWIDTH 24 0
BBX 24 24 0 -2
BITMAP
000000
0E0000
0C0030
0C0FF8
0D0000
0D8000
7FE000
198000
19800C
19BFFE
318180
318180
318180
318300
630300
730300
6E0600
070610
0D8C08
0CCC0C
1898FE
303F86
401806
000000
ENDCHAR

STARTCHAR cns2_2354
ENCODING 9044
SWIDTH 960 0
DWIDTH 24 0
BBX 24 24 0 -2
BITMAP
000000
1C0380
180180
180180
1A2184
1B3FFE
7FB18E
33318C
33318C
3332CC
3332CC
3334CC
66346C
663C6C
66382C
76301C
6C300C
0E300C
1A300C
13300C
31300C
20307C
403018
000000
ENDCHAR

STARTCHAR cns2_2355
ENCODING 9045
SWIDTH 960 0
DWIDTH 24 0
BBX 24 24 0 -2
BITMAP
000000
0E0380
0C0300
0C0680
0D0CC0
0D8C60
7FD838
19B01E
19C06C
198FF0
318000
318000
330008
333FFC
630018
7A0018
660018
070030
0D8030
18C060
1040C0
200180
400600
000000
ENDCHAR

STARTCHAR cns2_2356
ENCODING 9046
SWIDTH 960 0
DWIDTH 24 0
BBX 24 24 0 -2
BITMAP
000000
0E01C0
0C0180
0C0340
0D0360
0D8630
7FEC18
19980C
19900E
19A634
198630
318630
318630
330630
630630
730630
6E0630
070630
0D8C30
0CCC30
18CC30
301830
406030
000000
ENDCHAR

STARTCHAR cns2_2357
ENCODING 9047
SWIDTH 960 0
DWIDTH 24 0
BBX 24 24 0 -2
BITMAP
000000
0E0180
0C0480
0C06C0
0C0440
0D0C60
0D8830
7FD818
19B01C
19E00E
199FF4
318330
318330
330330
630330
730630
0E0630
0E0630
0B0C30
198C60
311860
6033E0
40C0C0
000000
ENDCHAR

STARTCHAR cns2_2358
ENCODING 9048
SWIDTH 960 0
DWIDTH 24 0
BBX 24 24 0 -2
BITMAP
000000
0E0020
0C0620
0C0720
0D0630
0D8C10
7FEC10
198C18
19980C
19980C
19B18E
31A184
318380
330300
630300
7B0610
660608
070C0C
0D8C0C
0D907E
197FC6
303806
400000
000000
ENDCHAR

STARTCHAR cns2_2359
ENCODING 9049
SWIDTH 960 0
DWIDTH 24 0
BBX 24 24 0 -2
BITMAP
000000
0E0600
0C0300
0C0300
0D010C
0DBFFE
7FC830
198830
198830
198830
198830
198460
318460
330460
3306C0
3302C0
3B03C0
360180
0703C0
0D8660
18CC38
30981E
40600C
000000
ENDCHAR

STARTCHAR cns2_235A
ENCODING 9050
SWIDTH 960 0
DWIDTH 24 0
BBX 24 24 0 -2
BITMAP
000000
0E0000
0C0030
0C0FF8
0D0000
0D8000
7FE000
198000
19800C
19BFFE
318660
318660
318660
318660
630660
730660
6E0C60
070C64
0D8C64
0CD864
18D866
30307E
40403C
000000
ENDCHAR

STARTCHAR cns2_235B
ENCODING 9051
SWIDTH 960 0
DWIDTH 24 0
BBX 24 24 0 -2
BITMAP
000000
0E0038
0C08FC
0C0FC0
0D0C00
0D8C00
7FEC0C
198FFE
198C60
198C60
318C60
318C60
318C60
318C60
630C60
730C60
6E0C60
070C60
0D9860
0CD860
18D860
303060
402060
000000
ENDCHAR

STARTCHAR cns2_235C
ENCODING 9052
SWIDTH 960 0
DWIDTH 24 0
BBX 24 24 0 -2
BITMAP
000000
003000
101C04
1FFFFE
300006
30000C
600388
000FC0
00FC00
0FB000
003000
003000
003030
3FFFF8
006800
00CC00
00C600
018600
018300
030380
0601C0
0C00F0
300060
000000
ENDCHAR

STARTCHAR cns2_235D
ENCODING 9053
SWIDTH 960 0
DWIDTH 24 0
BBX 24 24 0 -2
BITMAP
000000
003000
001C00
100C04
1FFFFE
30000E
60018C
6007D8
00FC00
0FB000
003000
003060
003FF0
1FF000
003000
003030
003FF8
3FF000
003004
003004
003006
003FFE
001FFC
000000
ENDCHAR

STARTCHAR cns2_235E
ENCODING 9054
SWIDTH 960 0
DWIDTH 24 0
BBX 24 24 0 -2
BITMAP
000000
070000
06601C
063818
061830
060460
7FFEC0
06018E
06060C
06C018
06C030
0CC060
0CC180
0CC60E
0CC01C
18C038
18C0E0
18CF04
30C004
30C004
60C006
40FFFE
007FFC
000000
ENDCHAR

STARTCHAR cns2_235F
ENCODING 9055
SWIDTH 960 0
DWIDTH 24 0
BBX 24 24 0 -2
BITMAP
000000
070000
060018
060FFC
0600C0
0660C0
7FF0C0
0600C0
0600D0
06C7F8
06C0C0
0CC0C0
0CC0C0
0CC0C0
18C0C0
18C0C0
18C0C8
10CFFC
30C000
20C004
60C006
40FFFE
007FFC
000000
ENDCHAR

STARTCHAR cns2_2360
ENCODING 9056
SWIDTH 960 0
DWIDTH 24 0
BBX 24 24 0 -2
BITMAP
000000
070000
060004
061FFE
060318
060318
767318
666318
666318
666318
667FFE
666318
666318
666318
666318
666318
666318
666318
7FE618
606618
600C18
000818
001018
000000
ENDCHAR

STARTCHAR cns2_2361
ENCODING 9057
SWIDTH 960 0
DWIDTH 24 0
BBX 24 24 0 -2
BITMAP
000000
0E0000
0C0008
0C1FFC
0C0000
6DC000
6D8000
6D8000
6D8004
6DBFFE
6D8660
6D8660
6D8660
6D8660
6D8C60
6D8C60
6D8C60
7F9864
619864
603066
006066
00C07E
01003C
000000
ENDCHAR

STARTCHAR cns2_2362
ENCODING 9058
SWIDTH 960 0
DWIDTH 24 0
BBX 24 24 0 -2
BITMAP
000000
0E0004
0C1FFE
0C0C60
0C0C60
0C0C60
6DD860
6D9860
6D9860
6DB064
6DBFFE
6D80E0
6D81E0
6D81E0
6D8360
6D8360
6D8660
6D8C60
7F9860
61B060
606060
0183E0
0000C0
000000
ENDCHAR

STARTCHAR cns2_2363
ENCODING 9059
SWIDTH 960 0
DWIDTH 24 0
BBX 24 24 0 -2
BITMAP
000000
000010
0E3FF8
0C0C38
0C0C30
0C0C30
6DCC30
6D8C60
6D8C64
6D8FFE
6D8D0E
6D8D0C
6D8D0C
6D8D98
6D9C98
6D98F0
6D9860
6D9860
7FB0F0
61B198
60630C
01860E
001804
000000
ENDCHAR

STARTCHAR cns2_2364
ENCODING 9060
SWIDTH 960 0
DWIDTH 24 0
BBX 24 24 0 -2
BITMAP
000000
0E0C00
0C0E00
0C0C00
0C1802
6D9FFE
6DB666
6DA666
6DC666
6D8666
6D8666
6D8666
6D8C66
6D8CC6
6D8CC6
6D98C6
6D9186
6DA186
7F830E
61860C
600C1C
0019F8
006070
000000
ENDCHAR

STARTCHAR cns2_2365
ENCODING 9061
SWIDTH 960 0
DWIDTH 24 0
BBX 24 24 0 -2
BITMAP
000000
0E0380
0C0300
0C0680
0C0CC0
0C0C60
6D9838
6DB01E
6DC04C
6D8FE0
6D8000
6D8000
6D8008
6D9FFC
6D8018
6D8018
6D8030
6D8030
7F8030
618060
600060
0000C0
0000C0
000000
ENDCHAR

STARTCHAR cns2_2366
ENCODING 9062
SWIDTH 960 0
DWIDTH 24 0
BBX 24 24 0 -2
BITMAP
000000
100020
1FFFF0
183070
183060
183060
183060
1FFFE0
180060
180000
180008
18000C
1FFFFC
0FFFF8
001C00
001800
001800
38180E
30180C
30180C
30180C
3FFFFC
30000C
000000
ENDCHAR

STARTCHAR cns2_2367
ENCODING 9063
SWIDTH 960 0
DWIDTH 24 0
BBX 24 24 0 -2
BITMAP
000000
0E0030
0C00FC
0C03E0
0C1D80
0C0180
0C0180
0C0180
0C0180
6D818C
6DFFFE
6D8180
6D8180
6D8380
6D8380
6D8640
6D8640
6D8C60
7F9820
619830
003018
00601C
01C00E
000000
ENDCHAR

STARTCHAR cns2_2368
ENCODING 9064
SWIDTH 960 0
DWIDTH 24 0
BBX 24 24 0 -2
BITMAP
000000
070018
0608FC
060FC0
060C00
36EC00
36CC00
36CC00
36CC0C
36CFFE
36CC60
36CC60
36CC60
36CC60
36CC60
36CC60
36D860
3FD860
30D860
301060
003060
002060
004060
000000
ENDCHAR

STARTCHAR cns2_2369
ENCODING 9065
SWIDTH 960 0
DWIDTH 24 0
BBX 24 24 0 -2
BITMAP
000000
001C00
1C181C
181818
181818
1FFFF8
003800
003800
007400
00E200
018300
030180
0600C0
0C0070
30C33E
40C30C
00C300
00C300
00C300
018300
018300
030300
040300
000000
ENDCHAR

STARTCHAR cns2_236A
ENCODING 9066
SWIDTH 960 0
DWIDTH 24 0
BBX 24 24 0 -2
BITMAP
000000
000018
3FFFFC
000000
030C30
030C30
061860
061860
0C30C0
186180
0C30C0
061860
030C30
030C30
000000
1FFFF8
001800
001800
001800
001800
00180C
7FFFFE
000000
000000
ENDCHAR

STARTCHAR cns2_236B
ENCODING 9067
SWIDTH 960 0
DWIDTH 24 0
BBX 24 24 0 -2
BITMAP
000000
0E0000
0C2004
0C3FFE
0C318E
4CB18C
7FB18C
6DB18C
6DB18C
6DB18C
6DB18C
6DBFFC
6DB00C
6DB000
6DB000
6DB000
6DB004
6DB004
6FB004
6D3006
0C3006
0C3FFE
0C1FFC
000000
ENDCHAR

STARTCHAR cns2_236C
ENCODING 9068
SWIDTH 960 0
DWIDTH 24 0
BBX 24 24 0 -2
BITMAP
000000
0700E0
0600C0
0604C0
4624C4
7FF7FE
667CC6
666CCC
666CD8
666180
666180
6661C0
6661C0
6661C0
6663C0
6663C0
67E3C4
66C2C4
0606C4
0604C4
060CC6
0618FE
06607C
000000
ENDCHAR

STARTCHAR cns2_236D
ENCODING 9069
SWIDTH 960 0
DWIDTH 24 0
BBX 24 24 0 -2
BITMAP
000000
001800
100E0C
1FFFFE
180000
180700
180618
1BFFFC
180600
180600
180610
19FFF8
180030
184060
186060
1020C0
101980
300F00
200E00
601B80
4030F0
40C03E
07000C
000000
ENDCHAR

STARTCHAR cns2_236E
ENCODING 9070
SWIDTH 960 0
DWIDTH 24 0
BBX 24 24 0 -2
BITMAP
000000
001800
100C0C
1FFFFE
180000
180E00
180C00
180C30
1BFFF8
180C00
180C00
19CC70
198C60
198C60
198C60
198C60
11FFE0
318C60
300C04
200C04
200C06
400FFE
4007FC
000000
ENDCHAR

STARTCHAR cns2_236F
ENCODING 9071
SWIDTH 960 0
DWIDTH 24 0
BBX 24 24 0 -2
BITMAP
000000
000C00
10060C
1FFFFE
180000
188030
18FFF8
18C180
18C180
18C180
198180
19818C
19FFFE
180180
180380
180780
300D80
301980
303180
20C180
670180
401F80
000700
000000
ENDCHAR

STARTCHAR cns2_2370
ENCODING 9072
SWIDTH 960 0
DWIDTH 24 0
BBX 24 24 0 -2
BITMAP
000000
001800
100C0C
1FFFFE
180000
181C00
181B00
183180
1860C0
18C060
1981B8
1B7FDE
1C000C
180020
19FFF0
180060
300060
3000C0
3000C0
200180
200180
400300
000C00
000000
ENDCHAR

STARTCHAR cns2_2371
ENCODING 9073
SWIDTH 960 0
DWIDTH 24 0
BBX 24 24 0 -2
BITMAP
000000
000E00
100C0C
1FFFFE
180000
180060
1907F0
19FE00
198000
198000
19800C
19FFFE
198300
198300
198300
198300
198300
198300
198300
190300
330300
320300
460300
000000
ENDCHAR

STARTCHAR cns2_2372
ENCODING 9074
SWIDTH 960 0
DWIDTH 24 0
BBX 24 24 0 -2
BITMAP
000000
000E00
030300
038180
0300C0
060060
0C0038
1BFFDE
6060CC
0060C0
00C0C0
0181C0
031F80
0C0700
01C1C0
018180
01818C
7FFFFE
018180
018180
030180
060180
180180
000000
ENDCHAR

STARTCHAR cns2_2373
ENCODING 9075
SWIDTH 960 0
DWIDTH 24 0
BBX 24 24 0 -2
BITMAP
000000
004804
3FEFFE
00ECCE
00CCCC
00CCCC
20CCCC
3FCCCC
30CCCC
300CCC
600FFC
604C0C
7FEC00
60EC00
00CC00
00CC00
00CC04
00CC04
00CC04
01CC06
038C06
3F0FFE
0E07FC
000000
ENDCHAR

STARTCHAR cns2_2374
ENCODING 9076
SWIDTH 960 0
DWIDTH 24 0
BBX 24 24 0 -2
BITMAP
000000
030040
030640
060740
0C0660
180C20
318C20
418C30
031818
03181C
06318E
0CC184
1E0380
360300
260300
460610
060608
060C0C
060C0C
06107E
067FC6
063806
060000
000000
ENDCHAR

STARTCHAR cns2_2375
ENCODING 9077
SWIDTH 960 0
DWIDTH 24 0
BBX 24 24 0 -2
BITMAP
000000
030010
033FF8
060C38
0C0C30
180C30
318C30
418C60
030C64
030FFE
060D0E
0C0D0C
1E0D0C
360D98
261C98
4618F0
061860
061860
0630F0
063198
06230C
06460E
061804
000000
ENDCHAR

STARTCHAR cns2_2376
ENCODING 9078
SWIDTH 960 0
DWIDTH 24 0
BBX 24 24 0 -2
BITMAP
000000
000740
000620
000630
000630
00060C
7FFFFE
000600
000600
008600
00C600
06C300
164300
161300
361980
360D84
360D84
6610C4
6610C4
661864
07F876
03F03E
00001C
000000
ENDCHAR

STARTCHAR cns2_2377
ENCODING 9079
SWIDTH 960 0
DWIDTH 24 0
BBX 24 24 0 -2
BITMAP
000000
000004
7FFFFE
001800
001800
001B00
0018C0
001870
001838
001818
001800
001800
000000
003000
000C40
038630
130618
13000C
33004E
330046
630066
63FFE0
01FFC0
000000
ENDCHAR

STARTCHAR cns2_2378
ENCODING 9080
SWIDTH 960 0
DWIDTH 24 0
BBX 24 24 0 -2
BITMAP
000000
003800
003000
003000
003040
003FE0
003000
003000
003000
003018
3FFFFC
000000
000000
003000
000C40
038630
130618
13000C
33004E
330046
630066
63FFE0
01FFC0
000000
ENDCHAR

STARTCHAR cns2_2379
ENCODING 9081
SWIDTH 960 0
DWIDTH 24 0
BBX 24 24 0 -2
BITMAP
000000
0E0600
0C0600
0C0300
0C0380
0C0180
0E010C
2D7FFE
2D8300
6C8300
6C0300
4C0340
4C0330
0C0318
0C031C
0C030C
0C0308
0C0300
0C0300
0C0300
0C0300
0C0300
0C0300
000000
ENDCHAR

STARTCHAR cns2_237A
ENCODING 9082
SWIDTH 960 0
DWIDTH 24 0
BBX 24 24 0 -2
BITMAP
000000
0E0000
0C0030
0C1FF8
0C0000
0C0000
0E0000
2D0000
2D800C
2D7FFE
6C06C0
4C06C0
4C06C0
0C06C0
0C0CC0
0C0CC0
0C0CC0
0C18C4
0C18C4
0C30C4
0C60C6
0D80FE
0E007C
000000
ENDCHAR

STARTCHAR cns2_237B
ENCODING 9083
SWIDTH 960 0
DWIDTH 24 0
BBX 24 24 0 -2
BITMAP
000000
0E01C0
0C0180
0C0180
0C018C
0C7FFE
0E0180
2D0180
2D8180
6C8188
6C3FFC
4C0818
4C0818
0C0430
0C0660
0C0260
0C03C0
0C0180
0C03C0
0C0660
0C1C38
0C301E
0DC00C
000000
ENDCHAR

STARTCHAR cns2_237C
ENCODING 9084
SWIDTH 960 0
DWIDTH 24 0
BBX 24 24 0 -2
BITMAP
000000
0E01C0
0C0180
0C0180
0C018C
0C3FFE
0C0180
0E0180
2D0180
2D9D9C
2CD998
6C9998
6C1998
4C1998
4C1998
0C1FF8
0C1998
0C0180
0C0184
0C0184
0C0186
0C01FE
0C00FC
000000
ENDCHAR

STARTCHAR cns2_237D
ENCODING 9085
SWIDTH 960 0
DWIDTH 24 0
BBX 24 24 0 -2
BITMAP
000000
0E01C0
0C0180
0C0180
0C0180
0C2184
0E3FFE
2D318E
2DB18C
2CB18C
6C318C
4C318C
4C318C
0C3FFC
0C318C
0C0180
0C0180
0C0180
0C0180
0C0180
0C0180
0C0180
0C0180
000000
ENDCHAR

STARTCHAR cns2_237E
ENCODING 9086
SWIDTH 960 0
DWIDTH 24 0
BBX 24 24 0 -2
BITMAP
000000
0E0700
0C0600
0C0600
0C0C08
0C0FFC
0E18C0
2D10C0
2DB0C0
2CC0C0
6C00C0
4C00C0
4C00CC
0C3FFE
0C00C0
0C00C0
0C00C0
0C00C0
0C00C0
0C00C0
0C00C0
0C00C0
0C00C0
000000
ENDCHAR

STARTCHAR cns2_2421
ENCODING 9249
SWIDTH 960 0
DWIDTH 24 0
BBX 24 24 0 -2
BITMAP
000000
0E0010
0C7FF8
0C0C38
0C0C30
0C0C30
0E0C60
0D0C60
2D8CC8
2C9FFC
6C181C
6C1818
4C3430
4C3430
0C2260
0C6260
0C43C0
0CC180
0C83C0
0D0660
0E0C38
0C301E
0DC00C
000000
ENDCHAR

STARTCHAR cns2_2422
ENCODING 9250
SWIDTH 960 0
DWIDTH 24 0
BBX 24 24 0 -2
BITMAP
000000
0E0E00
0C0C00
0C0C00
0C1808
0C1FFC
0C330E
0E330C
2F4318
2D8310
6D0300
6C0700
4C0680
4C0680
0C0C80
0C0CC0
0C18C0
0C1840
0C3060
0C6030
0CC038
0D801E
0E000C
000000
ENDCHAR

STARTCHAR cns2_2423
ENCODING 9251
SWIDTH 960 0
DWIDTH 24 0
BBX 24 24 0 -2
BITMAP
000000
0E0018
0C207C
0C3FC0
0C30C0
0C30C0
0C30C0
0E30C0
2D30C0
2DB0D8
6CBFFC
6C30C0
4C30C0
4C30C0
0C30C0
0C3060
0C3064
0C3064
0C3034
0C31B4
0C371E
0C3C0E
0C1804
000000
ENDCHAR

STARTCHAR cns2_2424
ENCODING 9252
SWIDTH 960 0
DWIDTH 24 0
BBX 24 24 0 -2
BITMAP
000000
0E0000
0C0000
0C700E
0C600C
0C600C
0E682C
2F682C
2DE44C
6D66CC
6C628C
4C638C
4C610C
0C638C
0C66CC
0C644C
0C682C
0C682C
0C600C
0C7FFC
0C600C
0C600C
0C0000
000000
ENDCHAR

STARTCHAR cns2_2425
ENCODING 9253
SWIDTH 960 0
DWIDTH 24 0
BBX 24 24 0 -2
BITMAP
000000
0E0018
0C003C
0C11E0
0C1F80
0C1800
0E1800
2D9800
2CD80C
2C9FFE
6C1860
4C1860
4C1860
0C1860
0C1860
0C1860
0C3060
0C3060
0C2060
0C6060
0C4060
0C8060
0D0060
000000
ENDCHAR

STARTCHAR cns2_2426
ENCODING 9254
SWIDTH 960 0
DWIDTH 24 0
BBX 24 24 0 -2
BITMAP
000000
0E000C
0C3FFE
0C00E0
0C00C0
0C01C0
0E0180
0F0180
2D8380
2D83E0
6C07B0
6C0598
4C0D8C
4C198E
0C1186
0C3186
0C6180
0C4180
0C8180
0C0180
0C0180
0C0180
0C0180
000000
ENDCHAR

STARTCHAR cns2_2427
ENCODING 9255
SWIDTH 960 0
DWIDTH 24 0
BBX 24 24 0 -2
BITMAP
000000
0E0380
0C0300
0C0680
0C0640
0C0C60
0C0C30
0C181C
4E300E
6DC026
6D8FF0
6D8000
2C0004
0C1FFE
0C000C
0C000C
0C0018
0C0018
0C0018
0C0030
0C0030
0C0060
0C01C0
000000
ENDCHAR

STARTCHAR cns2_2428
ENCODING 9256
SWIDTH 960 0
DWIDTH 24 0
BBX 24 24 0 -2
BITMAP
000000
00C000
01E004
0707FE
3C060E
30260C
3FF60C
30760C
30660C
30660C
3067FC
30660C
3FE600
306600
300600
300600
300604
300604
300604
300606
2007FE
2003FC
400000
000000
ENDCHAR

STARTCHAR cns2_2429
ENCODING 9257
SWIDTH 960 0
DWIDTH 24 0
BBX 24 24 0 -2
BITMAP
000000
070200
060180
0601C0
0600C0
06004C
065FFE
7FE0C0
0600C0
0600C0
0600C0
0600D0
0640C8
0F80CC
7E00CE
6600C6
0600C4
0600C0
0600C0
0600C0
0600C0
3E00C0
0C00C0
000000
ENDCHAR

STARTCHAR cns2_242A
ENCODING 9258
SWIDTH 960 0
DWIDTH 24 0
BBX 24 24 0 -2
BITMAP
000000
0E01C0
0C0180
0C0180
0C0180
0D2184
7FBFFE
0C6186
0CC18C
0C0180
0C0300
0D0300
0E03C0
1C03C0
7C06C0
6C06C0
0C0CC0
0C0CC4
0C18C4
0C18C4
0C30C6
7C60FE
19807C
000000
ENDCHAR

STARTCHAR cns2_242B
ENCODING 9259
SWIDTH 960 0
DWIDTH 24 0
BBX 24 24 0 -2
BITMAP
000000
0E0000
0C0000
0C0018
0C1FFC
0D0000
7F8000
0C0000
0C0000
0C000C
0C7FFE
0D0180
0E0180
1C0180
7C0300
6C0220
0C0610
0C0418
0C0C08
0C087C
0C7F8C
7C7C06
183006
000000
ENDCHAR

STARTCHAR cns2_242C
ENCODING 9260
SWIDTH 960 0
DWIDTH 24 0
BBX 24 24 0 -2
BITMAP
000000
0E0000
0C0030
0C3FF8
0C0000
0D0000
7F8000
0C0000
0C000C
0CFFFE
0C0CC0
0D0CC0
0E0CC0
1C0CC0
7C0CC0
6C18C0
0C18C0
0C18C4
0C30C4
0C30C4
0C60C6
7CC0FE
1B007C
000000
ENDCHAR

STARTCHAR cns2_242D
ENCODING 9261
SWIDTH 960 0
DWIDTH 24 0
BBX 24 24 0 -2
BITMAP
000000
0E0000
0C000C
0C3FFE
0C0060
0D0060
7F80C0
0C0180
0C0180
0C0380
0C07B0
0D8790
0E0D98
7C198C
6C318C
0C618E
0C8186
0C0180
0C0180
0C0180
0C0180
7C0180
180180
000000
ENDCHAR

STARTCHAR cns2_242E
ENCODING 9262
SWIDTH 960 0
DWIDTH 24 0
BBX 24 24 0 -2
BITMAP
000000
070000
060000
061004
061FFE
06980E
7FD80C
06180C
06180C
06180C
06180C
06580C
079FFC
0E180C
7E180C
66180C
06180C
06180C
06180C
06180C
061FFC
3E180C
0C180C
000000
ENDCHAR

STARTCHAR cns2_242F
ENCODING 9263
SWIDTH 960 0
DWIDTH 24 0
BBX 24 24 0 -2
BITMAP
000000
0E0010
0C7FF8
0C0C38
0C0C30
0C8C30
7FCC60
0C0D88
0C0FFC
0C0E1C
0C8E18
0F1B18
1C1B10
7C1930
6C19B0
0C31A0
0C30E0
0C60C0
0C41E0
0CC330
0C861C
7D0C0E
1A3004
000000
ENDCHAR

STARTCHAR cns2_2430
ENCODING 9264
SWIDTH 960 0
DWIDTH 24 0
BBX 24 24 0 -2
BITMAP
000000
0E1800
0C1C00
0C1800
0C3000
0D3008
7FBFFC
0C661C
0C4618
0C8618
0D0630
0E0F20
1C0D00
7C0D00
6C1980
0C1880
0C1880
0C30C0
0C3060
0C6070
0CC038
7D801E
1A000C
000000
ENDCHAR

STARTCHAR cns2_2431
ENCODING 9265
SWIDTH 960 0
DWIDTH 24 0
BBX 24 24 0 -2
BITMAP
000000
070018
06107C
061FC0
0618C0
0698C0
7FD8C0
0618C0
0618C0
0618C8
061FFC
0658C0
0798C0
1E18C0
7E18C0
661860
061860
061864
061834
0618B4
061B1E
3E1E0E
0C0C04
000000
ENDCHAR

STARTCHAR cns2_2432
ENCODING 9266
SWIDTH 960 0
DWIDTH 24 0
BBX 24 24 0 -2
BITMAP
1C0380
180320
180318
18030C
18030C
180300
180306
FF7FFF
180300
180300
1803E0
1803C0
1B03C0
1E06C0
1806C0
3806C0
780CC0
D80CC0
180CC2
1818C2
1818C2
1830C3
F860FF
30807E
ENDCHAR

STARTCHAR cns2_2433
ENCODING 9267
SWIDTH 960 0
DWIDTH 24 0
BBX 24 24 0 -2
BITMAP
000000
0E0380
0C0300
0C0300
0C0600
0D0600
7F8C18
0C180C
0C300C
0C7FFE
0C66C6
0D06C6
0E06C0
1C06C0
7C06C0
6C06C0
0C0CC0
0C0CC4
0C0CC4
0C18C4
0C18C6
7C30FE
38C07C
000000
ENDCHAR

STARTCHAR cns2_2434
ENCODING 9268
SWIDTH 960 0
DWIDTH 24 0
BBX 24 24 0 -2
BITMAP
000000
070000
060804
060FFE
060C0E
064C0C
7FEC0C
060C0C
060FFC
060C0C
060C0C
064C0C
078C0C
0E0FFC
7E0C0C
660C0C
060C0C
06180C
06180C
06100C
06300C
3E207C
0C4018
000000
ENDCHAR

STARTCHAR cns2_2435
ENCODING 9269
SWIDTH 960 0
DWIDTH 24 0
BBX 24 24 0 -2
BITMAP
000000
0E0030
0C00FC
0C03E0
0C3D80
0D0180
7F8180
0C0180
0C0180
0C018C
0D7FFE
0E0180
1C0180
7C0380
6C0380
0C0640
0C0640
0C0C60
0C0820
0C1830
0C3018
7C601C
19800E
000000
ENDCHAR

STARTCHAR cns2_2436
ENCODING 9270
SWIDTH 960 0
DWIDTH 24 0
BBX 24 24 0 -2
BITMAP
000000
0E0380
0C0300
0C0300
0C030C
0D7FFE
7F8300
0C0300
0C731C
0C6318
0C6318
0D6318
0E6318
1C6318
7C7FF8
6C6318
0C0300
0C0300
0C0304
0C0304
0C0306
7C03FE
1801FC
000000
ENDCHAR

STARTCHAR cns2_2437
ENCODING 9271
SWIDTH 960 0
DWIDTH 24 0
BBX 24 24 0 -2
BITMAP
000000
0E0380
0C0300
0C0680
0C0640
0D0C60
7F9830
0C301C
0C604E
0CCFE4
0C0000
0D0000
0E0010
1C1FF8
7C0038
6C0030
0C0030
0C0060
0C0060
0C00C0
0C00C0
7C0180
180200
000000
ENDCHAR

STARTCHAR cns2_2438
ENCODING 9272
SWIDTH 960 0
DWIDTH 24 0
BBX 24 24 0 -2
BITMAP
000000
0E0300
0C0380
0C0680
0C0640
0C8C20
7FD830
0C1018
0C200C
0C400E
0C0E74
0C8C60
0F0C60
1C0C60
7C0C60
6C0C60
0C1860
0C1860
0C1860
0C1860
0C3060
7C3060
18C060
000000
ENDCHAR

STARTCHAR cns2_2439
ENCODING 9273
SWIDTH 960 0
DWIDTH 24 0
BBX 24 24 0 -2
BITMAP
000000
000000
000018
409FFC
7FC180
61C180
618180
618180
618180
618180
61818C
7FBFFE
618180
618180
618180
618180
618180
618180
7F8180
618180
600180
000180
000180
000000
ENDCHAR

STARTCHAR cns2_243A
ENCODING 9274
SWIDTH 960 0
DWIDTH 24 0
BBX 24 24 0 -2
BITMAP
000000
000000
000018
409FFC
7FC180
61C180
618180
618180
618180
618180
61818C
7FBFFE
618180
618180
618180
618180
618180
618180
7F8180
618180
600180
001F80
000700
000000
ENDCHAR

STARTCHAR cns2_243B
ENCODING 9275
SWIDTH 960 0
DWIDTH 24 0
BBX 24 24 0 -2
BITMAP
000000
000700
000600
408C00
7FCC04
61CFFE
61980E
61900C
61A00C
61800C
61840C
7F830C
61818C
6181CC
6180CC
61800C
61800C
61800C
7F801C
618018
000038
0003F0
000060
000000
ENDCHAR

STARTCHAR cns2_243C
ENCODING 9276
SWIDTH 960 0
DWIDTH 24 0
BBX 24 24 0 -2
BITMAP
000000
080010
0FFFF8
0C0038
0C0030
0C0030
0FFFF0
0C0030
0C0030
0C0030
0FFFF0
0C1C30
001800
00180C
7FFFFE
003800
007400
00E600
018300
0301C0
060070
18003E
60000C
000000
ENDCHAR

STARTCHAR cns2_243D
ENCODING 9277
SWIDTH 960 0
DWIDTH 24 0
BBX 24 24 0 -2
BITMAP
000000
080010
0FFFF8
0C0038
0C0030
0C0030
0FFFF0
0C0030
0C0030
0C0030
0FFFF0
0C0030
001C00
001800
001800
38180E
30180C
30180C
30180C
30180C
30180C
3FFFFC
30000C
000000
ENDCHAR

STARTCHAR cns2_243E
ENCODING 9278
SWIDTH 960 0
DWIDTH 24 0
BBX 24 24 0 -2
BITMAP
000000
070008
063FFC
060180
060180
064180
7FE180
060180
060180
0E018C
0F7FFE
1E8180
16C180
366180
264180
660180
460180
460180
060180
060180
060180
060F80
060300
000000
ENDCHAR

STARTCHAR cns2_243F
ENCODING 9279
SWIDTH 960 0
DWIDTH 24 0
BBX 24 24 0 -2
BITMAP
000000
070000
060030
060FF8
060000
068000
7FC000
06001C
063FFE
0E0600
0F0600
0E8400
1ECC08
164FFC
364C1C
260018
460018
460018
060030
060030
060070
0603E0
0600C0
000000
ENDCHAR

STARTCHAR cns2_2440
ENCODING 9280
SWIDTH 960 0
DWIDTH 24 0
BBX 24 24 0 -2
BITMAP
000000
070700
060660
060638
060618
064600
7FE608
06063C
0607C0
0E7E00
0E0300
1F0300
16C380
366180
267180
6621C0
4600C4
4600E4
060064
060074
06003E
06001E
06000C
000000
ENDCHAR

STARTCHAR cns2_2441
ENCODING 9281
SWIDTH 960 0
DWIDTH 24 0
BBX 24 24 0 -2
BITMAP
000000
0701C0
060180
060180
060180
060180
068180
7FC184
063FFE
060180
0E0180
0F8340
1EC340
1E4340
160660
360620
260620
460C30
060C30
061818
06301C
06600E
068004
000000
ENDCHAR

STARTCHAR cns2_2442
ENCODING 9282
SWIDTH 960 0
DWIDTH 24 0
BBX 24 24 0 -2
BITMAP
000000
070000
060000
06000C
067FFE
060C60
068C60
7FCC60
060C60
0E0C60
0F0C60
1E8C60
16CC60
364C60
364C60
260C60
261860
461864
063064
063064
066066
06407E
06803C
000000
ENDCHAR

STARTCHAR cns2_2443
ENCODING 9283
SWIDTH 960 0
DWIDTH 24 0
BBX 24 24 0 -2
BITMAP
000000
070000
06000C
063FFE
06000C
06900C
7FD20C
061B18
060998
0E0CB0
0F0C30
1E8660
16C660
366340
2643C0
660180
4601C0
4602C0
060660
060C30
06181C
06300E
06C004
000000
ENDCHAR

STARTCHAR cns2_2444
ENCODING 9284
SWIDTH 960 0
DWIDTH 24 0
BBX 24 24 0 -2
BITMAP
000000
0E01C0
0C0180
0C1D80
0C1980
0D1984
7F999E
0C19EE
0C1F8C
1C798C
1E1988
1D1998
3D9998
2C9990
6C1990
4C1980
4C1980
0C1980
0C1804
0C1804
0C1806
0C1FFE
0C0FFC
000000
ENDCHAR

STARTCHAR cns2_2445
ENCODING 9285
SWIDTH 960 0
DWIDTH 24 0
BBX 24 24 0 -2
BITMAP
000000
070004
060FFE
060006
06000C
064018
7FE0F0
0600C0
0600C0
0E00C0
0F00C0
1E80CC
16DFFE
3640C0
2600C0
6600C0
4600C0
4600C0
0600C0
0600C0
0600C0
0607C0
060180
000000
ENDCHAR

STARTCHAR cns2_2446
ENCODING 9286
SWIDTH 960 0
DWIDTH 24 0
BBX 24 24 0 -2
BITMAP
000000
070700
060600
060C00
060C0C
069FFE
7FD800
063000
062000
0E4010
0E0FF8
1F0070
1680E0
36C1C0
264380
660700
460C00
460C04
061804
061806
061FFE
060FFC
060000
000000
ENDCHAR

STARTCHAR cns2_2447
ENCODING 9287
SWIDTH 960 0
DWIDTH 24 0
BBX 24 24 0 -2
BITMAP
000000
0E0000
0C2020
0C3FF0
0C3070
0D3060
7FB060
0C3060
0C3060
1C3060
1C3860
3E3660
2D3360
2DB360
6CB060
4C6060
4C6060
0C6064
0C4064
0CC064
0CC066
0C807E
0D003C
000000
ENDCHAR

STARTCHAR cns2_2448
ENCODING 9288
SWIDTH 960 0
DWIDTH 24 0
BBX 24 24 0 -2
BITMAP
000000
001C00
001800
001818
3FFFFC
001800
001800
001860
0FFFF0
000000
040020
07FFF0
061870
061860
061864
7FFFFE
0C3060
0C3060
0C3068
0FFFFC
0C00C0
0007C0
000180
000000
ENDCHAR

STARTCHAR cns2_2449
ENCODING 9289
SWIDTH 960 0
DWIDTH 24 0
BBX 24 24 0 -2
BITMAP
000000
070000
060030
0FFFF8
0C0000
180040
37FFE0
400000
000020
1FFFF0
000070
000060
00E060
00C060
38C3B0
30C332
30C332
30C332
30C31A
30C31A
3FFF0E
30030E
000004
000000
ENDCHAR

STARTCHAR cns2_244A
ENCODING 9290
SWIDTH 960 0
DWIDTH 24 0
BBX 24 24 0 -2
BITMAP
000000
070000
060060
0FFFF0
0C0000
1800C0
23FFE0
000000
000000
3FFFF0
000070
000060
070760
067660
066630
066632
066632
0C6632
0C661A
0C661A
18660E
30660E
400604
000000
ENDCHAR

STARTCHAR cns2_244B
ENCODING 9291
SWIDTH 960 0
DWIDTH 24 0
BBX 24 24 0 -2
BITMAP
000000
180400
0E0300
060380
00018C
007FFE
610C00
310C00
310C00
030C08
020FFC
060C1C
060C18
0C0C18
0C0C18
1C0C18
781818
381818
183018
183018
0C6030
0CC3F0
0D00E0
000000
ENDCHAR

STARTCHAR cns2_244C
ENCODING 9292
SWIDTH 960 0
DWIDTH 24 0
BBX 24 24 0 -2
BITMAP
000000
180008
0C7FFC
0C1830
011830
011830
011830
621830
321830
361830
061834
0CFFFE
0C1830
0C1830
181830
181830
781030
303030
303030
186030
186030
18C030
190030
000000
ENDCHAR

STARTCHAR cns2_244D
ENCODING 9293
SWIDTH 960 0
DWIDTH 24 0
BBX 24 24 0 -2
BITMAP
000000
301CE0
1818C0
1818C0
0A18C0
0218C8
02FFFC
6418C0
3418C0
3418C0
0C18C0
0818CC
1BFFFE
1818C0
1818C0
7830C0
3030C0
3060C0
3060C0
18C0C0
1980C0
1A00C0
1800C0
000000
ENDCHAR

STARTCHAR cns2_244E
ENCODING 9294
SWIDTH 960 0
DWIDTH 24 0
BBX 24 24 0 -2
BITMAP
000000
200000
180018
0C1FFC
0C0000
000000
400000
310000
190000
19000C
023FFE
060300
040300
0C0600
0C0600
180420
700C10
300818
301808
1810FC
187F0E
183806
180006
000000
ENDCHAR

STARTCHAR cns2_244F
ENCODING 9295
SWIDTH 960 0
DWIDTH 24 0
BBX 24 24 0 -2
BITMAP
000000
300700
180660
0A0630
020630
02060C
65FFFE
340600
340600
0C0C00
080C00
180F00
181B00
181B00
781B04
303304
302304
306304
30C306
198306
1E03FE
1801FC
180000
000000
ENDCHAR

STARTCHAR cns2_2450
ENCODING 9296
SWIDTH 960 0
DWIDTH 24 0
BBX 24 24 0 -2
BITMAP
000000
003800
303004
1C33FE
0C30CE
0130CC
0134CC
613ECC
32F0CC
3230CC
0630CC
0C30CC
0C30CC
1830CC
1830CC
78308C
30308C
30318C
30350C
183B1C
187218
1824F8
180830
000000
ENDCHAR

STARTCHAR cns2_2451
ENCODING 9297
SWIDTH 960 0
DWIDTH 24 0
BBX 24 24 0 -2
BITMAP
000000
300700
180660
180630
0A0630
020600
02060C
65FFFE
340600
340600
0C0D00
080D00
180D00
180D80
181880
7818C0
301840
303060
303030
306038
18601E
18800E
190004
000000
ENDCHAR

STARTCHAR cns2_2452
ENCODING 9298
SWIDTH 960 0
DWIDTH 24 0
BBX 24 24 0 -2
BITMAP
000000
301C00
181800
181800
0A180C
02FFFE
021800
641800
3419C0
341980
0C3180
083180
183180
186300
186320
184210
784618
304408
30C41C
1888EC
189F86
191C06
1A0006
000000
ENDCHAR

STARTCHAR cns2_2453
ENCODING 9299
SWIDTH 960 0
DWIDTH 24 0
BBX 24 24 0 -2
BITMAP
000000
300000
180000
184004
007FFE
00600E
61600C
31600C
32600C
02600C
06600C
047FFC
0C600C
0C600C
18600C
18600C
78600C
18600C
18600C
0C7FFC
0C600C
0C600C
0C0000
000000
ENDCHAR

STARTCHAR cns2_2454
ENCODING 9300
SWIDTH 960 0
DWIDTH 24 0
BBX 24 24 0 -2
BITMAP
000000
0001C0
180180
0C0180
060180
040180
000180
600180
307180
326198
0261FC
066180
066180
0C6180
0C6180
1C6180
786180
306180
306180
306180
18618C
1BFFFE
180000
000000
ENDCHAR

STARTCHAR cns2_2455
ENCODING 9301
SWIDTH 960 0
DWIDTH 24 0
BBX 24 24 0 -2
BITMAP
000000
000700
100300
0C0300
064304
067FFE
40630E
31630C
19630C
1B638C
02638C
0666CC
0464CC
0C6C6C
18782C
18701C
78600C
30600C
30600C
30600C
18600C
1860FC
186018
000000
ENDCHAR

STARTCHAR cns2_2456
ENCODING 9302
SWIDTH 960 0
DWIDTH 24 0
BBX 24 24 0 -2
BITMAP
000000
300300
180380
180300
0A0600
020600
020C20
641810
341018
34200C
0DFFFE
08CCC6
180CC6
180CC0
180CC0
780CC0
300CC0
3018C4
3018C4
3030C4
1830C6
1860FE
19807C
000000
ENDCHAR

STARTCHAR cns2_2457
ENCODING 9303
SWIDTH 960 0
DWIDTH 24 0
BBX 24 24 0 -2
BITMAP
000000
303800
183000
183000
0A3004
027FFE
02666E
6466CC
34C6CC
348CCC
0D0CCC
080CCC
18198C
18198C
18318C
78630C
31830C
30060C
300C18
301818
183038
18C1F0
180060
000000
ENDCHAR

STARTCHAR cns2_2458
ENCODING 9304
SWIDTH 960 0
DWIDTH 24 0
BBX 24 24 0 -2
BITMAP
000000
18001C
0E3818
063018
003018
003018
613018
313018
313FF8
033000
023000
063008
063FFC
0C301C
0C3018
1C3018
783018
383018
182018
186018
0C4018
0C8018
0C0008
000000
ENDCHAR

STARTCHAR cns2_2459
ENCODING 9305
SWIDTH 960 0
DWIDTH 24 0
BBX 24 24 0 -2
BITMAP
000000
300018
18007C
1881F0
0AFF80
02C180
02C180
64C180
34C180
34C18C
0CFFFE
08C180
18C180
18C0C0
18C0C0
78C0C0
30C060
30C064
30C434
30D834
18F01E
18600E
180004
000000
ENDCHAR

STARTCHAR cns2_245A
ENCODING 9306
SWIDTH 960 0
DWIDTH 24 0
BBX 24 24 0 -2
BITMAP
000000
18200C
0E3FFE
063000
003000
003000
613008
313FFC
31341C
033418
023418
063218
063230
0C3330
0C6160
1C61E0
7860C0
3840C0
18C1C0
188360
0C8638
0D0C1E
0C300C
000000
ENDCHAR

STARTCHAR cns2_245B
ENCODING 9307
SWIDTH 960 0
DWIDTH 24 0
BBX 24 24 0 -2
BITMAP
000000
300380
180300
180300
0A030C
02FFFE
020300
640300
340300
340308
0CFFFC
080018
181030
181830
180C60
7806C0
300380
300380
300680
300C60
181838
18601E
19800C
000000
ENDCHAR

STARTCHAR cns2_245C
ENCODING 9308
SWIDTH 960 0
DWIDTH 24 0
BBX 24 24 0 -2
BITMAP
000000
700E00
300C00
180C00
081808
001FFC
0018C0
0010C0
6030C0
3220C0
1A40C0
0200C0
0200CC
067FFE
0C00C0
0C00C0
1800C0
1000C0
7000C0
1800C0
1800C0
1800C0
0000C0
000000
ENDCHAR

STARTCHAR cns2_245D
ENCODING 9309
SWIDTH 960 0
DWIDTH 24 0
BBX 24 24 0 -2
BITMAP
000000
300DC0
180D80
180D80
0A1980
021980
023180
643180
346184
34E1FE
0CB180
093180
183180
183180
183180
783180
303180
303184
303184
303184
183186
1831FE
1830FC
000000
ENDCHAR

STARTCHAR cns2_245E
ENCODING 9310
SWIDTH 960 0
DWIDTH 24 0
BBX 24 24 0 -2
BITMAP
000000
070000
060018
060FFC
0620C0
0660C0
4640C0
46C0C0
6680C0
6700C0
2600C0
2600C0
0600C0
0600C0
0500C0
0D80C0
0CC0C0
0860C0
1860C0
1000C0
3000CC
201FFE
400000
000000
ENDCHAR

STARTCHAR cns2_245F
ENCODING 9311
SWIDTH 960 0
DWIDTH 24 0
BBX 24 24 0 -2
BITMAP
000000
0E0380
0C0300
0C0300
0C3B00
0CB300
4DB308
4D333C
6E33DC
6C3F18
2CF318
2C3318
0C3330
0C3330
0C3330
1B3320
193300
19B004
11B004
30B006
203FFE
601FFC
400000
000000
ENDCHAR

STARTCHAR cns2_2460
ENCODING 9312
SWIDTH 960 0
DWIDTH 24 0
BBX 24 24 0 -2
BITMAP
000000
038000
330004
330FFE
33018E
23218C
3FF18C
63018C
43098C
43078C
03038C
03038C
03318C
07C30C
7F030C
73030C
03060C
03060C
030C0C
030C18
031838
0331F0
034060
000000
ENDCHAR

STARTCHAR cns2_2461
ENCODING 9313
SWIDTH 960 0
DWIDTH 24 0
BBX 24 24 0 -2
BITMAP
000000
008200
10C300
098180
050180
07008C
067FFE
0F0180
310180
418180
0181E0
038190
078198
0D818C
31818E
418186
018184
018180
030180
030180
070180
3E0180
0C0180
000000
ENDCHAR

STARTCHAR cns2_2462
ENCODING 9314
SWIDTH 960 0
DWIDTH 24 0
BBX 24 24 0 -2
BITMAP
000000
010018
21BFFC
131860
0A1860
0E1860
0C1860
1E1860
323060
433060
03306C
073FFE
0F00E0
1B01E0
1303E0
230760
430E60
031860
066060
078060
0E0060
7C0FE0
1801C0
000000
ENDCHAR

STARTCHAR cns2_2463
ENCODING 9315
SWIDTH 960 0
DWIDTH 24 0
BBX 24 24 0 -2
BITMAP
000000
018000
218010
137FF8
1A0638
0E0630
1C0630
340630
460630
060C30
060C34
0F7FFE
0B0C30
1B0C30
330C30
230C60
431860
031860
031860
031860
061864
3EFFFE
0C0000
000000
ENDCHAR

STARTCHAR cns2_2464
ENCODING 9316
SWIDTH 960 0
DWIDTH 24 0
BBX 24 24 0 -2
BITMAP
000000
4181C0
318180
1B0180
0B0180
0E2184
0C3FFE
1C318E
36318C
46318C
07318C
07318C
0F318C
1B3FFC
33318C
43318C
030180
030180
030180
070180
060180
3E0180
0C0180
000000
ENDCHAR

STARTCHAR cns2_2465
ENCODING 9317
SWIDTH 960 0
DWIDTH 24 0
BBX 24 24 0 -2
BITMAP
000000
018600
218700
130600
1A0C20
0E0C18
1C180C
3461FC
46FFCE
066006
060EE4
0F0CC0
0B0CC0
1B0CC0
330CC0
230CC0
4318C0
0318C4
0318C4
0330C4
0630C6
3E60FE
0C807C
000000
ENDCHAR

STARTCHAR cns2_2466
ENCODING 9318
SWIDTH 960 0
DWIDTH 24 0
BBX 24 24 0 -2
BITMAP
000000
030C00
230700
160318
1E7FFC
0C0000
1C0000
360000
461020
061FF0
0E1870
0F1860
1B1860
331860
231860
431860
031860
033064
033064
066064
066066
7CC07E
1B003C
000000
ENDCHAR

STARTCHAR cns2_2467
ENCODING 9319
SWIDTH 960 0
DWIDTH 24 0
BBX 24 24 0 -2
BITMAP
000000
008000
10C038
0981FC
051F80
070180
060180
0F0180
310180
418180
018180
038198
079FFC
0D8180
318180
418180
018180
018180
030180
030180
070180
3E018C
0C7FFE
000000
ENDCHAR

STARTCHAR cns2_2468
ENCODING 9320
SWIDTH 960 0
DWIDTH 24 0
BBX 24 24 0 -2
BITMAP
000000
000000
018018
7FDFFC
0C0180
0C0180
0C0180
0C0180
0C0180
0D018C
7FBFFE
0C0180
0C0180
0C0180
0C0180
0C0180
0C0180
0C0180
0F8180
7C0180
700180
000180
000180
000000
ENDCHAR

STARTCHAR cns2_2469
ENCODING 9321
SWIDTH 960 0
DWIDTH 24 0
BBX 24 24 0 -2
BITMAP
000000
000018
019FFC
7FC180
0C0180
0C0180
0C0180
0C0180
0C0180
0C018C
0D3FFE
7F8180
0C0180
0C0180
0C0180
0C0180
0C0180
0C0180
0C8180
0F0180
7C0180
701F80
000700
000000
ENDCHAR

STARTCHAR cns2_246A
ENCODING 9322
SWIDTH 960 0
DWIDTH 24 0
BBX 24 24 0 -2
BITMAP
000000
000E00
018C00
7FCC04
0C1FFE
0C180E
0C300C
0C200C
0C400C
0C000C
0D880C
7FC60C
0C030C
0C038C
0C018C
0C018C
0C000C
0C000C
0CC00C
0F001C
7C0018
7003F8
000070
000000
ENDCHAR

STARTCHAR cns2_246B
ENCODING 9323
SWIDTH 960 0
DWIDTH 24 0
BBX 24 24 0 -2
BITMAP
000000
000E0E
018C0C
7FCCEC
0C0CCC
0C0CCC
0C0CCC
0C0CCC
0C0CCC
0D0CCC
7F8CCC
0C0CCC
0C0CCC
0C0CCC
0C0CCC
0C08CC
0C18CC
0DD8CC
0F18CC
7C10CC
70100C
00200C
00400C
000000
ENDCHAR

STARTCHAR cns2_246C
ENCODING 9324
SWIDTH 960 0
DWIDTH 24 0
BBX 24 24 0 -2
BITMAP
000000
00000C
019FFE
7FC0C0
0C00C0
0C00C0
0C00C0
0C00C0
0C00C0
0C00C0
0D80C0
7FC0C0
0C00C0
0C00C0
0C00C0
0C00C0
0C00C0
0C00C0
0CC0C0
0F00C0
7C00CC
703FFE
000000
000000
ENDCHAR

STARTCHAR cns2_246D
ENCODING 9325
SWIDTH 960 0
DWIDTH 24 0
BBX 24 24 0 -2
BITMAP
000000
00000C
001FFE
4020C0
7FF0C0
6670C0
6660C0
6660C0
6660C0
6660C0
6660C0
7FE0C0
6660C0
6660C0
6660C0
6660C0
6660C0
6660C0
7FE0C0
6060C0
6000C0
000FC0
000380
000000
ENDCHAR

STARTCHAR cns2_246E
ENCODING 9326
SWIDTH 960 0
DWIDTH 24 0
BBX 24 24 0 -2
BITMAP
000000
001C00
001800
101808
1FFFFC
18181C
181818
1FFFF8
181818
181818
1FFFF8
180018
000004
7FFFFE
060000
060008
0FFFFC
18001C
180018
000018
000038
001FF0
0001E0
000000
ENDCHAR

STARTCHAR cns2_246F
ENCODING 9327
SWIDTH 960 0
DWIDTH 24 0
BBX 24 24 0 -2
BITMAP
000000
000C00
000700
04030C
07FFFE
460000
260000
260000
36000C
36FFFE
060180
060180
1E0180
760180
660180
460180
0C0180
0C0180
080180
180180
100180
201F80
400700
000000
ENDCHAR

STARTCHAR cns2_2470
ENCODING 9328
SWIDTH 960 0
DWIDTH 24 0
BBX 24 24 0 -2
BITMAP
000000
001800
000E00
04060C
07FFFE
460000
260000
261C00
361800
361800
061800
06181C
1E18E0
761F00
661800
461800
0C1800
0C1804
081804
181804
101806
201FFE
400FFC
000000
ENDCHAR

STARTCHAR cns2_2471
ENCODING 9329
SWIDTH 960 0
DWIDTH 24 0
BBX 24 24 0 -2
BITMAP
000000
007000
006000
08C010
0FFFF8
0C0038
0C0030
0C0030
0FFFF0
0C0030
0C0030
0C0030
0FFFF0
0C1830
001800
00180C
7FFFFE
001800
001800
001800
001800
001800
001800
000000
ENDCHAR

STARTCHAR cns2_2472
ENCODING 9330
SWIDTH 960 0
DWIDTH 24 0
BBX 24 24 0 -2
BITMAP
000000
180010
0C7FF8
0C0C38
050C30
7F8C30
018C30
030C60
030C60
060C44
060CFE
0D0CCE
1D880C
1CD80C
2CD80C
4C180C
0C180C
0C300C
0C300C
0C600C
0C4018
0C81F8
0C0070
000000
ENDCHAR

STARTCHAR cns2_2473
ENCODING 9331
SWIDTH 960 0
DWIDTH 24 0
BBX 24 24 0 -2
BITMAP
000000
003380
7FFB00
186300
186300
186300
186300
1FE300
186300
186300
186300
186300
1FE300
186300
186300
186304
19E304
1F6304
7C6304
706306
006306
0063FE
0061FC
000000
ENDCHAR

STARTCHAR cns2_2474
ENCODING 9332
SWIDTH 960 0
DWIDTH 24 0
BBX 24 24 0 -2
BITMAP
000000
208000
3FC004
31DFFE
31818E
31818C
31818C
3D818C
37918C
318D8C
318F8C
31858C
31830C
37830C
3D830C
31830C
31860C
31860C
318C18
218C18
219838
4FB1F0
034060
000000
ENDCHAR

STARTCHAR cns2_2475
ENCODING 9333
SWIDTH 960 0
DWIDTH 24 0
BBX 24 24 0 -2
BITMAP
000000
080010
0FFFF8
0C0038
0C0030
0C0030
0FFFF0
0C0030
0C0030
100008
1FFFFC
18001C
1BE018
187C18
1807D8
180018
1803D8
187E18
1BE018
180018
300018
3003F8
400070
000000
ENDCHAR

STARTCHAR cns2_2476
ENCODING 9334
SWIDTH 960 0
DWIDTH 24 0
BBX 24 24 0 -2
BITMAP
000000
208600
3FC700
31C600
318C0C
318FFE
319800
3DB000
37C008
319FFC
318038
318060
3180C0
378180
3D8300
318600
318C04
318C04
319804
219806
219FFE
4F8FFC
030000
000000
ENDCHAR

STARTCHAR cns2_2477
ENCODING 9335
SWIDTH 960 0
DWIDTH 24 0
BBX 24 24 0 -2
BITMAP
000000
208700
3FC600
31C600
318600
318620
31BFF0
3D8670
378660
318660
318660
318660
318660
378E60
3D8F60
318DE0
318D60
319864
319864
219864
21B066
4FA07E
03403C
000000
ENDCHAR

STARTCHAR cns2_2478
ENCODING 9336
SWIDTH 960 0
DWIDTH 24 0
BBX 24 24 0 -2
BITMAP
000000
202018
3FF038
307070
3060C0
306180
3E6300
33EC0C
30601C
306018
306030
306060
33E0C0
3E6180
306606
30600E
30601C
306018
306030
206060
2060C0
43E300
00CC00
000000
ENDCHAR

STARTCHAR cns2_2479
ENCODING 9337
SWIDTH 960 0
DWIDTH 24 0
BBX 24 24 0 -2
BITMAP
000000
070070
060060
064064
7FE7FE
060060
060060
060060
000000
000018
3FFFFC
001800
001800
001A00
001900
001980
0018C0
0018E0
001860
001800
001800
001800
001800
000000
ENDCHAR

STARTCHAR cns2_247A
ENCODING 9338
SWIDTH 960 0
DWIDTH 24 0
BBX 24 24 0 -2
BITMAP
000000
070070
060060
064064
7FE7FE
060060
060060
060060
001C00
001800
001800
001800
001860
07FFF0
001800
001800
001800
001800
001800
001800
00180C
3FFFFE
000000
000000
ENDCHAR

STARTCHAR cns2_247B
ENCODING 9339
SWIDTH 960 0
DWIDTH 24 0
BBX 24 24 0 -2
BITMAP
000000
070070
060060
064064
7FE7FE
060060
060060
001D80
0018C0
001840
001818
1FFFFC
001800
001800
000C00
000C00
000600
000604
000304
000184
0000E6
00007E
00001C
000000
ENDCHAR

STARTCHAR cns2_247C
ENCODING 9340
SWIDTH 960 0
DWIDTH 24 0
BBX 24 24 0 -2
BITMAP
000000
070070
064064
7FE7FE
060060
060060
000010
3FFFF8
000038
000030
100030
1FFFF0
180030
180000
300008
3FFFFC
30001C
000018
000030
000030
000060
001FE0
000380
000000
ENDCHAR

STARTCHAR cns2_247D
ENCODING 9341
SWIDTH 960 0
DWIDTH 24 0
BBX 24 24 0 -2
BITMAP
000000
070070
064064
7FE7FE
060060
060060
000000
000020
1FFFF0
000070
000060
000060
000060
1FFFE0
180060
180000
180004
180004
180004
180006
1FFFFE
0FFFFC
000000
000000
ENDCHAR

STARTCHAR cns2_247E
ENCODING 9342
SWIDTH 960 0
DWIDTH 24 0
BBX 24 24 0 -2
BITMAP
000000
070070
064064
7FE7FE
060060
060060
000020
0FFFF0
0000E0
0001C0
000700
001C00
001800
00180C
7FFFFE
001800
001800
001800
001800
001800
001800
03F800
007000
000000
ENDCHAR

STARTCHAR cns2_2521
ENCODING 9505
SWIDTH 960 0
DWIDTH 24 0
BBX 24 24 0 -2
BITMAP
000000
070070
060060
064064
7FE7FE
060060
060060
000000
0000C0
0007E0
007F00
0FD800
001800
001800
00180C
7FFFFE
001800
001800
001800
001800
001800
001800
001800
000000
ENDCHAR

STARTCHAR cns2_2522
ENCODING 9506
SWIDTH 960 0
DWIDTH 24 0
BBX 24 24 0 -2
BITMAP
000000
070070
060060
064064
7FE7FE
060060
060060
060060
000000
020040
03FFE0
0300E0
0300C0
0320C0
0330C0
0318C0
031CC0
060CC4
0600C4
0600C4
0C00C6
1800FE
60007C
000000
ENDCHAR

STARTCHAR cns2_2523
ENCODING 9507
SWIDTH 960 0
DWIDTH 24 0
BBX 24 24 0 -2
BITMAP
000000
070070
060060
064064
7FE7FE
060060
060060
063860
003000
003000
003040
1FFFE0
0030E0
0030C0
01B0C0
00E0C0
0070C0
00F8C4
00CCC4
0184C4
0300C6
0600FE
38007C
000000
ENDCHAR

STARTCHAR cns2_2524
ENCODING 9508
SWIDTH 960 0
DWIDTH 24 0
BBX 24 24 0 -2
BITMAP
000000
000078
0001F0
001F80
1FFC08
03061C
018370
0081C0
001F00
01FA00
1F8380
0006C0
001C60
0070E0
01C1E0
1E0330
000630
001C30
007030
0F8060
0000E0
000FC0
000380
000000
ENDCHAR

STARTCHAR cns2_2525
ENCODING 9509
SWIDTH 960 0
DWIDTH 24 0
BBX 24 24 0 -2
BITMAP
000000
002008
303FFC
18301C
0C3018
0C3018
003018
023018
7F3FF8
073018
063000
0C3000
183000
0C3000
062000
066000
066000
064000
048000
0E0000
3B0000
71FFFE
207FFC
000000
ENDCHAR

STARTCHAR cns2_2526
ENCODING 9510
SWIDTH 960 0
DWIDTH 24 0
BBX 24 24 0 -2
BITMAP
000000
0001C0
300180
180180
0C0180
0C398E
00318C
02318C
7F318C
07318C
06318C
0C318C
18318C
0C318C
06318C
06318C
06318C
063FFC
04300C
0E300C
3B0000
71FFFE
207FFC
000000
ENDCHAR

STARTCHAR cns2_2527
ENCODING 9511
SWIDTH 960 0
DWIDTH 24 0
BBX 24 24 0 -2
BITMAP
000000
0C0104
0701FE
03318C
7FF98C
000198
000198
104190
1FE1A0
18E190
18C198
18C18C
18C18C
18C186
18C186
18C186
18C9BE
10C99C
30C980
20C980
20CD80
40FD80
407980
000000
ENDCHAR

STARTCHAR cns2_2528
ENCODING 9512
SWIDTH 960 0
DWIDTH 24 0
BBX 24 24 0 -2
BITMAP
000000
0C0000
060104
0301FE
01318E
7FF98C
060188
060198
060190
0611A0
07F990
063998
06318C
06318C
063186
0C3186
0C3186
0C3186
1831BC
183198
306180
43E180
00C180
000000
ENDCHAR

STARTCHAR cns2_2529
ENCODING 9513
SWIDTH 960 0
DWIDTH 24 0
BBX 24 24 0 -2
BITMAP
000000
038104
0301FE
03018C
23098C
3FFD98
631D98
631990
6331A0
030190
030198
03018C
03018C
078186
078186
078186
0D8186
0D81BC
198198
118980
31B180
21E180
40C180
000000
ENDCHAR

STARTCHAR cns2_252A
ENCODING 9514
SWIDTH 960 0
DWIDTH 24 0
BBX 24 24 0 -2
BITMAP
000000
038104
0301FE
03018C
03318C
3FF998
030198
030190
0301A0
030190
031998
7FFD8C
03018C
030186
078186
068186
06C1BE
06419C
0C6180
0C3180
183980
301D80
400980
000000
ENDCHAR

STARTCHAR cns2_252B
ENCODING 9515
SWIDTH 960 0
DWIDTH 24 0
BBX 24 24 0 -2
BITMAP
000000
000104
0061FE
1FF18C
00018C
000198
000198
000190
0019A0
7FFD90
06C198
06C18C
06C18C
06C186
06C186
0CC186
0CC5BE
0CCD9C
18D980
18F180
306180
600180
000180
000000
ENDCHAR

STARTCHAR cns2_252C
ENCODING 9516
SWIDTH 960 0
DWIDTH 24 0
BBX 24 24 0 -2
BITMAP
000000
048000
04C104
0C41FE
0C618E
18218C
183188
301998
600F90
0015A0
3FF990
063998
06318C
06318C
063186
0C3186
0C3186
083186
1831BC
106198
23E180
40C180
000180
000000
ENDCHAR

STARTCHAR cns2_252D
ENCODING 9517
SWIDTH 960 0
DWIDTH 24 0
BBX 24 24 0 -2
BITMAP
000000
20B8E0
3FF0C0
31B0C0
31B0C0
3330C0
3230C0
3234C8
343EFC
3230C0
3330C0
31B0C0
31B0C0
31B0C0
31B0C0
3F30C0
3630C0
3030C4
3030C4
3032C6
3034C6
303CFE
30187C
000000
ENDCHAR

STARTCHAR cns2_252E
ENCODING 9518
SWIDTH 960 0
DWIDTH 24 0
BBX 24 24 0 -2
BITMAP
000000
210000
3FA00C
31BFFE
31B000
333000
323208
3233FC
34331C
323318
333318
31B318
31B318
31B318
31B318
3F2378
362330
306300
304304
30C304
308306
3103FE
3001FC
000000
ENDCHAR

STARTCHAR cns2_252F
ENCODING 9519
SWIDTH 960 0
DWIDTH 24 0
BBX 24 24 0 -2
BITMAP
000000
2080E0
3FC0C0
3180C0
3180C0
3300C0
3200C0
321CC0
3418C0
3218C8
3318FC
3198C0
3198C0
3198C0
3198C0
3F18C0
3618C0
3018C0
3018C0
3018C0
3018CC
31FFFE
300000
000000
ENDCHAR

STARTCHAR cns2_2530
ENCODING 9520
SWIDTH 960 0
DWIDTH 24 0
BBX 24 24 0 -2
BITMAP
000000
4201E0
7F0380
630600
660C00
641818
64F00C
687FFE
640C62
640C60
660C60
620C60
630C60
630C60
630C60
630C60
630C60
6F0C60
661864
601864
603066
60607E
608038
000000
ENDCHAR

STARTCHAR cns2_2531
ENCODING 9521
SWIDTH 960 0
DWIDTH 24 0
BBX 24 24 0 -2
BITMAP
000000
00E380
00C300
20C308
3FFFFC
30C31C
30C318
30C318
3FFFF8
30C318
00C300
40C304
7FFFFE
60C30E
60C30C
60C30C
7FFFFC
60C30C
018300
018300
030300
060300
180300
000000
ENDCHAR

STARTCHAR cns2_2532
ENCODING 9522
SWIDTH 960 0
DWIDTH 24 0
BBX 24 24 0 -2
BITMAP
000000
070600
060380
064184
0C7FFE
0CC006
0CC00C
0C00E0
180FE0
18F600
380600
2C0600
6C0600
4C0618
0DFFFC
0C0600
0C0600
0C0604
0C0604
0C0604
0C0606
0C07FE
0C03FC
000000
ENDCHAR

STARTCHAR cns2_2533
ENCODING 9523
SWIDTH 960 0
DWIDTH 24 0
BBX 24 24 0 -2
BITMAP
000000
070600
060380
06018C
0C7FFE
0C0000
0C0E20
0C0C18
18180C
183006
386006
2C8830
6C0830
4C0C30
0C0660
0C0660
0C03C0
0C0180
0C03C0
0C0660
0C0C38
0C301E
0CC00C
000000
ENDCHAR

STARTCHAR cns2_2534
ENCODING 9524
SWIDTH 960 0
DWIDTH 24 0
BBX 24 24 0 -2
BITMAP
000000
038600
030380
03018C
067FFE
060180
0C0300
0C0300
0E0600
1E2C38
161830
360C70
260660
4604CE
06018C
060318
060618
061830
060060
060198
06030C
060C0E
063006
000000
ENDCHAR

STARTCHAR cns2_2535
ENCODING 9525
SWIDTH 960 0
DWIDTH 24 0
BBX 24 24 0 -2
BITMAP
000000
038380
030300
060300
060604
0C07FE
0C26CE
19F4CC
1C08CC
3C00D8
2C00C0
6C00C0
4C00C0
0C00C0
0C31A0
0DF9A0
0C0330
0C0330
0C0618
0C0C18
0C180C
0C300E
0C4004
000000
ENDCHAR

STARTCHAR cns2_2536
ENCODING 9526
SWIDTH 960 0
DWIDTH 24 0
BBX 24 24 0 -2
BITMAP
000000
070006
060106
06FF86
0C6606
0C6676
0C6666
186666
186666
186666
3DFFE6
2C6666
4C6666
0C6666
0C6666
0C6666
0C6666
0CC606
0CC606
0CC606
0D8606
0D063E
0E060C
000000
ENDCHAR

STARTCHAR cns2_2537
ENCODING 9527
SWIDTH 960 0
DWIDTH 24 0
BBX 24 24 0 -2
BITMAP
000000
070380
060300
06030C
0DFFFE
0C0300
0C0308
187FFC
18031C
184318
3C7FF8
6C6300
4CC304
0CFFFE
0D870E
0C070C
0C0D0C
0C0DBC
0C0C98
0C18C0
0C3070
0C603C
0D8018
000000
ENDCHAR

STARTCHAR cns2_2538
ENCODING 9528
SWIDTH 960 0
DWIDTH 24 0
BBX 24 24 0 -2
BITMAP
000000
060380
070300
060300
0C030C
0CFFFE
0C0300
180300
180300
380318
2C7FFC
6C0000
4C0000
0C2010
0C3FF8
0C3038
0C3030
0C3030
0C3030
0C3030
0C3030
0C3FF0
0C3030
000000
ENDCHAR

STARTCHAR cns2_2539
ENCODING 9529
SWIDTH 960 0
DWIDTH 24 0
BBX 24 24 0 -2
BITMAP
000000
07000C
06FFFE
061830
0C1830
0C1830
0C1830
181FF0
181830
181830
3C1830
2C1830
4C1FF0
0C1830
0C1830
0C1830
0C183C
0C19F0
0CFF30
0C7030
0C0030
0C0030
0C0030
000000
ENDCHAR

STARTCHAR cns2_253A
ENCODING 9530
SWIDTH 960 0
DWIDTH 24 0
BBX 24 24 0 -2
BITMAP
000000
070700
060600
06060C
0DFFFE
0C0C80
0C18C0
181860
183038
18619E
3D9FCC
6C0000
4C000C
0DFFFE
0C0C00
0C0C10
0C1FF8
0C1838
0C0030
0C0030
0C0070
0C07E0
0C01C0
000000
ENDCHAR

STARTCHAR cns2_253B
ENCODING 9531
SWIDTH 960 0
DWIDTH 24 0
BBX 24 24 0 -2
BITMAP
000000
06000C
077FFE
060700
060600
0C0C20
0C0810
0C1818
18107C
18FF8E
387B06
2C0300
4C0300
4C0300
0C0318
0C7FFC
0C0300
0C0300
0C0300
0C0300
0C030C
0CFFFE
0C0000
000000
ENDCHAR

STARTCHAR cns2_253C
ENCODING 9532
SWIDTH 960 0
DWIDTH 24 0
BBX 24 24 0 -2
BITMAP
000000
03A008
033FFC
03301C
063018
063018
0C3FF8
0C3018
0E3018
1E3018
163FF8
363218
263200
46320C
06310C
063118
0631B0
063080
0630C0
063160
063638
063C1E
06180C
000000
ENDCHAR

STARTCHAR cns2_253D
ENCODING 9533
SWIDTH 960 0
DWIDTH 24 0
BBX 24 24 0 -2
BITMAP
000000
071C70
061860
061860
0C1860
0C1860
0C1860
181864
1C1A6E
3C1F78
2C1860
4CD860
0CD860
0CD860
0CD860
0CD860
0CD860
0CD860
0CD862
0CD862
0CDF62
0DF87E
0CC03C
000000
ENDCHAR

STARTCHAR cns2_253E
ENCODING 9534
SWIDTH 960 0
DWIDTH 24 0
BBX 24 24 0 -2
BITMAP
000000
060000
068004
06FFFE
0CC00E
0CC00C
18C0CC
18DFEC
18C00C
38C00C
2CC84C
6CCFEC
4CCCEC
0CCCCC
0CCCCC
0CCCCC
0CCFCC
0CCCCC
0CCCCC
0CC00C
0CC00C
0CC0FC
0CC038
000000
ENDCHAR

STARTCHAR cns2_253F
ENCODING 9535
SWIDTH 960 0
DWIDTH 24 0
BBX 24 24 0 -2
BITMAP
000000
060000
068004
0CFFFE
0CC00E
0CC00C
18C00C
18C84C
38CFCC
2CCCCC
6CCCCC
4CCCCC
0CCCCC
0CCCCC
0CCCCC
0CCFCC
0CCCCC
0CC00C
0CC00C
0CC00C
0CFFFC
0CC00C
0CC00C
000000
ENDCHAR

STARTCHAR cns2_2540
ENCODING 9536
SWIDTH 960 0
DWIDTH 24 0
BBX 24 24 0 -2
BITMAP
000000
038E00
030C00
030C00
061804
061FFE
0C300E
0C200C
0E504C
1E1FEC
1618EC
3618CC
2618CC
461FCC
0618CC
0618CC
0618CC
061FCC
0618CC
060018
060038
0603F0
0600E0
000000
ENDCHAR

STARTCHAR cns2_2541
ENCODING 9537
SWIDTH 960 0
DWIDTH 24 0
BBX 24 24 0 -2
BITMAP
000000
038700
030610
030FF8
060C30
061860
063084
0C7FFE
0CB000
1C3410
1637F8
263638
463630
063630
063630
063630
0666F0
066624
066604
06C604
06C606
0687FE
0703FC
000000
ENDCHAR

STARTCHAR cns2_2542
ENCODING 9538
SWIDTH 960 0
DWIDTH 24 0
BBX 24 24 0 -2
BITMAP
000000
070380
067300
066300
0C6318
0C7FFC
0CC300
0C8300
190300
180300
38030C
2DFFFE
6C0CC0
4C0CC0
0C0CC0
0C0CC0
0C18C4
0C18C4
0C18C4
0C30C4
0C30C6
0C60FE
0D807C
000000
ENDCHAR

STARTCHAR cns2_2543
ENCODING 9539
SWIDTH 960 0
DWIDTH 24 0
BBX 24 24 0 -2
BITMAP
000000
060038
071FFC
060180
060180
0C0180
0C0180
0C018C
187FFE
180180
380180
2C0180
4C0180
4C2188
0C3FFC
0C301C
0C3018
0C3018
0C3018
0C3018
0C3018
0C3FF8
0C3018
000000
ENDCHAR

STARTCHAR cns2_2544
ENCODING 9540
SWIDTH 960 0
DWIDTH 24 0
BBX 24 24 0 -2
BITMAP
000000
0381C0
030180
030300
060600
062408
0C3FFC
0C36DC
0E36D8
1E36D8
1636D8
3636D8
2636D8
4636D8
0636D8
0636D8
0636D8
0636D8
0636D8
0636D8
0636DA
06FFFE
060000
000000
ENDCHAR

STARTCHAR cns2_2545
ENCODING 9541
SWIDTH 960 0
DWIDTH 24 0
BBX 24 24 0 -2
BITMAP
000000
070380
060300
062610
0C3FF8
0C3038
0C3430
183330
1831B0
1831B0
3C3034
6DFFFE
4C3030
0C3030
0C3430
0C3330
0C31B0
0C21B0
0C6030
0C6030
0C4030
0CC1F0
0D0060
000000
ENDCHAR

STARTCHAR cns2_2546
ENCODING 9542
SWIDTH 960 0
DWIDTH 24 0
BBX 24 24 0 -2
BITMAP
000000
030700
030600
060C40
060830
0C1038
0C7FDC
18380C
180300
383300
2C3330
6C3FF8
4C2300
0C6300
0CC300
0C030C
0CFFFE
0C0300
0C0300
0C0300
0C0300
0C0300
0C0300
000000
ENDCHAR

STARTCHAR cns2_2547
ENCODING 9543
SWIDTH 960 0
DWIDTH 24 0
BBX 24 24 0 -2
BITMAP
000000
077000
066000
066084
0C68FE
0C6CCE
1DFECC
18CCCC
18CCCC
38CCCC
78CCCC
58CCCC
198CCC
1998CC
1998CC
1998CC
1BD0CC
1B30CC
1838FC
186CCC
18CE00
198600
1A0000
000000
ENDCHAR

STARTCHAR cns2_2548
ENCODING 9544
SWIDTH 960 0
DWIDTH 24 0
BBX 24 24 0 -2
BITMAP
000000
070600
060380
062184
0C3FFE
0C600C
0C6018
184710
1C0600
3C0620
2C0C34
6CFFFE
4C0C30
0C0C30
0C1830
0C1860
0C3C60
0C3360
0C01C0
0C01B0
0C0318
0C0C1C
0C700C
000000
ENDCHAR

STARTCHAR cns2_2549
ENCODING 9545
SWIDTH 960 0
DWIDTH 24 0
BBX 24 24 0 -2
BITMAP
000000
070380
064304
06FFFE
06C000
0CC018
0CC03C
0CC1E0
18DF80
18C180
3CC180
2CC180
4CC198
0CDFFC
0CC180
0D8180
0D8180
0D8180
0D8184
0D8184
0D0186
0F01FE
0F00FC
000000
ENDCHAR

STARTCHAR cns2_254A
ENCODING 9546
SWIDTH 960 0
DWIDTH 24 0
BBX 24 24 0 -2
BITMAP
000000
07000C
06FFFE
060700
0C0600
0C0C00
0C8804
18FFFE
18CCCE
18CCCC
3CCCCC
6CCCCC
4CCCCC
0CCCCC
0CCCCC
0CCCCC
0CCCCC
0CCCCC
0CCCCC
0CCCCC
0CCCCC
0CC03C
0CC018
000000
ENDCHAR

STARTCHAR cns2_254B
ENCODING 9547
SWIDTH 960 0
DWIDTH 24 0
BBX 24 24 0 -2
BITMAP
000000
030C00
038E00
030C08
061FFE
06181C
0C1418
0C3230
0E2360
1E41C0
1603E0
360638
260C1E
463004
06D008
061FFC
06181C
061818
061818
061818
061818
061FF8
061018
000000
ENDCHAR

STARTCHAR cns2_254C
ENCODING 9548
SWIDTH 960 0
DWIDTH 24 0
BBX 24 24 0 -2
BITMAP
000000
070380
060300
060680
060C40
0C1820
0C3038
0C601E
18800C
180000
3C1FF0
2C0000
4C0000
0C2008
0C3FFC
0C301C
0C3018
0C3018
0C3018
0C3018
0C3018
0C3FF8
0C3018
000000
ENDCHAR

STARTCHAR cns2_254D
ENCODING 9549
SWIDTH 960 0
DWIDTH 24 0
BBX 24 24 0 -2
BITMAP
000000
100004
1FFFFE
30000C
600018
681840
0618E0
0318C0
019980
019900
001A00
1FFFF8
001800
003C00
007B00
00D8C0
019860
031838
06181C
18180C
601800
001800
001800
000000
ENDCHAR

STARTCHAR cns2_254E
ENCODING 9550
SWIDTH 960 0
DWIDTH 24 0
BBX 24 24 0 -2
BITMAP
000000
2001C0
183180
0C3980
0C3190
003FF8
026180
02C180
040180
040180
0C018C
08FFFE
180CC0
180CC0
300CC0
700CC0
3018C4
3018C4
3030C4
1830C4
1860C6
18C0FE
1B007C
000000
ENDCHAR

STARTCHAR cns2_254F
ENCODING 9551
SWIDTH 960 0
DWIDTH 24 0
BBX 24 24 0 -2
BITMAP
000000
000380
200300
180680
0C0680
0C0C40
000C60
011830
013018
03604E
028FE4
060000
040000
0C0000
182010
183FF8
783038
303030
303030
183030
183030
183FF0
183030
000000
ENDCHAR

STARTCHAR cns2_2550
ENCODING 9552
SWIDTH 960 0
DWIDTH 24 0
BBX 24 24 0 -2
BITMAP
000000
00180E
7FFC0C
1831CC
18318C
18318C
18318C
1FF18C
18318C
18318C
18318C
18318C
1FF18C
18318C
18318C
18318C
18318C
183D8C
1FF00C
7E300C
30300C
0030FC
003038
000000
ENDCHAR

STARTCHAR cns2_2551
ENCODING 9553
SWIDTH 960 0
DWIDTH 24 0
BBX 24 24 0 -2
BITMAP
000000
03800E
03000C
03200C
3FF1CC
03018C
03018C
03018C
03318C
7FF98C
03018C
03018C
03018C
03218C
3FF18C
03018C
03018C
03018C
03018C
03380C
7FC00C
3800FC
000038
000000
ENDCHAR

STARTCHAR cns2_2552
ENCODING 9554
SWIDTH 960 0
DWIDTH 24 0
BBX 24 24 0 -2
BITMAP
000000
01C00E
01800C
030CEC
7FFECC
0680CC
0660CC
0C38CC
181ECC
37E4CC
4000CC
0000CC
7FFCCC
0600CC
0600CC
0C10CC
0FF8CC
0C38CC
0030CC
00300C
00700C
07E07C
00C018
000000
ENDCHAR

STARTCHAR cns2_2553
ENCODING 9555
SWIDTH 960 0
DWIDTH 24 0
BBX 24 24 0 -2
BITMAP
000000
0C000E
07000C
23100C
3FF80C
30380C
3031CC
30318C
3FF18C
30318C
30318C
30318C
3FF18C
30318C
30018C
31018C
30C18C
30600C
30600C
31B00C
37300C
3C30FC
180038
000000
ENDCHAR

STARTCHAR cns2_2554
ENCODING 9556
SWIDTH 960 0
DWIDTH 24 0
BBX 24 24 0 -2
BITMAP
000000
0EE000
0CC008
0CCFFC
0CC19C
0CC198
7FF998
0CC198
0CD19C
0CCD9C
0CC79E
0CC19A
7FF99A
0CC198
0CC318
0CC318
18C318
18C618
18C618
30CC30
30D870
40E3E0
00C0C0
000000
ENDCHAR

STARTCHAR cns2_2555
ENCODING 9557
SWIDTH 960 0
DWIDTH 24 0
BBX 24 24 0 -2
BITMAP
000000
0381C0
030180
030180
031180
7FF980
030184
030FFE
03018E
03018C
03218C
3FF18C
00018C
00018C
20230C
3FF30C
30730C
30660C
30660C
306C0C
3FEC18
3019F8
302030
000000
ENDCHAR

STARTCHAR cns2_2556
ENCODING 9558
SWIDTH 960 0
DWIDTH 24 0
BBX 24 24 0 -2
BITMAP
000000
038000
030000
060004
07FFFE
0C000E
18380C
30300C
44308C
02318C
03310C
03320C
3FFFEC
00700C
00FC0C
01B30C
03318C
06318C
08300C
303018
003038
0033F0
0000C0
000000
ENDCHAR

STARTCHAR cns2_2557
ENCODING 9559
SWIDTH 960 0
DWIDTH 24 0
BBX 24 24 0 -2
BITMAP
000000
0E0000
0C0000
0C0004
1FFFFE
18000E
10000C
33800C
23030C
43FF8C
46300C
0C300C
10318C
0FFFCC
00300C
06318C
06318C
07FF8C
06019C
000018
000038
0007F0
0000E0
000000
ENDCHAR

STARTCHAR cns2_2558
ENCODING 9560
SWIDTH 960 0
DWIDTH 24 0
BBX 24 24 0 -2
BITMAP
000000
000018
7FFFFC
600000
601C00
603B00
606180
60C0C0
618070
667F9E
68000C
600000
620010
63FFF8
630038
630030
630030
630030
63FFF0
630030
600000
7FFFFE
3FFFFC
000000
ENDCHAR

STARTCHAR cns2_2559
ENCODING 9561
SWIDTH 960 0
DWIDTH 24 0
BBX 24 24 0 -2
BITMAP
000000
000008
08001C
0FFFFE
0C0000
0C3800
0C3000
0C3010
0C7FF8
0C6300
0CC300
0D8300
0E0300
0C0304
19FFFE
180300
18E30E
10C30C
30C30C
30C30C
20FFFC
20C00C
40C00C
000000
ENDCHAR

STARTCHAR cns2_255A
ENCODING 9562
SWIDTH 960 0
DWIDTH 24 0
BBX 24 24 0 -2
BITMAP
000000
10000C
1FFFFE
180000
180030
1BFFF8
183800
183000
186000
184040
18C030
19FFF8
198618
180600
180600
300630
31FFF8
300600
200600
600600
40060C
47FFFE
000000
000000
ENDCHAR

STARTCHAR cns2_255B
ENCODING 9563
SWIDTH 960 0
DWIDTH 24 0
BBX 24 24 0 -2
BITMAP
000000
000400
00031C
420198
7F0198
670018
660C18
660C30
660C30
660C30
660C60
662C68
662CC4
666CC6
66CD86
66CD06
660F00
7E0E08
660C08
600C08
001C0C
002FFC
00C7F8
000000
ENDCHAR

STARTCHAR cns2_255C
ENCODING 9564
SWIDTH 960 0
DWIDTH 24 0
BBX 24 24 0 -2
BITMAP
000000
0001C0
000180
210180
3F8198
33BFFC
330180
330180
330180
330180
33018C
337FFE
330380
330300
330300
330610
330408
3F0C0C
33080C
30107E
00FF86
007806
000000
000000
ENDCHAR

STARTCHAR cns2_255D
ENCODING 9565
SWIDTH 960 0
DWIDTH 24 0
BBX 24 24 0 -2
BITMAP
000000
001C38
001830
421830
7F1830
671834
66FFFE
661830
661830
661830
661830
661830
661830
661FF0
661830
661830
661830
7E1830
661830
601830
001FF0
001830
001830
000000
ENDCHAR

STARTCHAR cns2_255E
ENCODING 9566
SWIDTH 960 0
DWIDTH 24 0
BBX 24 24 0 -2
BITMAP
000000
000E00
000C00
210C04
3F8CFE
338D18
337F98
330C18
330C18
330C18
330C18
330D18
330E18
331C18
337C18
336C18
330C18
3F0C18
330C18
300C18
000C18
007CF8
001830
000000
ENDCHAR

STARTCHAR cns2_255F
ENCODING 9567
SWIDTH 960 0
DWIDTH 24 0
BBX 24 24 0 -2
BITMAP
000000
00400C
427FFE
7F6000
6760E0
6660C0
6660C0
6668C4
666FFE
666CCE
666CCC
666CCC
666CCC
666CCC
666CCC
666CCC
666CDC
7E60C8
6660C0
6060C0
606004
007FFE
006000
000000
ENDCHAR

STARTCHAR cns2_2560
ENCODING 9568
SWIDTH 960 0
DWIDTH 24 0
BBX 24 24 0 -2
BITMAP
000000
000EE0
000CC0
420CC4
7F7FFE
670CCE
660CCC
660CCC
667FFC
666CC0
664CC0
66CCC0
66CCC2
66FFFE
66CCC6
660CC6
6618C6
7E18CC
6630FC
6030C8
0060C0
00C0C0
0300C0
000000
ENDCHAR

STARTCHAR cns2_2561
ENCODING 9569
SWIDTH 960 0
DWIDTH 24 0
BBX 24 24 0 -2
BITMAP
000000
000380
000300
410300
7F8300
63830C
6303FE
630300
630300
630300
630300
630300
632308
633FFC
63301C
633018
633018
633018
7F3018
633018
603018
003FF8
003018
000000
ENDCHAR

STARTCHAR cns2_2562
ENCODING 9570
SWIDTH 960 0
DWIDTH 24 0
BBX 24 24 0 -2
BITMAP
000000
002004
003FFE
21300E
3FB00C
33B00C
333FFC
33300C
330000
33000C
337FFE
330C00
330C00
331804
331FFE
33300E
33300C
3F000C
33000C
300018
000038
0003F0
0000E0
000000
ENDCHAR

STARTCHAR cns2_2563
ENCODING 9571
SWIDTH 960 0
DWIDTH 24 0
BBX 24 24 0 -2
BITMAP
000000
002010
003FF8
423038
7F3030
673030
663030
663030
663030
663FF0
663030
663030
663030
663030
663030
663030
663FF0
7E3030
660000
600000
00000C
01FFFE
000000
000000
ENDCHAR

STARTCHAR cns2_2564
ENCODING 9572
SWIDTH 960 0
DWIDTH 24 0
BBX 24 24 0 -2
BITMAP
000000
000380
000300
420300
7F4308
677FFC
66631C
666318
666318
666318
667FF8
666318
666318
666318
666318
67FFFE
666018
7E6018
666018
606018
006018
0060F8
006030
000000
ENDCHAR

STARTCHAR cns2_2565
ENCODING 9573
SWIDTH 960 0
DWIDTH 24 0
BBX 24 24 0 -2
BITMAP
000000
004002
007FFE
426666
7F6666
676666
666666
666666
666666
666666
666666
666666
666666
666466
666C66
66687E
667036
7E6006
666006
606006
007FFE
006006
006006
000000
ENDCHAR

STARTCHAR cns2_2566
ENCODING 9574
SWIDTH 960 0
DWIDTH 24 0
BBX 24 24 0 -2
BITMAP
000000
000E00
000C00
210C00
3F9804
339FFE
33300E
33200C
33504C
331FEC
3318EC
3318CC
3318CC
3318CC
3318CC
331FCC
3318CC
3F180C
33000C
300018
000018
0001F0
000060
000000
ENDCHAR

STARTCHAR cns2_2567
ENCODING 9575
SWIDTH 960 0
DWIDTH 24 0
BBX 24 24 0 -2
BITMAP
000000
0018E0
4218C0
7F30C0
6730C4
6623FE
6664CE
6644CC
668CCC
6688CC
6648CC
6668CC
6638CC
6610CC
6630CC
66698C
66458C
669F8C
7FE70C
66830C
60061C
000CF8
003030
000000
ENDCHAR

STARTCHAR cns2_2568
ENCODING 9576
SWIDTH 960 0
DWIDTH 24 0
BBX 24 24 0 -2
BITMAP
000000
000380
420300
7F0300
670600
660620
660C18
66180C
66207C
66FF8E
663C06
660000
660000
662008
663FFC
66301C
663018
7E3018
663018
603018
003018
003FF8
003018
000000
ENDCHAR

STARTCHAR cns2_2569
ENCODING 9577
SWIDTH 960 0
DWIDTH 24 0
BBX 24 24 0 -2
BITMAP
000000
000008
007FFC
420300
7F0300
67430C
66230C
663318
663318
661B30
661320
660300
66030C
66FFFE
660300
660300
660300
7E0300
660300
600300
000300
000300
000300
000000
ENDCHAR

STARTCHAR cns2_256A
ENCODING 9578
SWIDTH 960 0
DWIDTH 24 0
BBX 24 24 0 -2
BITMAP
000000
004008
007FFC
42601C
7F6018
676018
666018
667FF8
666198
666180
666180
66618C
667FFE
666180
666180
6660C0
6660C0
7E60C2
666062
606262
006C32
00781E
00300C
000000
ENDCHAR

STARTCHAR cns2_256B
ENCODING 9579
SWIDTH 960 0
DWIDTH 24 0
BBX 24 24 0 -2
BITMAP
000000
0001C0
000180
420180
7F0180
67018C
667FFE
660380
6603C0
6607C0
6607A0
660DA0
660D90
661998
66318C
66618E
668194
7E1FF8
660180
600180
000180
000180
000180
000000
ENDCHAR

STARTCHAR cns2_256C
ENCODING 9580
SWIDTH 960 0
DWIDTH 24 0
BBX 24 24 0 -2
BITMAP
000000
000700
660600
7E060C
67FFFE
660C00
660DC0
661980
661984
663FFE
66318E
66718C
66718C
66B18C
67318C
66318C
66318C
66318C
6631FC
663198
7E0180
660180
000180
000000
ENDCHAR

STARTCHAR cns2_256D
ENCODING 9581
SWIDTH 960 0
DWIDTH 24 0
BBX 24 24 0 -2
BITMAP
000000
001008
661FFC
7E181C
661818
661B18
661998
6618D8
663098
66301A
66FFFE
663030
663630
663330
6661B0
6661B0
666030
666030
667FFC
666030
7E0070
6607E0
0001C0
000000
ENDCHAR

STARTCHAR cns2_256E
ENCODING 9582
SWIDTH 960 0
DWIDTH 24 0
BBX 24 24 0 -2
BITMAP
000000
000030
0021F8
423F80
7F3180
673180
663180
663180
663198
663FFC
6630C0
6630C0
6630C0
6630C0
6630C0
6630C0
6630C0
663362
7E3E62
661832
60003A
00011E
007F8C
000000
ENDCHAR

STARTCHAR cns2_256F
ENCODING 9583
SWIDTH 960 0
DWIDTH 24 0
BBX 24 24 0 -2
BITMAP
000000
000700
000600
420D00
7F18C0
673060
666038
66C01E
67004C
663FE0
660000
660000
660010
667FF8
660018
660030
660030
7E0060
6610C0
600D80
000700
000380
000180
000000
ENDCHAR

STARTCHAR cns2_2570
ENCODING 9584
SWIDTH 960 0
DWIDTH 24 0
BBX 24 24 0 -2
BITMAP
000000
200004
3FFFFE
30000E
30030C
300F8C
31F80C
30180C
30184C
37FFEC
303C0C
307A0C
305B0C
30D98C
3199CC
3318EC
34184C
30180C
30180C
30000C
30000C
3FFFFC
30000C
000000
ENDCHAR

STARTCHAR cns2_2571
ENCODING 9585
SWIDTH 960 0
DWIDTH 24 0
BBX 24 24 0 -2
BITMAP
000000
200004
3FFFFE
30180E
30180C
30340C
30630C
30C18C
3180CC
360C7C
38FE2C
30000C
30008C
33FFCC
3001CC
30030C
30660C
303C0C
30180C
30180C
30000C
3FFFFC
30000C
000000
ENDCHAR

STARTCHAR cns2_2572
ENCODING 9586
SWIDTH 960 0
DWIDTH 24 0
BBX 24 24 0 -2
BITMAP
000000
0E000C
0C7FFE
0C00E0
0C00C0
0C01C0
0C0180
0D0180
7F8380
0C03E0
0C07B0
0C0D98
0C198C
0C318E
0CC186
0C0186
0C0180
0C8180
0F0180
7C0180
30018C
00FFFE
000000
000000
ENDCHAR

STARTCHAR cns2_2573
ENCODING 9587
SWIDTH 960 0
DWIDTH 24 0
BBX 24 24 0 -2
BITMAP
000000
0E0EE0
0C0CC0
0C0CC8
0C7FFC
0C0CDC
0C0CD8
0D0CD8
7F7FF8
0C6CD8
0C6CC0
0CCCC0
0CCCC4
0CFFFE
0CCCCE
0C18CC
0C98CC
0F18CC
7C30FC
3030D8
0060C0
00C0C0
0300C0
000000
ENDCHAR

STARTCHAR cns2_2574
ENCODING 9588
SWIDTH 960 0
DWIDTH 24 0
BBX 24 24 0 -2
BITMAP
000000
0E2008
0C3FFC
0C301C
0C3018
0C3018
0D3018
7FBFF8
0C3018
0C3000
0C3380
0C3300
0C3300
0C3318
0DB3FC
0F6300
0E6300
784304
30C304
00C304
018306
0203FE
0001FC
000000
ENDCHAR

STARTCHAR cns2_2575
ENCODING 9589
SWIDTH 960 0
DWIDTH 24 0
BBX 24 24 0 -2
BITMAP
000000
0E0380
0C0300
0C0300
0C0300
0C0300
0D030C
7F83FE
0C0300
0C0300
0C0300
0C0300
0C2304
0C3FFE
0C300E
0C700C
0DB00C
0F300C
7C300C
30300C
00300C
003FFC
00300C
000000
ENDCHAR

STARTCHAR cns2_2576
ENCODING 9590
SWIDTH 960 0
DWIDTH 24 0
BBX 24 24 0 -2
BITMAP
000000
0E01C0
0C0180
0C0180
0C1188
0C1FFC
0C199C
0D1998
7F9998
0C1998
0C1998
0C1998
0C1998
0C7FFE
0C0340
0C0340
0CC640
0F8660
0E0C20
780C30
303018
00600E
018004
000000
ENDCHAR

STARTCHAR cns2_2577
ENCODING 9591
SWIDTH 960 0
DWIDTH 24 0
BBX 24 24 0 -2
BITMAP
000000
0E2004
0C3FFE
0C300E
0C300C
0C300C
0C324C
0D33CC
7FB24C
0C324C
0C324C
0C324C
0C324C
0C324C
0C324C
0C73CC
0DB24C
0E320C
78300C
30300C
00300C
0030FC
003018
000000
ENDCHAR

STARTCHAR cns2_2578
ENCODING 9592
SWIDTH 960 0
DWIDTH 24 0
BBX 24 24 0 -2
BITMAP
000000
0E1008
0C1FFC
0C181C
0C1A18
0C1998
0C18D8
0D18D8
7F9818
0C181A
0C7FFE
0C1818
0C1A18
0C1998
0C30D8
0C30D8
0C3018
0CB01A
0F3FFE
7C3030
300030
0003E0
0000C0
000000
ENDCHAR

STARTCHAR cns2_2579
ENCODING 9593
SWIDTH 960 0
DWIDTH 24 0
BBX 24 24 0 -2
BITMAP
000000
0E0038
0C07FC
0C7FC0
0C0300
0C4318
0C2318
0D3318
7FB330
0C1B20
0C1340
0C0300
0C030C
0C7FFE
0C0300
0C0300
0CC300
0F8300
0E0300
780300
300300
001F00
000600
000000
ENDCHAR

STARTCHAR cns2_257A
ENCODING 9594
SWIDTH 960 0
DWIDTH 24 0
BBX 24 24 0 -2
BITMAP
000000
0E0018
0C10FC
0C1F80
0C1800
0C1800
0D1800
7F980C
0C1FFE
0C1860
0C1860
0C1860
0C1860
0C1860
0C1860
0C1860
0C1860
0D9860
0E1860
7C1860
301864
00FFFE
000000
000000
ENDCHAR

STARTCHAR cns2_257B
ENCODING 9595
SWIDTH 960 0
DWIDTH 24 0
BBX 24 24 0 -2
BITMAP
000000
000018
0E003C
0C20F0
0C3FC0
0C30C0
0C30C0
0D30C0
7FB0C0
0C30CC
0C3FFE
0C30C0
0C30C0
0C30C0
0C3060
0C7060
0CB064
0F3364
7C3C34
301834
00009E
001FCE
000004
000000
ENDCHAR

STARTCHAR cns2_257C
ENCODING 9596
SWIDTH 960 0
DWIDTH 24 0
BBX 24 24 0 -2
BITMAP
000000
1C18E0
1818C0
1818C0
1830C0
1830C4
1A21FE
7F66CE
1846CC
188CCC
184CCC
1868CC
1838CC
1810CC
1830CC
18498C
1B4D8C
1C9D8C
71E70C
61830C
00061C
000CF8
003030
000000
ENDCHAR

STARTCHAR cns2_257D
ENCODING 9597
SWIDTH 960 0
DWIDTH 24 0
BBX 24 24 0 -2
BITMAP
000000
001C00
001800
001860
0FFFF0
001800
001800
00180C
7FFFFE
00C300
00C300
018300
0303FE
1C1DFC
001800
001860
0FFFF0
001800
001800
001800
00180C
7FFFFE
000000
000000
ENDCHAR

STARTCHAR cns2_257E
ENCODING 9598
SWIDTH 960 0
DWIDTH 24 0
BBX 24 24 0 -2
BITMAP
000000
0E01C0
0C218E
0C118C
0C1998
0C0D90
0C0DA0
0D0180
7F8198
0C1FFC
0C0180
0C0180
0C0180
0C0180
0C018C
0C3FFE
0C8180
0F0180
7C0180
380180
000180
000180
000180
000000
ENDCHAR

STARTCHAR cns2_2621
ENCODING 9761
SWIDTH 960 0
DWIDTH 24 0
BBX 24 24 0 -2
BITMAP
000000
0E0300
0C0180
0C0180
0C2084
0C3FFE
0C6006
0D600C
7F8000
0C0E00
0C0C00
0C0C00
0C0C30
0C0CF8
0C0F80
0C0C00
0CCC04
0F8C04
0E0C04
780C06
300C06
000FFE
0007FC
000000
ENDCHAR

STARTCHAR cns2_2622
ENCODING 9762
SWIDTH 960 0
DWIDTH 24 0
BBX 24 24 0 -2
BITMAP
000000
0E0380
0C0300
0C0680
0C06C0
0C0C40
0C0860
0D1830
7FB058
0C2FEE
0C4004
0C8000
0C0008
0C3FFC
0C001C
0C0018
0CC030
0F8060
0E0CC0
780780
300300
000180
000180
000000
ENDCHAR

STARTCHAR cns2_2623
ENCODING 9763
SWIDTH 960 0
DWIDTH 24 0
BBX 24 24 0 -2
BITMAP
000000
001C00
001800
001830
1FFFF8
001800
001800
00180C
7FFFFE
030180
030180
06E1FE
38C0FC
00C010
0DFFF8
038030
0D8060
30C0C0
006380
003E00
00E7C0
0781FE
7C003C
000000
ENDCHAR

STARTCHAR cns2_2624
ENCODING 9764
SWIDTH 960 0
DWIDTH 24 0
BBX 24 24 0 -2
BITMAP
000000
001C00
001800
00180C
7FFFFE
006200
00C180
0180E0
030038
0E000E
78C424
03E7F8
1F0638
0C7630
0C6630
0C6630
0C6630
0DE630
0F6630
0CC630
00C6F0
018620
060600
000000
ENDCHAR

STARTCHAR cns2_2625
ENCODING 9765
SWIDTH 960 0
DWIDTH 24 0
BBX 24 24 0 -2
BITMAP
000000
0E0C00
0C0300
0C0380
0D0180
0D800C
7FDFFE
198180
198180
198180
318180
318180
318188
319FFC
630180
730180
6E0180
070180
0D8180
0CC180
18C18C
303FFE
400000
000000
ENDCHAR

STARTCHAR cns2_2626
ENCODING 9766
SWIDTH 960 0
DWIDTH 24 0
BBX 24 24 0 -2
BITMAP
000000
0E01C0
0C0180
0C0180
0D018C
0DBFFE
7FC180
198180
198180
198198
199FFC
330180
3303C0
2303C0
7B07A0
6605A0
078DB0
06C990
04D998
0C318C
18418E
300184
400180
000000
ENDCHAR

STARTCHAR cns2_2627
ENCODING 9767
SWIDTH 960 0
DWIDTH 24 0
BBX 24 24 0 -2
BITMAP
000000
0E0E38
0C0C30
0D0C30
0D8C30
7FCC34
19FFFE
198C30
198C30
318C30
318C30
318C30
318C30
630FF0
7B0C30
670C30
030C30
078C30
0CCC30
0C6C30
184FF0
300C30
400C30
000000
ENDCHAR

STARTCHAR cns2_2628
ENCODING 9768
SWIDTH 960 0
DWIDTH 24 0
BBX 24 24 0 -2
BITMAP
000000
1C01C0
180180
180180
190180
199188
7FDFFC
19999C
199998
319998
319998
319998
319998
619998
63FFFE
730380
6E0680
0E0640
1B0C60
1B9830
313018
20C00E
430004
000000
ENDCHAR

STARTCHAR cns2_2629
ENCODING 9769
SWIDTH 960 0
DWIDTH 24 0
BBX 24 24 0 -2
BITMAP
000000
0E0000
0C0808
0C0FFC
0C8C1C
0CCC18
7FEC18
18CC18
18CC18
18CFF8
18CC18
18CC18
318C18
318C18
318C18
3D8C18
330FF8
038C18
068000
0CC000
18400C
303FFE
400000
000000
ENDCHAR

STARTCHAR cns2_262A
ENCODING 9770
SWIDTH 960 0
DWIDTH 24 0
BBX 24 24 0 -2
BITMAP
000000
0E01C0
0C0180
0C0180
0D1188
0D9FFC
7FD99C
199998
199998
199998
319FF8
319998
319998
331998
631998
737FFE
6E1818
071818
0D9818
0CD818
18D818
3018F8
401830
000000
ENDCHAR

STARTCHAR cns2_262B
ENCODING 9771
SWIDTH 960 0
DWIDTH 24 0
BBX 24 24 0 -2
BITMAP
000000
0E0600
0C0700
0C0600
0D0C00
0D8C04
7FDFFE
19900E
19A00C
19C84C
318FEC
318CEC
318CCC
630CCC
7B0CCC
6F0CCC
030FCC
078CCC
06CC0C
0C600C
184018
3000F8
400030
000000
ENDCHAR

STARTCHAR cns2_262C
ENCODING 9772
SWIDTH 960 0
DWIDTH 24 0
BBX 24 24 0 -2
BITMAP
000000
0E0300
0C0180
0C0180
0D008C
0DBFFE
7FE180
1981C0
198180
198318
19831C
199618
318C30
330630
3B0360
370260
0780C0
06C310
0C6218
0C640C
18087C
303F8E
403E06
000000
ENDCHAR

STARTCHAR cns2_262D
ENCODING 9773
SWIDTH 960 0
DWIDTH 24 0
BBX 24 24 0 -2
BITMAP
000000
0E0000
0C0180
0C00C0
0D00DC
0D8018
7FE018
198730
198630
198630
198660
318660
3326CC
6326C6
736786
6E6702
064600
0F4E08
0D9E08
19B608
18460C
3007FC
4003F8
000000
ENDCHAR

STARTCHAR cns2_262E
ENCODING 9774
SWIDTH 960 0
DWIDTH 24 0
BBX 24 24 0 -2
BITMAP
000000
0E0000
0C000C
0C1FFE
0D00C0
1980C0
7FE0C0
1980C0
1980C0
1980C0
3180C0
318EC8
330CFC
630CC0
630CC0
7B0CC0
660CC0
070CC0
0D8CC0
0CCCC0
188CCC
303FFE
400000
000000
ENDCHAR

STARTCHAR cns2_262F
ENCODING 9775
SWIDTH 960 0
DWIDTH 24 0
BBX 24 24 0 -2
BITMAP
000000
0E080C
0C0FFE
0C0C00
0C8C00
0CCC00
7FEC00
18CC08
18CFFC
18CC1C
38CC18
30CC18
318C18
618C18
798FF8
670C18
030C00
038C00
06CC00
0CCC00
18CC0C
300FFE
400C00
000000
ENDCHAR

STARTCHAR cns2_2630
ENCODING 9776
SWIDTH 960 0
DWIDTH 24 0
BBX 24 24 0 -2
BITMAP
000000
0E0000
0C0004
0C1FFE
0D030E
0D830C
7FC30C
19830C
19860C
19860C
118618
318CF8
319830
31A000
630804
730FFE
6E0C0E
060C0C
0F0C0C
0D8C0C
18CC0C
30CFFC
400C0C
000000
ENDCHAR

STARTCHAR cns2_2631
ENCODING 9777
SWIDTH 960 0
DWIDTH 24 0
BBX 24 24 0 -2
BITMAP
000000
0E01C0
0C0180
0C0180
0D0180
0DA184
7FFFFE
19B18E
19B18C
19B18C
11BFFC
31B18C
31B18C
31B18C
633FFC
73318C
6E0180
060180
0F0180
0D8180
18C180
30C180
400180
000000
ENDCHAR

STARTCHAR cns2_2632
ENCODING 9778
SWIDTH 960 0
DWIDTH 24 0
BBX 24 24 0 -2
BITMAP
000000
0E0000
0C0038
0C01FC
0D1FC0
0D8180
7FE180
198180
19818C
19BFFE
318180
3303C0
3307C0
3305A0
630DB0
731990
6E3198
06C18C
07018E
0D8184
18C180
308180
400180
000000
ENDCHAR

STARTCHAR cns2_2633
ENCODING 9779
SWIDTH 960 0
DWIDTH 24 0
BBX 24 24 0 -2
BITMAP
000000
1C0380
180380
180680
190640
198C60
7FD830
199838
19B01E
11E088
318FC0
330000
330008
633FFC
73001C
6E0018
070030
0D8C30
0CC660
1883C0
300180
400180
000080
000000
ENDCHAR

STARTCHAR cns2_2634
ENCODING 9780
SWIDTH 960 0
DWIDTH 24 0
BBX 24 24 0 -2
BITMAP
000000
0E0408
0C27FC
0FF61C
187618
3C6618
2666F8
42C630
018604
030604
0C07FE
70E3FC
00C100
00C18C
7FFFFE
018180
030180
03C300
067600
001F00
0071C0
03C070
3E0030
000000
ENDCHAR

STARTCHAR cns2_2635
ENCODING 9781
SWIDTH 960 0
DWIDTH 24 0
BBX 24 24 0 -2
BITMAP
000000
00E038
01C030
070034
1E7FFE
6C0030
0C0030
0C0C30
0C0630
0C0230
0C0030
0C01F0
0C3860
00600C
7FFFFE
0180C0
060180
0FFB00
040780
001CF0
007018
03C00E
3C0006
000000
ENDCHAR

STARTCHAR cns2_2636
ENCODING 9782
SWIDTH 960 0
DWIDTH 24 0
BBX 24 24 0 -2
BITMAP
000000
000600
004700
7FEE00
00EC04
00DFFE
01B00E
03200C
06504C
061FEC
0618EC
0618CC
06D8CC
0F18CC
7E1FCC
3618CC
06181C
0618F8
061830
061804
061806
3E1FFE
0C0FFC
000000
ENDCHAR

STARTCHAR cns2_2637
ENCODING 9783
SWIDTH 960 0
DWIDTH 24 0
BBX 24 24 0 -2
BITMAP
000000
060000
068010
0CDFF8
7FE838
18C430
318660
3D83C0
330180
0783C0
0CCC70
18303E
37FFCC
000380
001E00
00180C
7FFFFE
001800
001800
001800
001800
03F800
007000
000000
ENDCHAR

STARTCHAR cns2_2638
ENCODING 9784
SWIDTH 960 0
DWIDTH 24 0
BBX 24 24 0 -2
BITMAP
000000
003000
001C00
100C04
1FFFFE
30000E
70000C
603018
0018E0
019CC0
018D80
018180
098318
19830C
19860E
318C06
719800
31B010
01E010
03C018
0CFFF8
703FF0
000000
000000
ENDCHAR

STARTCHAR cns2_2639
ENCODING 9785
SWIDTH 960 0
DWIDTH 24 0
BBX 24 24 0 -2
BITMAP
000000
006000
003800
101808
1FFFFC
30000E
600018
600000
00000C
7FFFFE
006000
00C000
00C000
018000
018010
03FFF8
078038
0D8030
198030
318030
418030
01FFF0
018030
000000
ENDCHAR

STARTCHAR cns2_263A
ENCODING 9786
SWIDTH 960 0
DWIDTH 24 0
BBX 24 24 0 -2
BITMAP
000000
080008
0FFFFC
0C001C
0C0018
0C0018
0FFFF8
0C0018
0C0C00
0C0600
0C8608
0CFFFC
0D801C
0D8118
0D3910
183180
183080
1860C0
186040
30C060
318038
23001E
4C000C
000000
ENDCHAR

STARTCHAR cns2_263B
ENCODING 9787
SWIDTH 960 0
DWIDTH 24 0
BBX 24 24 0 -2
BITMAP
000000
100008
1FFFFC
18001C
180018
180018
1FFFF8
180018
180000
180000
1A0004
1BFFFE
1B060E
33060C
33060C
33060C
33FFFC
33060C
23060C
23060C
63060C
43FFFC
43000C
000000
ENDCHAR

STARTCHAR cns2_263C
ENCODING 9788
SWIDTH 960 0
DWIDTH 24 0
BBX 24 24 0 -2
BITMAP
000000
0E0300
0C01C0
0C10C4
0C1FFE
0C300E
6DB00C
6DB018
6D8E00
6D8C00
6D8C00
6D8C30
6D8CF8
6D8FC0
6D8C00
6D8C00
6D8C04
6D8C04
6D8C04
7F8C06
618C06
600FFE
0007FC
000000
ENDCHAR

STARTCHAR cns2_263D
ENCODING 9789
SWIDTH 960 0
DWIDTH 24 0
BBX 24 24 0 -2
BITMAP
000000
000180
0E00C0
0C10C4
0C1FFE
0C3006
6DB00C
6D8008
6D8000
6D80C0
6D80C0
6D8C40
6D8C60
6D8C60
6D9820
6D9830
6D9830
7FB010
61B018
606018
00600C
00C00E
010004
000000
ENDCHAR

STARTCHAR cns2_263E
ENCODING 9790
SWIDTH 960 0
DWIDTH 24 0
BBX 24 24 0 -2
BITMAP
000000
0E000C
0C3FFE
0C1800
0C1800
0C1800
6DD800
6D9808
6D9FFC
6D981C
6D9818
6D9818
6D9818
6D9818
6D9FF8
6D9818
6D9800
6D9800
6D9800
7F9800
61980C
607FFE
000000
000000
ENDCHAR

STARTCHAR cns2_263F
ENCODING 9791
SWIDTH 960 0
DWIDTH 24 0
BBX 24 24 0 -2
BITMAP
000000
0700E0
0600C0
0600C0
0600C0
0600CC
666FFE
6660C0
6660C0
6660C0
6660C0
6660C0
6668C4
666FFE
666C0E
666C0C
666C0C
666C0C
7FEC0C
606C0C
000FFC
000C0C
000C0C
000000
ENDCHAR

STARTCHAR cns2_2640
ENCODING 9792
SWIDTH 960 0
DWIDTH 24 0
BBX 24 24 0 -2
BITMAP
000000
0E000C
0C7FFE
0C00E0
0C00C0
0C0180
6DC180
6D8300
6D8700
6D87A0
6D8DB0
6D9998
6DB18C
6DC18E
6D8186
6D8186
6D8180
6D8180
7F8180
618180
60018C
007FFE
000000
000000
ENDCHAR

STARTCHAR cns2_2641
ENCODING 9793
SWIDTH 960 0
DWIDTH 24 0
BBX 24 24 0 -2
BITMAP
000000
060000
040810
040FF8
040C38
040C30
74EC30
64CC30
64CC30
64CFF0
64CC30
64CC30
64CC30
64CC30
64CC30
64CFF0
64CC30
64CC30
7FCC30
60CC30
000C34
00FFFE
000000
000000
ENDCHAR

STARTCHAR cns2_2642
ENCODING 9794
SWIDTH 960 0
DWIDTH 24 0
BBX 24 24 0 -2
BITMAP
000000
070804
060FFE
060CCE
060CCC
060CCC
36ECCC
36CCCC
36CFFC
36CCCC
36CCCC
36CCCC
36CCCC
36CCCC
36CFFC
36CCCC
36C0C0
36C0C0
3FC0C0
30C0C0
0000C0
0000C0
0000C0
000000
ENDCHAR

STARTCHAR cns2_2643
ENCODING 9795
SWIDTH 960 0
DWIDTH 24 0
BBX 24 24 0 -2
BITMAP
000000
0001C0
0E0180
0C0180
0C0180
0C1188
0C1FFC
6DD99C
6D9998
6D9998
6D9998
6D9998
6D9998
6DFFFE
6D8180
6D8300
6D8340
6D8630
7F8618
618C1C
60180C
00300C
00C000
000000
ENDCHAR

STARTCHAR cns2_2644
ENCODING 9796
SWIDTH 960 0
DWIDTH 24 0
BBX 24 24 0 -2
BITMAP
000000
070600
060700
060600
060C04
061FFE
66580E
66500C
66600C
66484C
664FEC
664CEC
664CCC
664CCC
664CCC
664CCC
664FCC
7FCCCC
60400C
600018
000018
0003F0
000060
000000
ENDCHAR

STARTCHAR cns2_2645
ENCODING 9797
SWIDTH 960 0
DWIDTH 24 0
BBX 24 24 0 -2
BITMAP
000000
0E0380
0C0380
0C0680
0C0640
0C0C60
6DD830
6D9838
6DB01E
6DA02C
6D8FF0
6D8000
6D8008
6DBFFC
6D801C
6D8018
6D8030
6D8030
7F8660
6183C0
600180
0001C0
0000C0
000000
ENDCHAR

STARTCHAR cns2_2646
ENCODING 9798
SWIDTH 960 0
DWIDTH 24 0
BBX 24 24 0 -2
BITMAP
000000
001C00
001800
1C181C
181818
181818
181818
1FFFF8
180018
000000
00000C
7FFFFE
000030
081030
0FF830
0C3830
0C3030
0C3030
0FF030
0C3030
0C0030
0003F0
000060
000000
ENDCHAR

STARTCHAR cns2_2647
ENCODING 9799
SWIDTH 960 0
DWIDTH 24 0
BBX 24 24 0 -2
BITMAP
000000
001C00
001800
1C181C
181818
181818
181818
1FFFF8
180018
00E380
00C308
3FFFFC
00C31C
10C318
1FFFF8
18C300
18C304
3FFFFE
31830E
01830C
03030C
06037C
380318
000000
ENDCHAR

STARTCHAR cns2_2648
ENCODING 9800
SWIDTH 960 0
DWIDTH 24 0
BBX 24 24 0 -2
BITMAP
000000
001C00
1C181C
181818
181818
181818
1FFFF8
180018
000000
3FFFF8
00C038
00C030
018030
030070
0C07E0
7001C0
100010
1FFFF8
180038
180030
180030
1FFFF0
180030
000000
ENDCHAR

STARTCHAR cns2_2649
ENCODING 9801
SWIDTH 960 0
DWIDTH 24 0
BBX 24 24 0 -2
BITMAP
000000
001C00
1C181C
181818
181818
181818
1FFFF8
1B8018
030000
030018
07FFFC
066000
0C6000
0C6030
187FF8
606000
006000
006030
007FF8
006000
006000
006000
006000
000000
ENDCHAR

STARTCHAR cns2_264A
ENCODING 9802
SWIDTH 960 0
DWIDTH 24 0
BBX 24 24 0 -2
BITMAP
000000
0E01C0
0C0180
0C0180
0C2184
6DBFFE
6DB18C
6DB188
6DB190
6DB180
6DB188
6DBFFC
6DB41C
6DB418
6DB230
6DB230
6DA360
7FE1C0
6041C0
60C360
008638
01181E
026004
000000
ENDCHAR

STARTCHAR cns2_264B
ENCODING 9803
SWIDTH 960 0
DWIDTH 24 0
BBX 24 24 0 -2
BITMAP
000000
0000E0
0700C0
060180
060180
060B04
060FFE
766C0E
666C0C
666C0C
666C0C
666C0C
666C0C
666FFC
666C0C
666C0C
666C0C
666C0C
7FEC0C
606C0C
600C0C
000FFC
000C0C
000000
ENDCHAR

STARTCHAR cns2_264C
ENCODING 9804
SWIDTH 960 0
DWIDTH 24 0
BBX 24 24 0 -2
BITMAP
000000
1830E0
1030C0
1030C0
1060C0
1060C4
5443FE
54CCCE
550CCC
5518CC
5498CC
54D0CC
5470CC
5420CC
54418C
54918C
54898C
553B0C
57CF0C
7D060C
440C1C
0018F8
006030
000000
ENDCHAR

STARTCHAR cns2_264D
ENCODING 9805
SWIDTH 960 0
DWIDTH 24 0
BBX 24 24 0 -2
BITMAP
000000
001C00
001800
1C181C
181818
181818
181818
181818
1FFFF8
180018
003000
001C00
000C18
1FFFFC
0000C0
0200C0
0300C0
018180
008100
00C300
00C20C
7FFFFE
000000
000000
ENDCHAR

STARTCHAR cns2_264E
ENCODING 9806
SWIDTH 960 0
DWIDTH 24 0
BBX 24 24 0 -2
BITMAP
000000
0E0700
0C0640
0C0630
4C8618
6D8600
7F860C
6DFFFE
6D8600
6D8600
6D8E1C
6D8D18
6D8D18
6D9D10
6D99B0
6D98A0
6DB0E0
6FB060
6D60E0
0CC1B0
0C8318
0D060E
0E3804
000000
ENDCHAR

STARTCHAR cns2_264F
ENCODING 9807
SWIDTH 960 0
DWIDTH 24 0
BBX 24 24 0 -2
BITMAP
000000
0E01C0
0C0180
0C0180
0C2184
4CBFFE
7FB18C
6DB188
6DB190
6DB180
6DB188
6DBFFC
6DB41C
6DB418
6DB230
6DB230
6DA360
6FE1C0
6D41C0
0CC360
0C8638
0D181E
0E6004
000000
ENDCHAR

STARTCHAR cns2_2650
ENCODING 9808
SWIDTH 960 0
DWIDTH 24 0
BBX 24 24 0 -2
BITMAP
000000
0E01C0
0C0180
0C1980
0C1990
4CBFF8
7FB180
6DA180
6DA180
6DC180
6D818C
6DBFFE
6D8180
6D8180
6D8340
6D8340
6D8660
6F8620
6D0C30
0C1818
0C301C
0C600E
0D8004
000000
ENDCHAR

STARTCHAR cns2_2651
ENCODING 9809
SWIDTH 960 0
DWIDTH 24 0
BBX 24 24 0 -2
BITMAP
000000
008004
3FDFFE
01C30E
01830C
01830C
21860C
3F8618
318C18
300C18
6019F0
60A060
7F8000
618804
018FFE
018C0E
018C0C
018C0C
018C0C
030C0C
030C0C
3E0FFC
1C0C0C
000000
ENDCHAR

STARTCHAR cns2_2652
ENCODING 9810
SWIDTH 960 0
DWIDTH 24 0
BBX 24 24 0 -2
BITMAP
000000
0100E0
7F80C0
039CC6
0318C6
0318C6
2318C6
3F1FFE
3200C0
3000C0
300004
611FFE
7F800C
638418
630410
030230
030360
0301C0
0301C0
060360
0E0638
7C0C1E
18300C
000000
ENDCHAR

STARTCHAR cns2_2653
ENCODING 9811
SWIDTH 960 0
DWIDTH 24 0
BBX 24 24 0 -2
BITMAP
000000
010E38
3F8C30
030C30
031830
031830
233034
3F37FE
337030
307030
30B030
613030
7FB430
633330
0331B0
033130
033030
033030
033030
063030
063030
7C31F0
183060
000000
ENDCHAR

STARTCHAR cns2_2654
ENCODING 9812
SWIDTH 960 0
DWIDTH 24 0
BBX 24 24 0 -2
BITMAP
000000
010018
7FA0FC
03BF80
033180
033180
233180
3F3180
33318C
303FFE
603180
613180
7F3180
6330C0
0330C0
0330C0
033362
033C62
031832
03001A
06019E
7C7FCE
180004
000000
ENDCHAR

STARTCHAR cns2_2655
ENCODING 9813
SWIDTH 960 0
DWIDTH 24 0
BBX 24 24 0 -2
BITMAP
000000
01C000
018040
01FFE0
0300C0
0300C0
060180
07FF80
000300
00060C
7FFFFE
001800
0C18E0
0618C0
031980
011B00
001800
011900
0618C0
1C1870
381838
30F818
003000
000000
ENDCHAR

STARTCHAR cns2_2656
ENCODING 9814
SWIDTH 960 0
DWIDTH 24 0
BBX 24 24 0 -2
BITMAP
000000
031010
031FF8
061838
0C1830
181830
301830
431830
031FF0
071830
061830
0E1830
0C1830
1E1830
361FF0
261830
461830
061830
061830
061830
061834
06FFFE
060000
000000
ENDCHAR

STARTCHAR cns2_2657
ENCODING 9815
SWIDTH 960 0
DWIDTH 24 0
BBX 24 24 0 -2
BITMAP
000000
030380
030300
060680
0C0440
180C60
319830
41B018
03A0CE
035FE4
060000
0C0000
1E0008
367FFC
26001C
460018
060030
060060
0610C0
060D80
060700
060380
060180
000000
ENDCHAR

STARTCHAR cns2_2658
ENCODING 9816
SWIDTH 960 0
DWIDTH 24 0
BBX 24 24 0 -2
BITMAP
000000
030018
0321FC
063FC0
0C3180
183180
31B180
41B180
033180
03318C
063FFE
0C3180
1E3180
3630C0
2630C0
4630C0
0630C4
063264
063C64
061836
06009E
063FCE
060004
000000
ENDCHAR

STARTCHAR cns2_2659
ENCODING 9817
SWIDTH 960 0
DWIDTH 24 0
BBX 24 24 0 -2
BITMAP
000000
006000
003800
00180C
7FFFFE
020060
0100C0
00C180
007700
001C00
00F780
0780FE
78003C
000000
002000
039820
130E18
13060C
33004E
330066
730066
63FFE0
01FFC0
000000
ENDCHAR

STARTCHAR cns2_265A
ENCODING 9818
SWIDTH 960 0
DWIDTH 24 0
BBX 24 24 0 -2
BITMAP
000000
038000
030030
07FFF8
060000
0C0000
0800C0
1BFFE0
100000
200000
000020
1FFFF0
000070
004060
0E6260
2C6360
2C2362
6C0562
6C0432
6C0632
0FFE1A
07FC1E
00000C
000000
ENDCHAR

STARTCHAR cns2_265B
ENCODING 9819
SWIDTH 960 0
DWIDTH 24 0
BBX 24 24 0 -2
BITMAP
000000
0E0000
0C0200
0C018E
0C01CC
0C00CC
0E0018
0D0718
2D8610
2C8630
6C2630
6C2660
4C6668
4C66CC
0CE6CE
0CC786
0CC700
0C0E08
0C1E08
0C3608
0C660C
0D87FC
0C03F8
000000
ENDCHAR

STARTCHAR cns2_265C
ENCODING 9820
SWIDTH 960 0
DWIDTH 24 0
BBX 24 24 0 -2
BITMAP
000000
0E0008
0C3FFC
0C0180
0C0180
0C2186
0E318C
2D198C
2D9D98
6C8DB0
6C0180
4C0180
4C018C
0C7FFE
0C0180
0C0180
0C0180
0C0180
0C0180
0C0180
0C0180
0C0180
0C0180
000000
ENDCHAR

STARTCHAR cns2_265D
ENCODING 9821
SWIDTH 960 0
DWIDTH 24 0
BBX 24 24 0 -2
BITMAP
000000
0E01C0
0C0180
0C0180
0C0180
0C0180
0E018C
2D3FFE
2D8180
2CC180
6C8180
4C0180
4C0180
4C1188
0C1FFC
0C181C
0C1818
0C1818
0C1818
0C1818
0C1818
0C1FF8
0C1818
000000
ENDCHAR

STARTCHAR cns2_265E
ENCODING 9822
SWIDTH 960 0
DWIDTH 24 0
BBX 24 24 0 -2
BITMAP
000000
0E000C
0C7FFE
0C0180
0C0180
0C0180
0E2184
0D3FFE
2DB18E
2CB18C
6C318C
6C338C
4C328C
4C32CC
0C366C
0C343C
0C382C
0C300C
0C300C
0C300C
0C300C
0C307C
0C3018
000000
ENDCHAR

STARTCHAR cns2_265F
ENCODING 9823
SWIDTH 960 0
DWIDTH 24 0
BBX 24 24 0 -2
BITMAP
000000
0E4008
0C7FFC
0C601C
0C6018
0C6018
0E6018
0F7FF8
2DE198
2D6180
6C6180
6C618C
4C7FFE
4C6180
0C6180
0C60C0
0C60C0
0C60C2
0C6062
0C6262
0C6C32
0C781E
0C300C
000000
ENDCHAR

STARTCHAR cns2_2660
ENCODING 9824
SWIDTH 960 0
DWIDTH 24 0
BBX 24 24 0 -2
BITMAP
000000
0E01C0
0C0190
0C018C
0C0186
0C0180
0E218C
0D3FFE
2DB180
2CB180
2C318E
6C318C
6C30CC
4C30D8
0C30D8
0C3070
0C3164
0C36E4
0C3DB4
0C1B36
0C0636
0C0C1E
0C300C
000000
ENDCHAR

STARTCHAR cns2_2661
ENCODING 9825
SWIDTH 960 0
DWIDTH 24 0
BBX 24 24 0 -2
BITMAP
000000
0E0000
0C0004
0C7FFE
0C060E
0C060C
2E0C0C
2D0C0C
6D9818
6C9818
4C31F0
4C6060
0D8000
0C4008
0C7FFC
0C601C
0C6018
0C6018
0C6018
0C6018
0C7FF8
0C6018
0C6018
000000
ENDCHAR

STARTCHAR cns2_2662
ENCODING 9826
SWIDTH 960 0
DWIDTH 24 0
BBX 24 24 0 -2
BITMAP
000000
0E0380
0C0300
0C0300
0C0300
0C0300
0E030C
2D03FE
2D8300
2CC300
6C8300
4C0300
4C0300
4C2308
0C3FFC
0C301C
0C3018
0C3018
0C3018
0C3018
0C3018
0C3FF8
0C3018
000000
ENDCHAR

STARTCHAR cns2_2663
ENCODING 9827
SWIDTH 960 0
DWIDTH 24 0
BBX 24 24 0 -2
BITMAP
000000
0E0000
0C1008
0C1FFC
0C181C
0C1818
0E1818
2D1818
2D9818
2C9818
6C1818
4C1FF8
4C1668
0C0660
0C0660
0C0C60
0C0C60
0C0C64
0C1864
0C1864
0C3066
0C607E
0D803C
000000
ENDCHAR

STARTCHAR cns2_2664
ENCODING 9828
SWIDTH 960 0
DWIDTH 24 0
BBX 24 24 0 -2
BITMAP
000000
0E2010
0C3FF8
0C3038
0C3030
0C3030
0E3030
0D3030
2DBFF0
2CB030
6C3030
6C3030
4C3030
4C3030
0C3FF0
0C3030
0C3030
0C3030
0C3030
0C3030
0C3034
0DFFFE
0C0000
000000
ENDCHAR

STARTCHAR cns2_2665
ENCODING 9829
SWIDTH 960 0
DWIDTH 24 0
BBX 24 24 0 -2
BITMAP
000000
0E01C0
0C0180
0C0180
0C0180
0C0180
0E2184
0D3FFE
2DB18E
2CB18C
6C318C
6C318C
4C318C
4C3FFC
0C318C
0C318C
0C318C
0C318C
0C318C
0C318C
0C3FFC
0C300C
0C300C
000000
ENDCHAR

STARTCHAR cns2_2666
ENCODING 9830
SWIDTH 960 0
DWIDTH 24 0
BBX 24 24 0 -2
BITMAP
000000
0E0000
0C4004
0C7FFE
0C66CE
0C66CC
0E66CC
0F66CC
2DE6CC
2D6CCC
6C6CCC
6C6CCC
4C68CC
0C78CC
0C70FC
0C706C
0C600C
0C600C
0C600C
0C600C
0C7FFC
0C600C
0C600C
000000
ENDCHAR

STARTCHAR cns2_2667
ENCODING 9831
SWIDTH 960 0
DWIDTH 24 0
BBX 24 24 0 -2
BITMAP
000000
0E0380
0C0300
0C3B00
0C3300
0C3318
0E7FFC
0F6300
2D4300
2C8300
6C030C
6CFFFE
4C0300
4C0300
0C0680
0C0680
0C0C40
0C0C40
0C1860
0C3030
0C6038
0CC01E
0D000C
000000
ENDCHAR

STARTCHAR cns2_2668
ENCODING 9832
SWIDTH 960 0
DWIDTH 24 0
BBX 24 24 0 -2
BITMAP
000000
0E1C00
0C1800
0C1800
0C300C
0C3FFE
0E2180
2D6180
2DC180
2C8198
6C01FC
4C0180
4C0180
0C0180
0C0198
0C01FC
0C0180
0C0180
0C0180
0C0180
0C0180
0C0180
0C0180
000000
ENDCHAR

STARTCHAR cns2_2669
ENCODING 9833
SWIDTH 960 0
DWIDTH 24 0
BBX 24 24 0 -2
BITMAP
000000
0E1C00
0C1800
0C1800
0C3004
0C3FFE
0E600E
0D400C
2DC00C
2CA08C
6D3FCC
6C31CC
4C318C
4C318C
0C318C
0C318C
0C3F8C
0C318C
0C000C
0C0018
0C0038
0C03F0
0C00E0
000000
ENDCHAR

STARTCHAR cns2_266A
ENCODING 9834
SWIDTH 960 0
DWIDTH 24 0
BBX 24 24 0 -2
BITMAP
000000
0E18E0
0C18C0
0C30C0
0C30C4
0C23FE
0E64CE
0D44CC
2D8CCC
2C88CC
6C48CC
6C68CC
4C38CC
4C10CC
0C30CC
0C698C
0C458C
0C9F8C
0DE70C
0C830C
0C061C
0C0CF8
0C3030
000000
ENDCHAR

STARTCHAR cns2_266B
ENCODING 9835
SWIDTH 960 0
DWIDTH 24 0
BBX 24 24 0 -2
BITMAP
000000
0E1800
0C1C00
0C1800
0C1800
0C3004
0E33FE
0EFE8E
2F328C
2D628C
6D624C
6C6458
4CC458
4CC438
0CC830
0DE830
0D9870
0C1C50
0C3458
0C26CC
0C428E
0C8104
0D0000
000000
ENDCHAR

STARTCHAR cns2_266C
ENCODING 9836
SWIDTH 960 0
DWIDTH 24 0
BBX 24 24 0 -2
BITMAP
000000
0E0380
0C0300
0C0300
0C3318
0C3330
0C1330
0F1B60
2D8FC0
2D8310
6C7FF8
6C0300
6C0300
0C0300
0C030C
0CFFFE
0C0300
0C0300
0C0300
0C0300
0C0300
0C0300
0C0300
000000
ENDCHAR

STARTCHAR cns2_266D
ENCODING 9837
SWIDTH 960 0
DWIDTH 24 0
BBX 24 24 0 -2
BITMAP
000000
0E000C
0C3FFE
0C00E0
0C00C0
0C01C0
0E0180
0D0180
2D8380
2C83E0
6C07B0
6C0598
4C0D8C
4C198E
0C1186
0C3186
0C6180
0C4180
0C8180
0C0180
0C018C
0C7FFE
0C0000
000000
ENDCHAR

STARTCHAR cns2_266E
ENCODING 9838
SWIDTH 960 0
DWIDTH 24 0
BBX 24 24 0 -2
BITMAP
000000
0E1C00
0C1800
0C1800
0C3004
0C3FFE
0E600E
0D600C
2DC08C
2CBFCC
6D31CC
6C318C
4C318C
4C318C
0C3F8C
0C301C
0C31F8
0C3030
0C3004
0C3004
0C3006
0C3FFE
0C1FFC
000000
ENDCHAR

STARTCHAR cns2_266F
ENCODING 9839
SWIDTH 960 0
DWIDTH 24 0
BBX 24 24 0 -2
BITMAP
000000
0E0380
0C0300
0C0680
0C0C40
0C1860
0E3030
0F6018
2D80CE
2D1FE4
6C0000
6C0000
4C0008
4C7FFC
0C001C
0C0018
0C0030
0C0060
0C10C0
0C0D80
0C0700
0C0380
0C0180
000000
ENDCHAR

STARTCHAR cns2_2670
ENCODING 9840
SWIDTH 960 0
DWIDTH 24 0
BBX 24 24 0 -2
BITMAP
000000
00E400
00C300
00C118
00FFFC
7FE000
0019C4
000F84
003E06
01E3FE
3E007C
006600
006180
00608C
007FFE
7FE000
0030E0
0019C0
000F04
001E04
007386
03C1FE
7C007C
000000
ENDCHAR

STARTCHAR cns2_2671
ENCODING 9841
SWIDTH 960 0
DWIDTH 24 0
BBX 24 24 0 -2
BITMAP
000000
0001E0
103FF0
1FE000
180008
1FFFFC
180018
180018
1FFFF8
1840D8
1830C0
1818C0
1818C0
18C0C0
1860C0
1830CE
1020F8
100FC0
33F8C0
21C0C0
4000C0
4000C0
0000C0
000000
ENDCHAR

STARTCHAR cns2_2672
ENCODING 9842
SWIDTH 960 0
DWIDTH 24 0
BBX 24 24 0 -2
BITMAP
000000
0E0300
0C01C0
0C10C4
0C1FFE
0D3006
7FB00C
0C6008
0C0000
0C0E70
0C0C60
0D0C60
0E0C60
1C0C60
7C0C60
6C0C60
0C0C60
0C0C60
0C0C64
0C1864
0C1866
7C307E
18C03C
000000
ENDCHAR

STARTCHAR cns2_2673
ENCODING 9843
SWIDTH 960 0
DWIDTH 24 0
BBX 24 24 0 -2
BITMAP
000000
0E3800
0C33B8
0C3330
0C3330
0D3330
7FB334
0CFFFE
0C3330
0C3330
0C3330
0D3330
0E3330
1C3330
7C3330
6C33F0
0C3330
0C3000
0C3000
0C300C
0C3FFE
7C3000
183000
000000
ENDCHAR

STARTCHAR cns2_2674
ENCODING 9844
SWIDTH 960 0
DWIDTH 24 0
BBX 24 24 0 -2
BITMAP
000000
0E1838
0C1830
0C1830
0C1830
0D1830
7F9834
0CFFFE
0C1830
0C1830
0C1830
0D9830
1E1830
7C1830
6C1FF0
0C1830
0C1830
0C1830
0C1830
0C1830
0C1830
7C1FF0
181830
000000
ENDCHAR

STARTCHAR cns2_2675
ENCODING 9845
SWIDTH 960 0
DWIDTH 24 0
BBX 24 24 0 -2
BITMAP
000000
0E01C0
0C0180
0C0180
0C0198
0D3FFC
7F8180
0C0180
0C0180
0C0180
0C018C
0D7FFE
0E0380
1C0300
7C0300
6C0620
0C0610
0C0C18
0C080C
0C10FC
0C7F8E
7C3806
180006
000000
ENDCHAR

STARTCHAR cns2_2676
ENCODING 9846
SWIDTH 960 0
DWIDTH 24 0
BBX 24 24 0 -2
BITMAP
000000
0E0380
0C0300
0C030C
0CFFFE
0D0600
7F8C00
0C0DC0
0C1980
0C1984
0C3FFE
0D318E
0E718C
1CF18C
7CB18C
6D318C
0C318C
0C318C
0C31BC
0C3198
0C0180
7C0180
180180
000000
ENDCHAR

STARTCHAR cns2_2677
ENCODING 9847
SWIDTH 960 0
DWIDTH 24 0
BBX 24 24 0 -2
BITMAP
000000
0E01C0
0C0180
0C1980
0C1980
0C1998
0D3FFC
7FB180
0C2180
0C2180
0C4180
0C018C
0D7FFE
0E0180
1C0340
7C0340
6C0360
0C0620
0C0630
0C0C18
0C181C
7C300E
18C004
000000
ENDCHAR

STARTCHAR cns2_2678
ENCODING 9848
SWIDTH 960 0
DWIDTH 24 0
BBX 24 24 0 -2
BITMAP
000000
0E0C1C
0C0E18
0C0C18
0C0C18
0C9818
7FD81A
0C3FFE
0C3818
0C7818
0CD818
0C1918
0D9998
1E18D8
7C18D8
6C1898
0C1818
0C1818
0C1818
0C1818
0C1818
7C18F8
181830
000000
ENDCHAR

STARTCHAR cns2_2679
ENCODING 9849
SWIDTH 960 0
DWIDTH 24 0
BBX 24 24 0 -2
BITMAP
000000
0E0180
0C0180
0C0340
0C0660
0D0C30
7F981C
0C608E
0C01C4
0C0300
0C0600
0D1860
0E00F0
1C01C0
7C0300
6C0C18
0C303C
0C0070
0C00E0
0C0380
0C0E00
7C3800
19C000
000000
ENDCHAR

STARTCHAR cns2_267A
ENCODING 9850
SWIDTH 960 0
DWIDTH 24 0
BBX 24 24 0 -2
BITMAP
000000
0E2008
0C3FFC
0C301C
0C3018
0D3018
7FB018
0C3FF8
0C3018
0C3000
0D3380
0E3300
1C3300
7C3318
6C33FC
0C3300
0C6300
0C6304
0C4304
0CC304
0C8306
7D03FE
1801FC
000000
ENDCHAR

STARTCHAR cns2_267B
ENCODING 9851
SWIDTH 960 0
DWIDTH 24 0
BBX 24 24 0 -2
BITMAP
000000
0E1010
0C1FF8
0C1838
0C1830
0D1830
7F9830
0C1830
0C1830
0C1FF0
0D1830
0E1830
1C1830
7C1830
6C1830
0C1FF0
0C1830
0C1830
0C1830
0C1830
0C1830
7C1834
18FFFE
000000
ENDCHAR

STARTCHAR cns2_267C
ENCODING 9852
SWIDTH 960 0
DWIDTH 24 0
BBX 24 24 0 -2
BITMAP
000000
0E01C0
0C0180
0C0180
0C0180
0D2184
7FBFFE
0C318E
0C318C
0C318C
0D318C
0E3FFC
1C318C
7C318C
6C318C
0C318C
0C3FFC
0C318C
0C0180
0C0180
0C0180
7C0180
180180
000000
ENDCHAR

STARTCHAR cns2_267D
ENCODING 9853
SWIDTH 960 0
DWIDTH 24 0
BBX 24 24 0 -2
BITMAP
000000
0E0380
0C0300
0C0300
0C4308
0D7FFC
7FE31C
0C6318
0C6318
0C6318
0C7FF8
0D6318
0E6318
1C6318
7C6318
6DFFFE
0C6018
0C6018
0C6018
0C6018
0C6018
7C60F8
186030
000000
ENDCHAR

STARTCHAR cns2_267E
ENCODING 9854
SWIDTH 960 0
DWIDTH 24 0
BBX 24 24 0 -2
BITMAP
000000
0E01C0
0C0180
0C0180
0C2184
0D3FFE
7FB18E
0C318C
0C318C
0C318C
0C318C
0D318C
0E318C
1C7FFE
7C0380
6C0380
0C06C0
0C06C0
0C0C60
0C0C70
0C1838
7C301E
18C00C
000000
ENDCHAR

STARTCHAR cns2_2721
ENCODING 10017
SWIDTH 960 0
DWIDTH 24 0
BBX 24 24 0 -2
BITMAP
000000
0E0018
0C01FC
0C0FE0
0CF000
0D0600
7F8300
0C0300
0C0108
0CFFFC
0D0038
0E0030
1C0060
7C00C0
6C0180
0C0300
0C0600
0C4C00
0C7000
0CB000
0D9800
7D0FFE
1803FC
000000
ENDCHAR

STARTCHAR cns2_2722
ENCODING 10018
SWIDTH 960 0
DWIDTH 24 0
BBX 24 24 0 -2
BITMAP
000000
0101C0
058180
0D8180
08C180
18C304
1063FE
307318
203A18
401518
3FF118
067118
066118
0661B0
0C60B0
0C60B0
0C60F0
186060
1860E0
3061B0
20E31C
47C60E
018804
000000
ENDCHAR

STARTCHAR cns2_2723
ENCODING 10019
SWIDTH 960 0
DWIDTH 24 0
BBX 24 24 0 -2
BITMAP
000000
00E018
38C47C
30C7C0
30C600
30C600
30C600
30C600
3FC60C
30C7FE
00C630
00C630
20C630
3FC630
30C630
30C630
30CC30
30CC30
30C830
30D830
20D030
20E030
40C030
000000
ENDCHAR

STARTCHAR cns2_2724
ENCODING 10020
SWIDTH 960 0
DWIDTH 24 0
BBX 24 24 0 -2
BITMAP
000000
0C0600
060700
060600
024C0C
7FEFFE
0C1800
0C2000
0C4410
0FE7F8
0CE638
0CC630
0CC630
0CC630
0CC630
18C630
18C630
18C630
10CC34
30CC34
21D836
4FB03E
03401C
000000
ENDCHAR

STARTCHAR cns2_2725
ENCODING 10021
SWIDTH 960 0
DWIDTH 24 0
BBX 24 24 0 -2
BITMAP
000000
000300
000180
4100C0
7F80C4
637FFE
630600
630600
630600
630608
6307FC
7F061C
630618
630618
630C18
630C18
630C18
631818
7F1818
631030
603070
0063E0
0080C0
000000
ENDCHAR

STARTCHAR cns2_2726
ENCODING 10022
SWIDTH 960 0
DWIDTH 24 0
BBX 24 24 0 -2
BITMAP
000000
000600
000300
410180
7F8084
63BFFE
630818
630818
630818
630818
630818
7F0430
630430
630630
630220
630260
630340
630180
7F03C0
630660
000C38
00181E
00600C
000000
ENDCHAR

STARTCHAR cns2_2727
ENCODING 10023
SWIDTH 960 0
DWIDTH 24 0
BBX 24 24 0 -2
BITMAP
000000
000000
00100C
411FFE
7F9800
639800
631800
631804
631FFE
631A0E
631A0C
7F1A0C
631918
631918
6318B0
6318B0
633060
6330E0
7F21B0
636318
00461C
008C0E
013004
000000
ENDCHAR

STARTCHAR cns2_2728
ENCODING 10024
SWIDTH 960 0
DWIDTH 24 0
BBX 24 24 0 -2
BITMAP
000000
001800
001C00
411800
7F9800
63B002
633FFE
632666
634666
638C66
630C66
7F0C66
6318C6
6318C6
6330C6
633186
636186
63C306
7F060C
630C0C
00181C
0061F8
038070
000000
ENDCHAR

STARTCHAR cns2_2729
ENCODING 10025
SWIDTH 960 0
DWIDTH 24 0
BBX 24 24 0 -2
BITMAP
000000
000030
0000F8
4093C0
7FDE00
61D800
619804
619FFE
61980E
61980C
61980C
7F980C
61980C
619FFC
61980C
619800
619800
619800
7F9800
61B000
003000
006000
018000
000000
ENDCHAR

STARTCHAR cns2_272A
ENCODING 10026
SWIDTH 960 0
DWIDTH 24 0
BBX 24 24 0 -2
BITMAP
000000
080010
0FFFF8
0C0038
0C0030
0FFFF0
0C0030
0C0030
0FFFF0
0C6030
003800
00180C
7FFFFE
0200C0
0100C0
018180
00C300
003C00
001800
007E00
01C3E0
07007E
78001C
000000
ENDCHAR

STARTCHAR cns2_272B
ENCODING 10027
SWIDTH 960 0
DWIDTH 24 0
BBX 24 24 0 -2
BITMAP
000000
080020
0FFFF0
0C0070
0C0060
0FFFE0
0C0060
0C0060
0FFFE0
0C0060
10000C
1FFFFE
180000
181C00
181800
181800
183400
183200
106300
30C1C0
218070
63003E
4C000C
000000
ENDCHAR

STARTCHAR cns2_272C
ENCODING 10028
SWIDTH 960 0
DWIDTH 24 0
BBX 24 24 0 -2
BITMAP
000000
0000E0
0003F0
007F80
03D800
1E1800
00300C
7FFFFE
006200
00C300
018180
0300E0
060078
18001E
67FFEC
060060
060060
07FFE0
060060
060060
060060
07FFE0
060060
000000
ENDCHAR

STARTCHAR cns2_272D
ENCODING 10029
SWIDTH 960 0
DWIDTH 24 0
BBX 24 24 0 -2
BITMAP
000000
202404
3FF7FE
30760E
30660C
30660C
30660C
30660C
30660C
30660C
30660C
3FE7FC
30660C
30660C
30660C
30660C
30660C
30660C
30660C
30660C
3FE7FC
30660C
300600
000000
ENDCHAR

STARTCHAR cns2_272E
ENCODING 10030
SWIDTH 960 0
DWIDTH 24 0
BBX 24 24 0 -2
BITMAP
000000
000010
00FFF8
000C38
430C30
7F0C30
630C60
630CC4
630DFE
630C0E
630C0C
630D0C
7F0D0C
630D0C
630D98
631898
6318D0
631870
633060
7F61B0
63C31C
000E0E
001804
000000
ENDCHAR

STARTCHAR cns2_272F
ENCODING 10031
SWIDTH 960 0
DWIDTH 24 0
BBX 24 24 0 -2
BITMAP
000000
0001C0
000180
63018C
7FBFFE
638180
630180
630180
63398E
63318C
63318C
7F318C
63318C
63318C
63318C
633FFC
63318C
633180
7F0184
630184
600186
0001FE
0000FC
000000
ENDCHAR

STARTCHAR cns2_2730
ENCODING 10032
SWIDTH 960 0
DWIDTH 24 0
BBX 24 24 0 -2
BITMAP
000000
000380
000300
410680
7F8640
638C60
630C30
63181C
63300E
63C064
631FF0
7F0000
630000
630008
633FFC
630018
630018
630030
7F0030
630060
000060
0000C0
0000C0
000000
ENDCHAR

STARTCHAR cns2_2731
ENCODING 10033
SWIDTH 960 0
DWIDTH 24 0
BBX 24 24 0 -2
BITMAP
000000
000180
000480
4106C0
7F8460
638C60
630830
631818
63300C
63600E
63BFFC
7F0318
630318
630318
630618
630618
630618
630C18
7F0C18
631818
003038
0061F0
008060
000000
ENDCHAR

STARTCHAR cns2_2732
ENCODING 10034
SWIDTH 960 0
DWIDTH 24 0
BBX 24 24 0 -2
BITMAP
000000
018000
01C000
018004
03FFFE
06318E
0C318C
18630C
60C30C
030618
0C0C18
303038
01C3F0
0E00E0
100008
1FFFFC
18001C
180018
1FFFF8
180018
180018
1FFFF8
180018
000000
ENDCHAR

STARTCHAR cns2_2733
ENCODING 10035
SWIDTH 960 0
DWIDTH 24 0
BBX 24 24 0 -2
BITMAP
000000
210000
3F8030
339FF8
330000
330000
330000
330000
3F0000
33000C
337FFE
330660
330660
3F0660
330660
330660
330660
330660
330C64
330C64
330C66
2F187E
46603C
000000
ENDCHAR

STARTCHAR cns2_2734
ENCODING 10036
SWIDTH 960 0
DWIDTH 24 0
BBX 24 24 0 -2
BITMAP
000000
07000C
067FFE
060C30
060C30
068C30
7FCC30
060C30
060C30
0E0C34
0E7FFE
1F0C30
168C30
36CC30
264C30
660C30
461830
461830
063030
063030
066030
064030
068030
000000
ENDCHAR

STARTCHAR cns2_2735
ENCODING 10037
SWIDTH 960 0
DWIDTH 24 0
BBX 24 24 0 -2
BITMAP
000000
0E0000
0C0030
0C3FF8
0C0000
0D0000
7F8000
0C0000
0C000C
0CFFFE
1C0CC0
1E0CC0
3D0CC0
2D8CC0
6C8CC0
4C0CC0
4C0CC4
0C08C4
0C18C4
0C18C4
0C30C6
0C60FE
0D807C
000000
ENDCHAR

STARTCHAR cns2_2736
ENCODING 10038
SWIDTH 960 0
DWIDTH 24 0
BBX 24 24 0 -2
BITMAP
000000
0E01C0
0C0180
0C0180
0C0188
0CBFFC
7FC180
0C0180
0C0180
1C0180
1C0180
3E018C
2D7FFE
6D8380
6C8380
4C06C0
4C0640
0C0C60
0C0C20
0C1830
0C3018
0C600E
0D8004
000000
ENDCHAR

STARTCHAR cns2_2737
ENCODING 10039
SWIDTH 960 0
DWIDTH 24 0
BBX 24 24 0 -2
BITMAP
000000
0E0000
0C0018
0C7FFC
0C0C00
0D0C60
7F8C60
0C1860
0C1860
1C3060
1C306C
3E3FFE
2D00E0
6D81E0
6C83E0
4C0760
4C0E60
0C1860
0C6060
0D8060
0C0060
0C0FE0
0C01C0
000000
ENDCHAR

STARTCHAR cns2_2738
ENCODING 10040
SWIDTH 960 0
DWIDTH 24 0
BBX 24 24 0 -2
BITMAP
000000
0701C0
060180
060180
060184
06BFFE
7FC180
060180
060180
0E1D9C
0F1998
1F9998
1ED998
16D998
361998
261FF8
261998
460180
060184
060184
060186
0601FE
0600FC
000000
ENDCHAR

STARTCHAR cns2_2739
ENCODING 10041
SWIDTH 960 0
DWIDTH 24 0
BBX 24 24 0 -2
BITMAP
000000
0E0000
0C0010
0C7FF8
0C0638
0D0630
7F8630
0C0630
0C0630
1C0C30
1E0C34
3D7FFE
2D8C30
6C8C30
6C0C30
4C0C60
4C1860
0C1860
0C1860
0C1860
0C1864
0CFFFE
0C0000
000000
ENDCHAR

STARTCHAR cns2_273A
ENCODING 10042
SWIDTH 960 0
DWIDTH 24 0
BBX 24 24 0 -2
BITMAP
000000
0E0380
0C0180
0C0180
0C0180
0C2184
0CBFFE
7FF18E
0C318C
0C318C
1F318C
1DB2CC
1CF24C
3CF66C
2C342C
6C381C
4C300C
4C300C
0C300C
0C300C
0C300C
0C307C
0C3018
000000
ENDCHAR

STARTCHAR cns2_273B
ENCODING 10043
SWIDTH 960 0
DWIDTH 24 0
BBX 24 24 0 -2
BITMAP
000000
070000
060038
0601FC
063F80
068300
7FC300
060300
060318
0E03FC
0F3F00
1E8300
16C300
36430C
2603FE
667F00
460300
460304
060304
060304
060306
0603FE
0601FC
000000
ENDCHAR

STARTCHAR cns2_273C
ENCODING 10044
SWIDTH 960 0
DWIDTH 24 0
BBX 24 24 0 -2
BITMAP
000000
0E0700
0C0600
0C0600
0C0C00
0C8C04
7FDFFE
0C180E
0C300C
1C260C
1C460C
3E040C
2D0C8C
6D884C
6C886C
4C11EC
4C3E6C
0C184C
0C000C
0C001C
0C0018
0C07F8
0C00F0
000000
ENDCHAR

STARTCHAR cns2_273D
ENCODING 10045
SWIDTH 960 0
DWIDTH 24 0
BBX 24 24 0 -2
BITMAP
000000
0E0700
0C0600
0C0600
0C0C00
0D0C04
7F9FFE
0C1986
0C3184
1C218C
1E4188
3D0180
2D8340
6C8340
6C0340
4C0660
4C0620
0C0C30
0C0C18
0C180C
0C300E
0C6006
0D8002
000000
ENDCHAR

STARTCHAR cns2_273E
ENCODING 10046
SWIDTH 960 0
DWIDTH 24 0
BBX 24 24 0 -2
BITMAP
000000
070000
060140
060360
060220
06C630
7FEC10
061818
06300E
0E4004
0E0030
1F3FF8
168600
36C600
264C08
661FFC
461818
460018
060018
060030
060070
0607E0
0601C0
000000
ENDCHAR

STARTCHAR cns2_273F
ENCODING 10047
SWIDTH 960 0
DWIDTH 24 0
BBX 24 24 0 -2
BITMAP
000000
070180
060080
0604C0
060C40
064860
7FD830
061018
06300C
0E200E
0F5FFC
0E8318
1EC318
166318
264318
260618
460618
460618
060C30
060C30
061870
0633E0
06C0C0
000000
ENDCHAR

STARTCHAR cns2_2740
ENCODING 10048
SWIDTH 960 0
DWIDTH 24 0
BBX 24 24 0 -2
BITMAP
000000
0E0000
0C0300
0C01C0
0C00E0
0D0060
7F8700
0C0600
0C0600
1C0610
1E1608
1D160C
3DB60C
2CA606
6C6606
4C6606
4CE610
0CC610
0C0610
0C0610
0C0618
0C07F8
0C03F0
000000
ENDCHAR

STARTCHAR cns2_2741
ENCODING 10049
SWIDTH 960 0
DWIDTH 24 0
BBX 24 24 0 -2
BITMAP
000000
070000
060018
060FFC
060000
06C000
7FE000
060000
0E000C
0E1FFE
170180
168180
26C180
266180
466300
060220
060610
060418
060C08
06087C
061F8C
061C06
060006
000000
ENDCHAR

STARTCHAR cns2_2742
ENCODING 10050
SWIDTH 960 0
DWIDTH 24 0
BBX 24 24 0 -2
BITMAP
000000
070018
061FFC
060180
060180
06C180
7FE180
060188
0E03FC
0E031C
170318
168318
26C618
266618
466618
0607F8
060C30
060C30
060030
060060
0600C0
0600CC
061FFE
000000
ENDCHAR

STARTCHAR cns2_2743
ENCODING 10051
SWIDTH 960 0
DWIDTH 24 0
BBX 24 24 0 -2
BITMAP
000000
0E0000
0C200C
0C3FFE
0C3000
0C3000
0CB408
7FF7FC
0C361C
1C3618
1F3618
1DB618
3DB618
2C3618
6C36F8
4C2630
4C6600
4C6600
0C4604
0C4604
0CC606
0C87FE
0C83FC
000000
ENDCHAR

STARTCHAR cns2_2744
ENCODING 10052
SWIDTH 960 0
DWIDTH 24 0
BBX 24 24 0 -2
BITMAP
000000
070700
060600
060600
060C00
06CC04
7FEFFE
06080E
0E100C
0E100C
17200C
16808C
26CFCC
26600C
46608C
060FCC
06000C
06000C
06000C
060018
060038
0603F0
0601C0
000000
ENDCHAR

STARTCHAR cns2_2745
ENCODING 10053
SWIDTH 960 0
DWIDTH 24 0
BBX 24 24 0 -2
BITMAP
000000
070030
060078
0601C0
060FC0
06C0C0
7FE0C0
0600C8
0E0FFC
0E00C0
1700C0
1680C0
26C0C0
2660C4
467FFE
0600C0
0600C0
0600C0
0600C0
0600C0
0600C0
0607C0
060180
000000
ENDCHAR

STARTCHAR cns2_2746
ENCODING 10054
SWIDTH 960 0
DWIDTH 24 0
BBX 24 24 0 -2
BITMAP
000000
070010
063FF8
060C38
060C30
068C30
7FCC30
060C60
060C64
0E0FFE
0E0D0E
1F0D0C
168D0C
36C998
264898
6618F0
461860
463060
0620F0
066198
06430C
068C0E
063004
000000
ENDCHAR

STARTCHAR cns2_2747
ENCODING 10055
SWIDTH 960 0
DWIDTH 24 0
BBX 24 24 0 -2
BITMAP
000000
071020
061FF0
061870
061860
069860
7FD860
061060
06307E
0E403C
0E0000
1F0008
16BFFC
36D038
264830
660C60
4606C0
460380
060380
0606E0
060C78
06301E
06C00C
000000
ENDCHAR

STARTCHAR cns2_2748
ENCODING 10056
SWIDTH 960 0
DWIDTH 24 0
BBX 24 24 0 -2
BITMAP
000000
0E0DC0
0C0D80
0C0D80
0C1980
0D1980
7FB980
0C3180
0C718C
0C59FE
1C9980
1E1980
3D1980
2D9980
6C9980
4C1984
4C1984
0C1984
0C1984
0C1986
0C19FE
0C18FC
0C1800
000000
ENDCHAR

STARTCHAR cns2_2749
ENCODING 10057
SWIDTH 960 0
DWIDTH 24 0
BBX 24 24 0 -2
BITMAP
000000
0E0380
0C0300
0C0680
0C0CC0
0D0C60
7F9838
0C301E
0C404C
1C0FE0
1E0000
3D0000
2D8008
6C9FFC
4C0018
4C0018
0C0030
0C0030
0C0060
0C0060
0C00C0
0C0180
0C0180
000000
ENDCHAR

STARTCHAR cns2_274A
ENCODING 10058
SWIDTH 960 0
DWIDTH 24 0
BBX 24 24 0 -2
BITMAP
000000
000700
208600
3FC600
31CC04
318FFE
318806
31998C
319190
31A180
3F8180
318180
318340
318340
318340
318660
318660
3F8C20
318C30
301818
00301C
00600E
008004
000000
ENDCHAR

STARTCHAR cns2_274B
ENCODING 10059
SWIDTH 960 0
DWIDTH 24 0
BBX 24 24 0 -2
BITMAP
000000
000018
00C0FC
7FEFC0
0C0180
0C0180
0C0180
0C4180
0FE180
18E184
10DFFE
30C180
28C180
6CC340
478340
018360
030660
030620
060C30
041818
0C301C
18600E
618004
000000
ENDCHAR

STARTCHAR cns2_274C
ENCODING 10060
SWIDTH 960 0
DWIDTH 24 0
BBX 24 24 0 -2
BITMAP
000000
000C00
018E00
7FCC00
180C00
181804
191FFE
1F936E
13B36C
33266C
23466C
33066C
5B0CCC
4B0CCC
0618CC
06318C
06618C
0C830C
0C0618
180C18
101838
2061F0
418060
000000
ENDCHAR

STARTCHAR cns2_274D
ENCODING 10061
SWIDTH 960 0
DWIDTH 24 0
BBX 24 24 0 -2
BITMAP
000000
380700
300600
30C618
3FE7FC
300600
300600
300604
306606
3387FE
3E03FC
180000
0000F0
003FF8
3FF000
003010
003FF8
3FF000
003FFC
7FF002
003002
003FFE
001FFC
000000
ENDCHAR

STARTCHAR cns2_274E
ENCODING 10062
SWIDTH 960 0
DWIDTH 24 0
BBX 24 24 0 -2
BITMAP
000000
0E0000
0C0060
1FFFF0
180000
300080
47FFC0
000000
000020
3FFFF0
000070
01C060
20C160
3FFF60
30C330
31E332
336332
363332
381B1A
30031A
30030E
301F0E
300604
000000
ENDCHAR

STARTCHAR cns2_274F
ENCODING 10063
SWIDTH 960 0
DWIDTH 24 0
BBX 24 24 0 -2
BITMAP
000000
001C00
009818
3F9838
019860
019AC0
031980
0318C0
061860
061838
0C181E
18F80C
643020
07FFF0
060070
060060
060060
07FFE0
060060
060060
060060
07FFE0
060060
000000
ENDCHAR

STARTCHAR cns2_2750
ENCODING 10064
SWIDTH 960 0
DWIDTH 24 0
BBX 24 24 0 -2
BITMAP
000000
300600
180300
182104
0A3FFE
02600C
02C018
640000
340180
3408C0
0C0CC0
080CC0
180CE0
180C60
181860
781860
301860
303030
303030
306018
18601C
18400E
188004
000000
ENDCHAR

STARTCHAR cns2_2751
ENCODING 10065
SWIDTH 960 0
DWIDTH 24 0
BBX 24 24 0 -2
BITMAP
000000
000600
300300
18010C
18FFFE
000600
000600
600C00
32D830
327030
063060
041860
0C0CC0
0C0EC0
180580
180300
780230
300618
300C0C
18183C
18FFCE
187806
180006
000000
ENDCHAR

STARTCHAR cns2_2752
ENCODING 10066
SWIDTH 960 0
DWIDTH 24 0
BBX 24 24 0 -2
BITMAP
000000
180380
0C0300
0C030C
01430C
012318
013310
621320
320308
367FFC
060300
0C0300
0C0300
0C0300
18030C
18FFFE
780300
300300
300300
180300
180300
180300
180300
000000
ENDCHAR

STARTCHAR cns2_2753
ENCODING 10067
SWIDTH 960 0
DWIDTH 24 0
BBX 24 24 0 -2
BITMAP
000000
180018
0C7FFC
0C0300
010300
01430E
01630C
623318
323318
361B30
060B20
0C0300
0C030C
0CFFFE
180300
180300
780300
300300
300300
180300
180300
180300
180300
000000
ENDCHAR

STARTCHAR cns2_2754
ENCODING 10068
SWIDTH 960 0
DWIDTH 24 0
BBX 24 24 0 -2
BITMAP
000000
300000
180030
183FF8
0A0000
020000
020000
640000
34000C
35FFFE
0C0300
080300
181340
183B30
183318
78631C
30C30E
318306
360306
300300
180300
180300
180300
000000
ENDCHAR

STARTCHAR cns2_2755
ENCODING 10069
SWIDTH 960 0
DWIDTH 24 0
BBX 24 24 0 -2
BITMAP
000000
003838
303030
183030
0C3030
083030
003034
01FFFE
613030
313030
323030
023030
063030
063FF0
0C3030
183030
783030
303030
303030
183030
183FF0
183030
183030
000000
ENDCHAR

STARTCHAR cns2_2756
ENCODING 10070
SWIDTH 960 0
DWIDTH 24 0
BBX 24 24 0 -2
BITMAP
000000
000300
180330
0C0318
040318
000300
000304
62FFFE
320300
320300
043330
043330
0C3330
0C3330
1C3330
183330
786330
386330
306330
30C33E
19031C
180300
180300
000000
ENDCHAR

STARTCHAR cns2_2757
ENCODING 10071
SWIDTH 960 0
DWIDTH 24 0
BBX 24 24 0 -2
BITMAP
000000
3001C0
180198
18018C
0A0180
02818C
02FFFE
64C180
34C180
34C180
0CC18E
08C18C
18C18C
18C198
18C198
78C190
30C1E0
30CCC0
30F8C4
33E1E4
198364
18063E
18181C
000000
ENDCHAR

STARTCHAR cns2_2758
ENCODING 10072
SWIDTH 960 0
DWIDTH 24 0
BBX 24 24 0 -2
BITMAP
000000
300E00
180C60
180C30
0A0C04
02FFFE
020C00
640C00
340C1C
340C18
0C0E18
081A18
181B10
1819B0
1819B0
7830E0
3030C0
3060E0
3041B0
388318
19061C
1A180E
182004
000000
ENDCHAR

STARTCHAR cns2_2759
ENCODING 10073
SWIDTH 960 0
DWIDTH 24 0
BBX 24 24 0 -2
BITMAP
000000
0108E0
31FCC0
198CC0
1998C0
0190C4
0393FE
63A0CE
3390CC
3590CC
0D98CC
0D98CC
198CCC
198CCC
198CCC
798D8C
31F98C
31B18C
31830C
19830C
198618
198CF8
199030
000000
ENDCHAR

STARTCHAR cns2_275A
ENCODING 10074
SWIDTH 960 0
DWIDTH 24 0
BBX 24 24 0 -2
BITMAP
000000
008004
30FFFE
18C00E
0CC00C
00C00C
02C84C
62CFEC
32CCCC
34CCCC
04CCCC
0CCCCC
08CCCC
18CCCC
18CFCC
18CCCC
78C00C
30C00C
30C00C
18C00C
18C00C
18C07C
18C018
000000
ENDCHAR

STARTCHAR cns2_275B
ENCODING 10075
SWIDTH 960 0
DWIDTH 24 0
BBX 24 24 0 -2
BITMAP
000000
300000
188004
18FFFE
0AC30E
02C30C
02C30C
64C30C
34C30C
34C30C
0CC30C
08C30C
18FFFC
18C30C
18C30C
18C30C
78C30C
30C30C
30C30C
30C30C
18C30C
18FFFC
18C00C
000000
ENDCHAR

STARTCHAR cns2_275C
ENCODING 10076
SWIDTH 960 0
DWIDTH 24 0
BBX 24 24 0 -2
BITMAP
000000
301800
181C00
181800
0A3004
027FFE
02600E
64400C
34800C
35108C
0C1FCC
0819CC
18198C
18198C
18198C
78198C
301F8C
30198C
30000C
300018
180038
1803F0
1800E0
000000
ENDCHAR

STARTCHAR cns2_275D
ENCODING 10077
SWIDTH 960 0
DWIDTH 24 0
BBX 24 24 0 -2
BITMAP
000000
300380
1C6300
0C7300
006300
026310
62FFF8
32C300
348300
050300
040300
04030C
0DFFFE
0C0700
180680
180680
780CC0
300C40
301860
301830
18301C
18600E
198004
000000
ENDCHAR

STARTCHAR cns2_275E
ENCODING 10078
SWIDTH 960 0
DWIDTH 24 0
BBX 24 24 0 -2
BITMAP
000000
301838
181830
181830
0A3030
023030
026030
646034
34CFFE
35C030
0D6030
0A6030
186630
186330
186330
786030
306030
306030
306030
306030
186030
1861F0
186060
000000
ENDCHAR

STARTCHAR cns2_275F
ENCODING 10079
SWIDTH 960 0
DWIDTH 24 0
BBX 24 24 0 -2
BITMAP
000000
2001C0
180180
0C0198
0C21FC
003F80
603180
323180
323180
026184
047FFE
04618E
0C038C
08078C
18078C
180D8C
780D8C
3019BC
303188
186180
198180
180180
180180
000000
ENDCHAR

STARTCHAR cns2_2760
ENCODING 10080
SWIDTH 960 0
DWIDTH 24 0
BBX 24 24 0 -2
BITMAP
000000
30001C
1841FE
1A7F10
0A6310
026310
646310
346310
346310
0C6310
086318
186318
186318
186608
786608
30660C
30640C
30C44C
30C826
1889E6
18BF36
191C32
190022
000000
ENDCHAR

STARTCHAR cns2_2761
ENCODING 10081
SWIDTH 960 0
DWIDTH 24 0
BBX 24 24 0 -2
BITMAP
000000
20001C
18007E
0C11E0
0C1E00
001800
401800
311804
191FFE
1B1860
021860
061860
041860
0C1870
181878
18106C
783066
303066
302060
186060
18C060
190060
180060
000000
ENDCHAR

STARTCHAR cns2_2762
ENCODING 10082
SWIDTH 960 0
DWIDTH 24 0
BBX 24 24 0 -2
BITMAP
000000
000300
300300
1C0680
0C0CC0
001860
013038
61411E
31038C
320600
020C00
0430C0
0C01E0
0C0380
180600
181830
786078
3000E0
3001C0
180700
181C00
187000
1B8000
000000
ENDCHAR

STARTCHAR cns2_2763
ENCODING 10083
SWIDTH 960 0
DWIDTH 24 0
BBX 24 24 0 -2
BITMAP
000000
0380E0
0300C0
0300C0
1310C0
3FF8C0
6318C0
2310CE
032FD8
0300E0
0300C0
0301E0
0301D0
0682D8
06BCCE
06C0C4
0CC0C0
0C60C0
0C63C4
186184
183006
303FFE
400FFC
000000
ENDCHAR

STARTCHAR cns2_2764
ENCODING 10084
SWIDTH 960 0
DWIDTH 24 0
BBX 24 24 0 -2
BITMAP
000000
030060
020040
020040
022044
0B3166
7B2764
0AA154
0AC158
0A8150
0AC158
124148
124248
124248
32664C
22644C
622C44
422844
020040
020040
020040
0E01C0
040080
000000
ENDCHAR

STARTCHAR cns2_2765
ENCODING 10085
SWIDTH 960 0
DWIDTH 24 0
BBX 24 24 0 -2
BITMAP
000000
01C000
018008
0187FC
018018
018030
058CC0
3DDE70
0DD830
0DE000
0DCFFE
0DE066
0DA06C
19A060
19A060
19B060
119860
119860
719E60
018C60
018060
0F83E0
0300C0
000000
ENDCHAR

STARTCHAR cns2_2766
ENCODING 10086
SWIDTH 960 0
DWIDTH 24 0
BBX 24 24 0 -2
BITMAP
000000
300380
180300
0C4304
0C7FFE
00C00C
02C018
628000
320000
340018
047FFC
040300
080300
080300
180300
180300
380300
700300
300300
300300
180300
183F00
180E00
000000
ENDCHAR

STARTCHAR cns2_2767
ENCODING 10087
SWIDTH 960 0
DWIDTH 24 0
BBX 24 24 0 -2
BITMAP
000000
180004
0E7FFE
06000E
00000C
00004C
613FEC
31000C
31000C
03208C
023FCC
0631CC
06318C
0C318C
0C318C
1C318C
783F8C
38318C
18000C
18000C
0C000C
0C007C
0C0018
000000
ENDCHAR

STARTCHAR cns2_2768
ENCODING 10088
SWIDTH 960 0
DWIDTH 24 0
BBX 24 24 0 -2
BITMAP
000000
30000C
18FFFE
183000
003000
003000
023000
623008
323FFC
34301C
043018
043018
083018
083018
183018
183FF8
783018
303000
303000
303000
183000
18300C
18FFFE
000000
ENDCHAR

STARTCHAR cns2_2769
ENCODING 10089
SWIDTH 960 0
DWIDTH 24 0
BBX 24 24 0 -2
BITMAP
000000
300380
180300
180300
0A0300
02030C
02FFFE
640300
340700
340780
0C0F80
080F40
181B60
181B20
183330
783318
30635C
30DFEE
310304
300300
180300
180300
180300
000000
ENDCHAR

STARTCHAR cns2_276A
ENCODING 10090
SWIDTH 960 0
DWIDTH 24 0
BBX 24 24 0 -2
BITMAP
000000
307000
186000
186000
0A6284
03FEFE
0266CE
6666CC
3466CC
3466CC
0C66CC
0866CC
1866CC
1866CC
1866CC
7866CC
3046CC
30C6CC
30C6CC
308CFC
198CCC
193CCC
181800
000000
ENDCHAR

STARTCHAR cns2_276B
ENCODING 10091
SWIDTH 960 0
DWIDTH 24 0
BBX 24 24 0 -2
BITMAP
000000
180000
0E000C
067FFE
000180
000180
610300
310300
310600
030600
020C04
061FFE
063C0E
0C6C0C
0D8C0C
1C0C0C
780C0C
380C0C
180C0C
180C0C
0C0C0C
0C0FFC
0C0C0C
000000
ENDCHAR

STARTCHAR cns2_276C
ENCODING 10092
SWIDTH 960 0
DWIDTH 24 0
BBX 24 24 0 -2
BITMAP
000000
602010
303FF8
303038
003030
003030
013030
013030
313030
193FF0
193030
033030
063030
063030
0E3030
0C3030
0C3030
183FF0
183030
780000
300000
30000C
30FFFE
000000
ENDCHAR

STARTCHAR cns2_276D
ENCODING 10093
SWIDTH 960 0
DWIDTH 24 0
BBX 24 24 0 -2
BITMAP
000000
300380
180300
180300
0A0300
02731C
026318
646318
346318
346318
0C6318
087FF8
186318
180300
180300
18E30E
78C30C
30C30C
30C30C
30C30C
18C30C
18FFFC
18C00C
000000
ENDCHAR

STARTCHAR cns2_276E
ENCODING 10094
SWIDTH 960 0
DWIDTH 24 0
BBX 24 24 0 -2
BITMAP
000000
1801C0
0E3980
063180
003180
003198
613FFC
313180
316180
036180
02C180
068180
060198
0C3FFC
0C0180
1C0180
780180
380180
180180
180180
0C018C
0C7FFE
0C0000
000000
ENDCHAR

STARTCHAR cns2_276F
ENCODING 10095
SWIDTH 960 0
DWIDTH 24 0
BBX 24 24 0 -2
BITMAP
000000
3030E0
1830C0
1830C0
0060C0
0060C0
0046C4
02C7FE
0386CE
018CCC
30CCCC
18D8CC
1818CC
0210CC
0220CC
06C0CC
0C84CC
0D0ECC
0BF78C
1B818C
78030C
30067C
300C18
000000
ENDCHAR

STARTCHAR cns2_2770
ENCODING 10096
SWIDTH 960 0
DWIDTH 24 0
BBX 24 24 0 -2
BITMAP
000000
0E0700
0C0600
0C0600
0C4600
0CC610
4CBFF8
4D8638
6D0630
6E0630
2C0630
2C0634
0CFFFE
0C0600
0C0D00
0E0D00
0B0D80
199880
1998C0
10B060
306038
20C01E
43000C
000000
ENDCHAR

STARTCHAR cns2_2771
ENCODING 10097
SWIDTH 960 0
DWIDTH 24 0
BBX 24 24 0 -2
BITMAP
000000
070018
0608FC
060FC0
060C00
064C00
46CC00
468C00
670C04
660FFE
260C30
260C30
060C30
060C30
060C30
0E1830
0D1830
099830
09B030
18A030
106030
204030
400030
000000
ENDCHAR

STARTCHAR cns2_2772
ENCODING 10098
SWIDTH 960 0
DWIDTH 24 0
BBX 24 24 0 -2
BITMAP
000000
080010
0FFFF8
0C0038
0C0030
0C0030
0FFFF0
0C0030
0C0030
0C0030
0FFFF0
0C0030
001C08
08181C
0C1818
061830
0734C0
033300
006180
00C0C0
038070
0E003E
78001C
000000
ENDCHAR

STARTCHAR cns2_2773
ENCODING 10099
SWIDTH 960 0
DWIDTH 24 0
BBX 24 24 0 -2
BITMAP
000000
070038
060030
060030
060830
066630
466330
46C230
670030
661030
260C30
260630
060630
060034
07003E
0D81F0
0CDE30
08C030
184030
100030
200030
200030
400030
000000
ENDCHAR

STARTCHAR cns2_2774
ENCODING 10100
SWIDTH 960 0
DWIDTH 24 0
BBX 24 24 0 -2
BITMAP
000000
070300
060180
060180
06008C
065FFE
466418
464418
66C418
668418
270418
260230
060230
060230
060360
0D8160
0CC1C0
0CE1C0
084340
180660
100C30
20183E
40600C
000000
ENDCHAR

STARTCHAR cns2_2775
ENCODING 10101
SWIDTH 960 0
DWIDTH 24 0
BBX 24 24 0 -2
BITMAP
000000
070000
060010
061FF8
060338
064330
466330
464330
66C330
670330
260334
263FFE
060330
060330
060330
0D8330
0CC330
0CE630
084630
180630
100634
203FFE
400000
000000
ENDCHAR

STARTCHAR cns2_2776
ENCODING 10102
SWIDTH 960 0
DWIDTH 24 0
BBX 24 24 0 -2
BITMAP
000000
0E0380
0C0300
0C0300
0C0300
0C830C
4CFFFE
4C8300
6D8700
6D0780
2E0F80
2C0F40
0C1B60
0C1B20
0C3330
0C3318
1B431C
19830E
198304
108300
300300
200300
400300
000000
ENDCHAR

STARTCHAR cns2_2777
ENCODING 10103
SWIDTH 960 0
DWIDTH 24 0
BBX 24 24 0 -2
BITMAP
000000
0700E0
0600C0
0600C0
0600CC
064FFE
4660C0
4640C0
66C0C0
668ECE
270CCC
260CCC
060CCC
060CCC
060CCC
0D8FFC
0CCCCC
0CECC0
0840C0
1800C4
1000C4
2000FE
40007C
000000
ENDCHAR

STARTCHAR cns2_2778
ENCODING 10104
SWIDTH 960 0
DWIDTH 24 0
BBX 24 24 0 -2
BITMAP
000000
0E0380
0C0D80
0C0C80
0C0CC0
2C0CC0
2D8860
2D9830
2F1030
6C1318
6C239E
6C230C
0C0300
0C0600
0C0600
0C0600
0C0440
1A0C20
190830
1188F0
313F98
203C18
400000
000000
ENDCHAR

STARTCHAR cns2_2779
ENCODING 10105
SWIDTH 960 0
DWIDTH 24 0
BBX 24 24 0 -2
BITMAP
000000
000380
000300
410300
7F8300
63A308
63331C
633318
631B30
631B30
630340
7F0300
630300
630300
630680
630680
630CC0
6308C0
7F1860
633070
006038
00C01E
03000C
000000
ENDCHAR

STARTCHAR cns2_277A
ENCODING 10106
SWIDTH 960 0
DWIDTH 24 0
BBX 24 24 0 -2
BITMAP
000000
01C300
0300C0
060060
0C0038
1BFFDE
6060CC
0060C0
00C0C0
00C0C0
018180
060F80
380300
001C08
0C181C
0C1818
061830
073640
033300
0061C0
01C0F0
07007E
7C001C
000000
ENDCHAR

STARTCHAR cns2_277B
ENCODING 10107
SWIDTH 960 0
DWIDTH 24 0
BBX 24 24 0 -2
BITMAP
000000
038070
030060
030060
1B0360
1B0360
1B4368
1FE3FC
330660
430860
030060
030060
030060
032064
3FF7FE
030060
030060
030060
030060
030060
030060
030060
030060
000000
ENDCHAR

STARTCHAR cns2_277C
ENCODING 10108
SWIDTH 960 0
DWIDTH 24 0
BBX 24 24 0 -2
BITMAP
000000
018300
218180
1B2084
0E7FFE
0C6006
14C00C
260008
460180
060180
060180
0F00C0
0F18C0
1B1CC0
131840
331840
231860
433020
033030
036010
064018
3EC00E
0D8004
000000
ENDCHAR

STARTCHAR cns2_277D
ENCODING 10109
SWIDTH 960 0
DWIDTH 24 0
BBX 24 24 0 -2
BITMAP
000000
010030
211FF8
130000
0A0000
0E000C
0C7FFE
1E0180
320180
430180
030990
070998
0F1998
1B118C
13318C
23318C
436186
034186
068186
060180
0E0180
7C0180
180180
000000
ENDCHAR

STARTCHAR cns2_277E
ENCODING 10110
SWIDTH 960 0
DWIDTH 24 0
BBX 24 24 0 -2
BITMAP
000000
0301C0
230198
16018C
1E0180
0C218C
1C3FFE
363180
463180
063180
0E3188
0F318C
1B318C
3330D8
2330D8
4330D0
033060
033064
033364
063CE4
0C19B6
7C031E
180C0C
000000
ENDCHAR

STARTCHAR cns2_2821
ENCODING 10273
SWIDTH 960 0
DWIDTH 24 0
BBX 24 24 0 -2
BITMAP
000000
030000
23000C
167FFE
1E0060
0C0060
1C00C0
3600C0
460180
060380
0E07C0
0F07B0
1B0D98
33198C
23318E
43C186
030180
030180
030180
060180
0C018C
7C7FFE
180000
000000
ENDCHAR

STARTCHAR cns2_2822
ENCODING 10274
SWIDTH 960 0
DWIDTH 24 0
BBX 24 24 0 -2
BITMAP
000000
0181C0
218180
130180
0F0180
06018C
0E3FFE
1B0180
230180
430180
070180
079188
0D9FFC
19981C
119818
219818
419818
019818
019818
031818
061FF8
3E1818
0C1818
000000
ENDCHAR

STARTCHAR cns2_2823
ENCODING 10275
SWIDTH 960 0
DWIDTH 24 0
BBX 24 24 0 -2
BITMAP
000000
030EE0
630CC0
360CC8
1C7FFC
1C0CDC
2C0CD8
464CD8
067FF8
066CD8
0E6CC0
0ECCC0
1ECCC4
36FFFE
46CCCE
060CCC
060CCC
0618CC
0618FC
0630D8
0C30C0
7C60C0
1980C0
000000
ENDCHAR

STARTCHAR cns2_2824
ENCODING 10276
SWIDTH 960 0
DWIDTH 24 0
BBX 24 24 0 -2
BITMAP
000000
030000
232008
163FFC
1E301C
0C3018
1C3018
363FF8
463018
063000
0E3380
0F3300
1B3300
333310
2333F8
432300
036300
036304
034304
064304
0CC306
7C83FE
1901FC
000000
ENDCHAR

STARTCHAR cns2_2825
ENCODING 10277
SWIDTH 960 0
DWIDTH 24 0
BBX 24 24 0 -2
BITMAP
000000
018000
219008
131FFC
0F181C
061818
0E1818
1B1818
231818
431FF8
071818
079818
0D9818
199818
119818
219818
419FF8
019818
018000
030000
06000C
3E3FFE
0C0000
000000
ENDCHAR

STARTCHAR cns2_2826
ENCODING 10278
SWIDTH 960 0
DWIDTH 24 0
BBX 24 24 0 -2
BITMAP
000000
0180E0
2180C0
130CC0
0F0CC0
060CD8
0E1FFC
1B18C0
2318C0
4310C0
0720C0
07A0C0
0D80C8
199FFC
1180C0
2180C0
4180C0
0180C0
0180C0
0300C0
0600CC
3E3FFE
0C0000
000000
ENDCHAR

STARTCHAR cns2_2827
ENCODING 10279
SWIDTH 960 0
DWIDTH 24 0
BBX 24 24 0 -2
BITMAP
000000
030700
230600
160D00
1E18C0
0C3070
1C601E
36800C
460040
061FE0
0E0000
0F0000
1B0010
337FF8
230018
430030
030030
030060
0310C0
060D80
0C0700
7C0380
180180
000000
ENDCHAR

STARTCHAR cns2_2828
ENCODING 10280
SWIDTH 960 0
DWIDTH 24 0
BBX 24 24 0 -2
BITMAP
000000
0001C0
000180
030180
7F81BC
0C03F0
0C3F80
0C0180
0C0180
0C0198
0D3FFC
7F8180
0C0180
0C0180
0C018C
0C7FFE
0C0180
0C0180
0F8180
7C0180
700180
000180
000180
000000
ENDCHAR

STARTCHAR cns2_2829
ENCODING 10281
SWIDTH 960 0
DWIDTH 24 0
BBX 24 24 0 -2
BITMAP
000000
000008
01BFFC
7FC600
0C0630
0C0630
0C0630
0C0630
0C0630
0C0C30
0D8C34
7FCFFE
0C0070
0C00F0
0C00B0
0C01B0
0C0330
0C0630
0CCC30
0F1830
7C6030
7003F0
0000E0
000000
ENDCHAR

STARTCHAR cns2_282A
ENCODING 10282
SWIDTH 960 0
DWIDTH 24 0
BBX 24 24 0 -2
BITMAP
000000
0038E0
0330C0
7FB0C0
0C30C0
0C30C0
0C30C0
0C34C8
0C3EFC
0C30C0
0D30C0
7FB0C0
0C30C0
0C30C0
0C30C0
0C30C0
0C30C0
0C30C4
0CB0C4
0F32C4
7C34C6
703CFE
00187C
000000
ENDCHAR

STARTCHAR cns2_282B
ENCODING 10283
SWIDTH 960 0
DWIDTH 24 0
BBX 24 24 0 -2
BITMAP
000000
000700
018600
7FC600
0C0610
0C7FF8
0C0638
0C0630
0C0630
0D0630
7F8630
0C0634
0CFFFE
0C0600
0C0D00
0C0D00
0C1880
0CD8C0
0F3060
7C3030
706038
00C01E
03000C
000000
ENDCHAR

STARTCHAR cns2_282C
ENCODING 10284
SWIDTH 960 0
DWIDTH 24 0
BBX 24 24 0 -2
BITMAP
000000
000180
018080
7FC4C0
0C0640
0C0C30
0C0C18
0C180E
0C3004
0C4008
0D1FFC
7F831C
0C0318
0C0318
0C0318
0C0618
0C0618
0C0618
0F8C18
7C0C18
701838
0031F0
00C060
000000
ENDCHAR

STARTCHAR cns2_282D
ENCODING 10285
SWIDTH 960 0
DWIDTH 24 0
BBX 24 24 0 -2
BITMAP
000000
000180
018180
7FC340
0C0620
0C0630
0C0C10
0C1818
0C300C
0C6E6E
0D4C64
7F8C60
0C0C60
0C0C60
0C0C60
0C0C60
0C0860
0CD860
0F1860
7C3060
703060
006060
008060
000000
ENDCHAR

STARTCHAR cns2_282E
ENCODING 10286
SWIDTH 960 0
DWIDTH 24 0
BBX 24 24 0 -2
BITMAP
000000
000808
030FFC
7F8C1C
0C0C18
0C0C18
0C0D98
0C0CD8
0C0CD8
0C0C18
0D0C18
7FBFFE
0C0C18
0C0C18
0C0C18
0C0C18
0C1818
0C1818
0C9818
0F1018
7C3018
7020F8
004030
000000
ENDCHAR

STARTCHAR cns2_282F
ENCODING 10287
SWIDTH 960 0
DWIDTH 24 0
BBX 24 24 0 -2
BITMAP
000000
000E00
020C00
7F1800
181808
181FFC
183180
182180
186180
184180
1A8180
7F0180
180184
187FFE
180180
180180
180180
180180
1B0180
1C0180
780180
600180
000180
000000
ENDCHAR

STARTCHAR cns2_2830
ENCODING 10288
SWIDTH 960 0
DWIDTH 24 0
BBX 24 24 0 -2
BITMAP
000000
003000
10F980
1F91C0
199184
1993FE
19930E
19960C
19980C
19918C
1990CC
1990EC
19906C
19100C
11100C
13181C
1218F8
328830
224C00
24C600
2F6380
4C21FE
40007C
000000
ENDCHAR

STARTCHAR cns2_2831
ENCODING 10289
SWIDTH 960 0
DWIDTH 24 0
BBX 24 24 0 -2
BITMAP
000000
00000C
001FFE
00C600
7FE600
060600
060608
0607FC
06061C
060618
060618
060518
060D98
060DB0
060CB0
060C30
060C30
066832
079832
7E19B2
3C1E36
003C3E
00181C
000000
ENDCHAR

STARTCHAR cns2_2832
ENCODING 10290
SWIDTH 960 0
DWIDTH 24 0
BBX 24 24 0 -2
BITMAP
000000
0000C0
402070
7FF030
667FFE
666300
666300
666300
666300
666300
7FE300
666300
666300
666300
666300
666300
666300
666300
7FE300
606300
6003FE
0001FC
000000
000000
ENDCHAR

STARTCHAR cns2_2833
ENCODING 10291
SWIDTH 960 0
DWIDTH 24 0
BBX 24 24 0 -2
BITMAP
000000
080010
0FFFF8
0C1838
0C1830
0C1830
0FFFF0
0C1830
0C1830
0C1830
0FFFF0
0C0030
000000
00000C
7FFFFE
018180
018180
018180
030180
030180
060180
180180
000180
000000
ENDCHAR

STARTCHAR cns2_2834
ENCODING 10292
SWIDTH 960 0
DWIDTH 24 0
BBX 24 24 0 -2
BITMAP
000000
01C71C
030C30
061860
0C30C0
186180
061860
030C30
018618
018618
008208
000000
100008
1FFFFC
18181C
181818
181818
1FFFF8
181818
181818
181818
1FFFF8
180018
000000
ENDCHAR

STARTCHAR cns2_2835
ENCODING 10293
SWIDTH 960 0
DWIDTH 24 0
BBX 24 24 0 -2
BITMAP
000000
001C00
001860
1FFFF0
001800
001820
0FFFF0
001870
001864
7FFFFE
001860
001860
0FFFE0
001860
071800
061860
061FF0
061800
071800
0DD800
0CF800
183FFE
600FFC
000000
ENDCHAR

STARTCHAR cns2_2836
ENCODING 10294
SWIDTH 960 0
DWIDTH 24 0
BBX 24 24 0 -2
BITMAP
000000
000C00
04070C
07FFFE
460000
260000
260000
160018
1E7FFC
160300
060300
0E0300
160300
760300
260300
040300
0C0300
0C0300
08030C
19FFFE
100000
200000
400000
000000
ENDCHAR

STARTCHAR cns2_2837
ENCODING 10295
SWIDTH 960 0
DWIDTH 24 0
BBX 24 24 0 -2
BITMAP
000000
038000
030008
0307FC
2310C0
3FF8C0
3330C0
3320C0
3300C0
3300C0
3320CC
3FEFFE
3060C0
3060C0
3CC0C0
34C0C0
3780C0
2300C0
2380C0
46C0C0
4C60C0
1838C0
2010C0
000000
ENDCHAR

STARTCHAR cns2_2838
ENCODING 10296
SWIDTH 960 0
DWIDTH 24 0
BBX 24 24 0 -2
BITMAP
000000
000300
410180
7F8180
63808C
637FFE
631800
631800
7F1800
631800
631800
631800
631800
631800
7F1800
631800
631800
631800
631800
631800
7F1FFE
630FFC
600000
000000
ENDCHAR

STARTCHAR cns2_2839
ENCODING 10297
SWIDTH 960 0
DWIDTH 24 0
BBX 24 24 0 -2
BITMAP
000000
000000
410018
7FBFFC
638180
630180
630180
630180
7F0180
63018C
637FFE
630180
630180
7F0180
630180
630180
630180
630180
630180
7F0180
630180
601F80
000700
000000
ENDCHAR

STARTCHAR cns2_283A
ENCODING 10298
SWIDTH 960 0
DWIDTH 24 0
BBX 24 24 0 -2
BITMAP
000000
000000
410018
7FBFFC
638180
630180
630180
630180
7F0180
630180
63018C
637FFE
630180
7F0180
630180
630180
630180
630180
630180
7F0180
630180
600180
000180
000000
ENDCHAR

STARTCHAR cns2_283B
ENCODING 10299
SWIDTH 960 0
DWIDTH 24 0
BBX 24 24 0 -2
BITMAP
000000
000E00
410C00
7F8C00
63980C
631FFE
633000
632000
7F4010
631FF8
630030
630060
6300C0
630180
7F0300
630600
630C00
631804
631804
633004
7F3006
633FFE
601FFC
000000
ENDCHAR

STARTCHAR cns2_283C
ENCODING 10300
SWIDTH 960 0
DWIDTH 24 0
BBX 24 24 0 -2
BITMAP
000000
000000
018018
7FCFFC
0600C0
0600C0
0600C0
0C00C0
0C00C0
0C00C0
1840CC
1FEFFE
38E0C0
38C0C0
58C0C0
58C0C0
18C0C0
18C0C0
18C0C0
1FC0C0
18C0C0
1800C0
0000C0
000000
ENDCHAR

STARTCHAR cns2_283D
ENCODING 10301
SWIDTH 960 0
DWIDTH 24 0
BBX 24 24 0 -2
BITMAP
000000
000000
00C018
7FEFFC
0600C0
0600C0
0600C0
0C00C0
0C00C0
0C00C0
1820C0
1FF0C0
3870C0
3860C0
5860C0
5860C0
1860C0
1860C0
1860C0
1FE0C0
1860CC
181FFE
000000
000000
ENDCHAR

STARTCHAR cns2_283E
ENCODING 10302
SWIDTH 960 0
DWIDTH 24 0
BBX 24 24 0 -2
BITMAP
000000
00000C
00DFFE
7FE660
060660
060660
060660
0C0660
0C0660
0C4660
1FE660
18EC60
38CC60
38CC60
58CC60
58CC60
18CC60
18CC64
18D864
1FD864
18D066
18207E
00403C
000000
ENDCHAR

STARTCHAR cns2_283F
ENCODING 10303
SWIDTH 960 0
DWIDTH 24 0
BBX 24 24 0 -2
BITMAP
000000
000700
00C600
7FE60C
060FFE
060C00
061800
0C1000
0C0008
0C0FFC
184018
1FE030
38E060
38C0C0
58C080
18C180
18C300
18C604
18C604
1FCC04
18CC06
1807FE
0003FC
000000
ENDCHAR

STARTCHAR cns2_2840
ENCODING 10304
SWIDTH 960 0
DWIDTH 24 0
BBX 24 24 0 -2
BITMAP
000000
000018
00C03C
7FE1F0
061F80
060180
060180
0C0180
0C0180
0C4180
1FE18C
18E1FE
38DF80
38C180
58C180
58C180
18C180
18C180
18C184
18C184
1FC186
18C1FE
1800FC
000000
ENDCHAR

STARTCHAR cns2_2841
ENCODING 10305
SWIDTH 960 0
DWIDTH 24 0
BBX 24 24 0 -2
BITMAP
000000
000004
00CFFE
7FE00C
06000C
060018
060030
0C0060
0C01C0
0C40C0
1FE0C0
18E0CC
38DFFE
38C0C0
58C0C0
58C0C0
18C0C0
18C0C0
18C0C0
1FC0C0
18C0C0
1807C0
000180
000000
ENDCHAR

STARTCHAR cns2_2842
ENCODING 10306
SWIDTH 960 0
DWIDTH 24 0
BBX 24 24 0 -2
BITMAP
000000
1800E0
0C00C0
0C00C0
048EC0
7FCCC0
01CCC4
018CFE
030FCE
037CCC
060CCC
0E0CCC
1F8CD8
36CCD8
466CD0
066CC0
060CC0
060CC0
060C04
060C04
060C06
060FFE
0607FC
000000
ENDCHAR

STARTCHAR cns2_2843
ENCODING 10307
SWIDTH 960 0
DWIDTH 24 0
BBX 24 24 0 -2
BITMAP
000000
180700
0C0600
0C0600
050C04
7F8FFE
01980E
03180C
03100C
06200C
06040C
0D030C
1D818C
1CC1CC
2CC08C
4C000C
0C000C
0C000C
0C0018
0C0018
0C0038
0C07F0
0C00E0
000000
ENDCHAR

STARTCHAR cns2_2844
ENCODING 10308
SWIDTH 960 0
DWIDTH 24 0
BBX 24 24 0 -2
BITMAP
000000
01C018
07E07C
3E03E0
061F80
060180
064180
7FE180
060180
060180
0E018C
0F01FE
1EDF80
1E6180
366180
660180
460180
060184
060184
060184
060186
0601FE
0600FC
000000
ENDCHAR

STARTCHAR cns2_2845
ENCODING 10309
SWIDTH 960 0
DWIDTH 24 0
BBX 24 24 0 -2
BITMAP
000000
003000
101C04
1FFFFE
30C30E
60C318
618300
018300
0303FC
0601F8
38E000
00C020
01FFF0
030060
068060
0CC0C0
3060C0
003180
001700
000E00
003800
00E000
1F0000
000000
ENDCHAR

STARTCHAR cns2_2846
ENCODING 10310
SWIDTH 960 0
DWIDTH 24 0
BBX 24 24 0 -2
BITMAP
000000
003000
101C04
1FFFFE
30C30C
70C318
618300
0303F8
0601F0
180000
0000C0
07FFE0
001800
001800
001818
3FFFFC
001800
001800
001800
001800
001800
007800
001000
000000
ENDCHAR

STARTCHAR cns2_2847
ENCODING 10311
SWIDTH 960 0
DWIDTH 24 0
BBX 24 24 0 -2
BITMAP
000000
060180
060180
0C130C
0FFBFE
1986C0
30DC60
40C040
000000
007000
006000
006010
3FFFF8
00C038
00C030
00C030
018030
018030
030030
060060
0C0060
301FC0
000380
000000
ENDCHAR

STARTCHAR cns2_2848
ENCODING 10312
SWIDTH 960 0
DWIDTH 24 0
BBX 24 24 0 -2
BITMAP
000000
0700E0
0600C0
4660C0
6660C0
36C0C0
2780C0
0600C0
0640C0
7FE0C4
061FFE
0600C0
0E00C0
0F80C0
0EC0C0
1E60C0
1660C0
3600C0
2600C0
4600C0
0600C0
0600C0
0600C0
000000
ENDCHAR

STARTCHAR cns2_2849
ENCODING 10313
SWIDTH 960 0
DWIDTH 24 0
BBX 24 24 0 -2
BITMAP
000000
06000C
061FFE
0600C0
0600C0
0C00C0
0880C0
50C0C0
3180C0
1900C0
0F00C0
0600C0
0400C0
0880C0
10C0C0
7FC0C0
7060C0
0060C0
4880C0
4CC0C0
6660C0
6667C0
200180
000000
ENDCHAR

STARTCHAR cns2_284A
ENCODING 10314
SWIDTH 960 0
DWIDTH 24 0
BBX 24 24 0 -2
BITMAP
000000
003000
7FF80C
1867FE
186060
186060
186060
1FE060
186060
186060
186060
186060
1FE060
186060
186060
186060
19E060
1F6060
7C6060
706060
006060
0067E0
0061C0
000000
ENDCHAR

STARTCHAR cns2_284B
ENCODING 10315
SWIDTH 960 0
DWIDTH 24 0
BBX 24 24 0 -2
BITMAP
000000
003800
000C00
001F00
003180
00E0E0
038078
0E1C1E
78180C
101804
1FFFFE
18180E
18340C
18360C
18630C
18DDEC
1B18CC
18180C
18360C
18330C
1861CC
1980BC
180018
000000
ENDCHAR

STARTCHAR cns2_284C
ENCODING 10316
SWIDTH 960 0
DWIDTH 24 0
BBX 24 24 0 -2
BITMAP
000000
208600
3FC380
31C18C
31BFFE
318000
318000
3D8000
378820
318FF0
318C70
318C60
318C60
378C60
3D8C60
318C60
318C60
318C64
319864
219864
21B066
4FA07E
07403C
000000
ENDCHAR

STARTCHAR cns2_284D
ENCODING 10317
SWIDTH 960 0
DWIDTH 24 0
BBX 24 24 0 -2
BITMAP
000000
208380
3FC300
31C680
318CC0
318860
319830
3DB018
37A04E
31DFE4
318000
318000
318010
37BFF8
3D8038
318030
318060
318060
318060
2180C0
2180C0
4F8180
030180
000000
ENDCHAR

STARTCHAR cns2_284E
ENCODING 10318
SWIDTH 960 0
DWIDTH 24 0
BBX 24 24 0 -2
BITMAP
000000
2080C0
3FC2C0
31C640
318660
318C20
3D8C30
379818
33980C
31B00E
31C004
3181C0
338180
378180
3D818C
31BFFE
318180
318180
318180
218180
218180
4F8180
030180
000000
ENDCHAR

STARTCHAR cns2_284F
ENCODING 10319
SWIDTH 960 0
DWIDTH 24 0
BBX 24 24 0 -2
BITMAP
000000
208038
3FC8FC
31CFC0
318C00
318C00
318C00
3D8C0C
378FFE
318C60
318C60
318C60
318C60
378C60
3D8C60
318C60
318C60
318860
319860
219860
219060
47B060
032060
000000
ENDCHAR

STARTCHAR cns2_2850
ENCODING 10320
SWIDTH 960 0
DWIDTH 24 0
BBX 24 24 0 -2
BITMAP
000000
208700
3FC300
31C300
31A304
31BFFE
31B18E
3DB18C
37B18C
31B38C
31B28C
31B6CC
31B4CC
37BC6C
3DB87C
31B02C
31B00C
31B00C
31B00C
21B00C
21B00C
4FB0FC
033038
000000
ENDCHAR

STARTCHAR cns2_2851
ENCODING 10321
SWIDTH 960 0
DWIDTH 24 0
BBX 24 24 0 -2
BITMAP
000000
060000
060004
285FFE
3FE18E
30E18C
30C18C
34C18C
36C18C
32C18C
30C18C
30F18C
7FC10C
70C30C
30C30C
34C30C
36C60C
32C60C
30CC18
20C818
20D838
4FE1F0
018060
000000
ENDCHAR

STARTCHAR cns2_2852
ENCODING 10322
SWIDTH 960 0
DWIDTH 24 0
BBX 24 24 0 -2
BITMAP
000000
070070
060060
064064
7FE7FE
060060
060060
003000
001C00
000C0C
3FFFFE
0100C0
0080C0
00C180
006300
003600
001C00
003C00
006700
00C3C0
0380F0
0E003E
70000C
000000
ENDCHAR

STARTCHAR cns2_2853
ENCODING 10323
SWIDTH 960 0
DWIDTH 24 0
BBX 24 24 0 -2
BITMAP
000000
070070
060060
064064
7FE7FE
060060
066060
003800
00180C
3FFFFE
000000
000080
01FFC0
0181C0
018180
018180
018180
018184
030184
030184
060186
0C01FE
3000FC
000000
ENDCHAR

STARTCHAR cns2_2854
ENCODING 10324
SWIDTH 960 0
DWIDTH 24 0
BBX 24 24 0 -2
BITMAP
000000
070070
060060
064064
7FE7FE
060060
060060
000000
000060
0FFFF0
000000
000000
00000C
7FFFFE
00C300
00C300
00C300
018300
018304
030304
060306
0C03FE
3001FC
000000
ENDCHAR

STARTCHAR cns2_2855
ENCODING 10325
SWIDTH 960 0
DWIDTH 24 0
BBX 24 24 0 -2
BITMAP
000000
070070
060060
064064
7FE7FE
060060
061C60
001800
00180C
7FFFFE
001800
001800
0E1838
0C1830
0C1830
0C1830
0FFFF0
0C1834
0C1804
001804
001806
001FFE
000FFC
000000
ENDCHAR

STARTCHAR cns2_2856
ENCODING 10326
SWIDTH 960 0
DWIDTH 24 0
BBX 24 24 0 -2
BITMAP
000000
070070
060060
064064
7FE7FE
060060
060060
060060
000000
1C0380
180300
180300
18630C
1FF3FE
180300
180300
180300
180304
180304
186304
1B8306
3E03FE
1801FC
000000
ENDCHAR

STARTCHAR cns2_2857
ENCODING 10327
SWIDTH 960 0
DWIDTH 24 0
BBX 24 24 0 -2
BITMAP
000000
070070
064064
7FE7FE
060060
060060
000020
0FFFF0
003060
003060
003064
7FFFFE
006060
006060
006060
0FFFE0
006060
006000
00C000
00C000
018000
030000
040000
000000
ENDCHAR

STARTCHAR cns2_2858
ENCODING 10328
SWIDTH 960 0
DWIDTH 24 0
BBX 24 24 0 -2
BITMAP
000000
070070
060064
7FE7FE
060060
060060
001C00
001800
001810
0FFFF8
001838
001830
001830
001834
7FFFFE
003000
003400
006600
00C300
018180
060070
18001E
70000C
000000
ENDCHAR

STARTCHAR cns2_2859
ENCODING 10329
SWIDTH 960 0
DWIDTH 24 0
BBX 24 24 0 -2
BITMAP
000000
070070
064064
7FE7FE
060060
060060
000000
000060
0FFFF0
0001C0
008380
006600
003800
001808
7FFFFC
001818
001830
001840
001800
001800
001800
03F800
007000
000000
ENDCHAR

STARTCHAR cns2_285A
ENCODING 10330
SWIDTH 960 0
DWIDTH 24 0
BBX 24 24 0 -2
BITMAP
000000
070070
060060
064064
7FE7FE
060060
060060
003800
001800
101808
1FFFFC
18181C
181818
182C18
182C18
186618
18C318
1981D8
1A0098
180018
180018
1801F8
180070
000000
ENDCHAR

STARTCHAR cns2_285B
ENCODING 10331
SWIDTH 960 0
DWIDTH 24 0
BBX 24 24 0 -2
BITMAP
000000
070070
060060
064064
7FE7FE
060060
060060
000000
0000E0
000FF0
01FF00
1E6000
006060
007FF0
3FE000
00600C
007FFE
7FE000
006004
006004
006006
007FFE
003FFC
000000
ENDCHAR

STARTCHAR cns2_285C
ENCODING 10332
SWIDTH 960 0
DWIDTH 24 0
BBX 24 24 0 -2
BITMAP
000000
070070
064064
7FE7FE
060060
060060
038000
0300C0
03FFE0
060000
0C0180
1BFFC0
200000
000040
1FFFE0
0000C0
0000C0
0000C0
000062
000062
00003A
00001E
000004
000000
ENDCHAR

STARTCHAR cns2_285D
ENCODING 10333
SWIDTH 960 0
DWIDTH 24 0
BBX 24 24 0 -2
BITMAP
000000
070070
060060
064064
7FE7FE
060060
060060
000180
0007C0
007C00
07D800
001800
001800
00180C
7FFFFE
003400
006200
006300
00C180
0180C0
030070
0C003E
70000C
000000
ENDCHAR

STARTCHAR cns2_285E
ENCODING 10334
SWIDTH 960 0
DWIDTH 24 0
BBX 24 24 0 -2
BITMAP
000000
070070
060060
064064
7FE7FE
060060
060060
01C000
018000
030008
03FFFC
06319C
0C3198
306198
006318
00C318
018618
030618
0C0C30
301830
006060
0187C0
0E0180
000000
ENDCHAR

STARTCHAR cns2_285F
ENCODING 10335
SWIDTH 960 0
DWIDTH 24 0
BBX 24 24 0 -2
BITMAP
000000
070070
064064
7FE7FE
060060
060060
000080
3FFFC0
018180
018180
018300
018210
03FFF8
034070
036060
0630C0
061980
0C0F00
080700
180DC0
2038F0
40E03E
07000C
000000
ENDCHAR

STARTCHAR cns2_2860
ENCODING 10336
SWIDTH 960 0
DWIDTH 24 0
BBX 24 24 0 -2
BITMAP
000000
070070
064064
7FE7FE
060060
060060
000000
070000
060008
0FFFFC
0C181C
181818
301830
401840
003400
003400
006600
00C300
018180
0300C0
060070
18003E
60000C
000000
ENDCHAR

STARTCHAR cns2_2861
ENCODING 10337
SWIDTH 960 0
DWIDTH 24 0
BBX 24 24 0 -2
BITMAP
000000
070070
060060
064064
7FE7FE
060060
060060
001C00
001A00
003100
00E0C0
038070
0E033E
71FF8C
000000
000020
0FFFF0
000070
000060
0000C0
000180
000700
001C00
000000
ENDCHAR

STARTCHAR cns2_2862
ENCODING 10338
SWIDTH 960 0
DWIDTH 24 0
BBX 24 24 0 -2
BITMAP
000000
070070
060060
064064
7FE7FE
060060
060060
060060
001C00
001800
081810
0C1830
061870
073460
0334C0
006600
006200
00C300
018180
0300C0
060070
0C003E
70000C
000000
ENDCHAR

STARTCHAR cns2_2863
ENCODING 10339
SWIDTH 960 0
DWIDTH 24 0
BBX 24 24 0 -2
BITMAP
000000
070070
060060
064064
7FE7FE
060060
060060
000000
0011C0
3FF980
003180
006180
018180
018180
019980
01E180
078180
7D8184
318184
018184
018186
1F81FE
0700FC
000000
ENDCHAR

STARTCHAR cns2_2864
ENCODING 10340
SWIDTH 960 0
DWIDTH 24 0
BBX 24 24 0 -2
BITMAP
000000
070070
060064
7FE7FE
060060
067060
006000
00600C
7FFFFE
00C000
00C000
01C020
01BFF0
033030
033060
031860
0618C0
060D80
0C0700
180D80
1018C0
203070
41C03E
000000
ENDCHAR

STARTCHAR cns2_2865
ENCODING 10341
SWIDTH 960 0
DWIDTH 24 0
BBX 24 24 0 -2
BITMAP
000000
070070
064064
7FE7FE
060060
060060
038000
030000
030008
07FFFC
06001C
0C0018
080018
107018
006018
00C418
018618
030318
0FFF98
070198
000030
0003F0
0000E0
000000
ENDCHAR

STARTCHAR cns2_2866
ENCODING 10342
SWIDTH 960 0
DWIDTH 24 0
BBX 24 24 0 -2
BITMAP
000000
0380E0
0300C0
0300CC
7FE7FE
0300C0
0300C0
000000
038000
030000
030000
030030
063FF8
060000
0C0000
1E0000
660000
060000
060000
06000C
06FFFE
060000
060000
000000
ENDCHAR

STARTCHAR cns2_2867
ENCODING 10343
SWIDTH 960 0
DWIDTH 24 0
BBX 24 24 0 -2
BITMAP
000000
070004
060FFE
060060
060060
462060
7FF060
667060
666060
666060
666060
666060
666060
7FE060
660060
060060
064060
062060
067060
079860
7E1860
7003E0
0000C0
000000
ENDCHAR

STARTCHAR cns2_2868
ENCODING 10344
SWIDTH 960 0
DWIDTH 24 0
BBX 24 24 0 -2
BITMAP
000000
07001C
060018
060718
060618
462618
7FF618
667618
666618
666618
666618
666618
7FE618
666618
0607F8
060618
064018
066018
07E018
7E3018
383018
000018
000018
000000
ENDCHAR

STARTCHAR cns2_2869
ENCODING 10345
SWIDTH 960 0
DWIDTH 24 0
BBX 24 24 0 -2
BITMAP
000000
070004
060FFE
06018E
06018C
46218C
7FF18C
66718C
66618C
66618C
66618C
66618C
66618C
7FE18C
66630C
06030C
06830C
06420C
06660C
07B618
7E3438
7009F0
001060
000000
ENDCHAR

STARTCHAR cns2_286A
ENCODING 10346
SWIDTH 960 0
DWIDTH 24 0
BBX 24 24 0 -2
BITMAP
000000
0E0820
0C0FF0
0C0C70
0C0C60
4C4C60
7FEC60
4CEC60
4CCC60
4CCC60
4CCC60
4CCC60
4CCC60
7FCC60
4CCC60
0C0C60
0D0C60
0C8864
0FD864
7CD864
709066
00307E
00403C
000000
ENDCHAR

STARTCHAR cns2_286B
ENCODING 10347
SWIDTH 960 0
DWIDTH 24 0
BBX 24 24 0 -2
BITMAP
000000
00000C
7FFFFE
007200
00E200
01C218
07631C
1C3138
6079E0
00E9C0
1DCC80
0F0CC0
071EC0
19BE60
60F660
00E620
01B630
030E18
06061C
18060E
600E04
03FC00
007800
000000
ENDCHAR

STARTCHAR cns2_286C
ENCODING 10348
SWIDTH 960 0
DWIDTH 24 0
BBX 24 24 0 -2
BITMAP
000000
000600
300300
180318
0DFFFC
0C0000
000000
021040
7F1FE0
0718E0
0618C0
0C18C0
1818C0
0C18C0
0610C8
0630C8
0630C8
0620CC
0440FC
0E0078
3B0000
71FFFE
207FFC
000000
ENDCHAR

STARTCHAR cns2_286D
ENCODING 10349
SWIDTH 960 0
DWIDTH 24 0
BBX 24 24 0 -2
BITMAP
000000
000000
300030
1801F8
0C1F80
080180
000180
020180
7F0180
060188
063FFC
0C0180
180180
0C0180
060180
060180
06018C
067FFE
040000
0F0000
19C000
707FFE
201FFC
000000
ENDCHAR

STARTCHAR cns2_286E
ENCODING 10350
SWIDTH 960 0
DWIDTH 24 0
BBX 24 24 0 -2
BITMAP
000000
000018
301FFC
181860
0C1860
081860
003060
02306C
7F3FFE
0600E0
0601E0
0C01E0
180360
0C0660
060C60
061860
063060
06C060
0403E0
0F00C0
19C000
707FFE
201FFC
000000
ENDCHAR

STARTCHAR cns2_286F
ENCODING 10351
SWIDTH 960 0
DWIDTH 24 0
BBX 24 24 0 -2
BITMAP
000000
000380
300300
180318
0C7FFC
080300
000300
023B38
7F3330
063330
063330
0C3330
183330
0C3FF0
063330
060304
060304
060306
0403FE
0F01FC
19C000
707FFE
201FFC
000000
ENDCHAR

STARTCHAR cns2_2870
ENCODING 10352
SWIDTH 960 0
DWIDTH 24 0
BBX 24 24 0 -2
BITMAP
000000
000380
300300
180360
0C0330
0C0304
00FFFE
020300
7F0300
070780
060680
0C06C0
180C60
0C0C60
061830
063030
063018
06601C
04C00E
0E0004
3B0000
71FFFE
207FFC
000000
ENDCHAR

STARTCHAR cns2_2871
ENCODING 10353
SWIDTH 960 0
DWIDTH 24 0
BBX 24 24 0 -2
BITMAP
000000
001800
301C00
181818
0C3FFC
083180
006180
028180
7F0180
060180
06018C
0C7FFE
180180
0C0180
060180
060180
060180
060180
040180
0F0180
19C000
707FFE
201FFC
000000
ENDCHAR

STARTCHAR cns2_2872
ENCODING 10354
SWIDTH 960 0
DWIDTH 24 0
BBX 24 24 0 -2
BITMAP
000000
200078
1807C0
0C3F80
0E0180
000180
000180
000180
02018C
7FFFFE
070380
060340
040640
0C0660
180C20
0C0C30
061810
066018
06800E
070000
1D8000
78FFFE
307FFC
000000
ENDCHAR

STARTCHAR cns2_2873
ENCODING 10355
SWIDTH 960 0
DWIDTH 24 0
BBX 24 24 0 -2
BITMAP
000000
040000
030904
019DFE
01998E
00198C
073188
063198
063190
0661A0
266190
264198
26D18C
66898C
678D86
470D86
060586
0E1186
1E11BC
661998
07F980
03F180
000180
000000
ENDCHAR

STARTCHAR cns2_2874
ENCODING 10356
SWIDTH 960 0
DWIDTH 24 0
BBX 24 24 0 -2
BITMAP
000000
000000
001904
7FFDFE
03018E
03018C
430988
7FFD98
631D90
6319A0
631990
631998
66998C
64D98C
6C5986
683986
703986
601986
6019BC
601998
601980
60F980
603180
000000
ENDCHAR

STARTCHAR cns2_2875
ENCODING 10357
SWIDTH 960 0
DWIDTH 24 0
BBX 24 24 0 -2
BITMAP
000000
1C7000
186204
1863FE
18630E
7FFB0C
186308
186318
186310
186320
186310
186318
1FE30C
18630C
186306
186306
186306
186306
18637C
1FE338
186300
180300
000300
000000
ENDCHAR

STARTCHAR cns2_2876
ENCODING 10358
SWIDTH 960 0
DWIDTH 24 0
BBX 24 24 0 -2
BITMAP
000000
000000
001904
7FFDFE
00E18E
00C18C
018188
018198
030190
0701A0
07A190
0D9198
19998C
318D8C
618986
018186
018186
018D86
01F1BC
3F8198
1C0180
000180
000180
000000
ENDCHAR

STARTCHAR cns2_2877
ENCODING 10359
SWIDTH 960 0
DWIDTH 24 0
BBX 24 24 0 -2
BITMAP
000000
038000
030104
0301FE
06018E
06618C
0C3188
081998
11F990
7F0DA0
380D90
000998
00018C
10118C
1FF986
183986
183186
183186
1831BC
183198
183180
1FF180
183180
000000
ENDCHAR

STARTCHAR cns2_2878
ENCODING 10360
SWIDTH 960 0
DWIDTH 24 0
BBX 24 24 0 -2
BITMAP
000000
2081C0
3FC180
318180
318198
333FFC
320180
320180
340180
320180
33018C
31BFFE
318380
318300
318300
3F0600
360620
300C10
300818
30107C
30FF8C
30700E
300006
000000
ENDCHAR

STARTCHAR cns2_2879
ENCODING 10361
SWIDTH 960 0
DWIDTH 24 0
BBX 24 24 0 -2
BITMAP
000000
2081C0
3FC180
318180
318180
33018C
3201FE
320180
340180
320180
330180
310180
31A184
31BFFE
31B00E
3F300C
36300C
30300C
30300C
30300C
30300C
303FFC
30300C
000000
ENDCHAR

STARTCHAR cns2_287A
ENCODING 10362
SWIDTH 960 0
DWIDTH 24 0
BBX 24 24 0 -2
BITMAP
000000
208E00
3FCC00
318C00
31980C
331FFE
323300
322300
346300
328318
3303FC
318300
318300
318300
318318
3F03FC
360300
300300
300300
300300
300300
300300
300300
000000
ENDCHAR

STARTCHAR cns2_287B
ENCODING 10363
SWIDTH 960 0
DWIDTH 24 0
BBX 24 24 0 -2
BITMAP
000000
210018
3FA07C
31BFC0
31B180
333180
323180
323180
343180
32318C
333FFE
31B180
31B180
31B0C0
31B0C0
3F30C0
3632C4
303664
303C64
301834
30009E
303FCE
300004
000000
ENDCHAR

STARTCHAR cns2_287C
ENCODING 10364
SWIDTH 960 0
DWIDTH 24 0
BBX 24 24 0 -2
BITMAP
000000
208000
3FC00C
31BFFE
318180
330180
320180
322184
343FFE
32318E
33318C
31B18C
31B38C
31B34C
31B66C
3F343C
36382C
30300C
30300C
30300C
30300C
30307C
303018
000000
ENDCHAR

STARTCHAR cns2_287D
ENCODING 10365
SWIDTH 960 0
DWIDTH 24 0
BBX 24 24 0 -2
BITMAP
000000
038600
030380
032188
063FFC
06301C
0C3018
0C3FF8
0E3018
1E3018
163FF8
363018
263100
463104
06308E
063098
0630E0
063060
063060
063130
063618
063C1E
06180C
000000
ENDCHAR

STARTCHAR cns2_287E
ENCODING 10366
SWIDTH 960 0
DWIDTH 24 0
BBX 24 24 0 -2
BITMAP
000000
060700
060660
060630
0C0604
0DFFFE
180600
180600
188600
38661C
2C3698
6C26B0
4C06C0
0C0640
0C0E40
0C1660
0C6630
0DC638
0D861E
0C060C
0C0600
0C3E00
0C0C00
000000
ENDCHAR

STARTCHAR cns2_2921
ENCODING 10529
SWIDTH 960 0
DWIDTH 24 0
BBX 24 24 0 -2
BITMAP
000000
03800C
037FFE
030000
061998
061998
0C3330
0C2220
0C4440
1C3330
161998
360CCC
260CCC
460000
060018
063FFC
060180
060180
060180
060180
06018C
067FFE
060000
000000
ENDCHAR

STARTCHAR cns2_2922
ENCODING 10530
SWIDTH 960 0
DWIDTH 24 0
BBX 24 24 0 -2
BITMAP
000000
074018
067FFC
066000
0C6000
0C6030
0C7FF8
186000
186000
18600C
3C7FFE
2C6640
4C6640
0C6646
0C666C
0C6670
0C4620
0CC630
0C8630
0C8618
0D06DC
0C078E
0C0304
000000
ENDCHAR

STARTCHAR cns2_2923
ENCODING 10531
SWIDTH 960 0
DWIDTH 24 0
BBX 24 24 0 -2
BITMAP
000000
070018
06FFFC
060600
0C0600
0C0600
0C0C10
187FF8
180C38
180C30
3C1830
6C1834
4DFFFE
0C0000
0C0000
0C4008
0C7FFC
0C601C
0C6018
0C6018
0C6018
0C7FF8
0C6018
000000
ENDCHAR

STARTCHAR cns2_2924
ENCODING 10532
SWIDTH 960 0
DWIDTH 24 0
BBX 24 24 0 -2
BITMAP
000000
039008
031FFC
03181C
061818
061818
0C1FF8
0C0000
0C2004
1C3FFE
16318E
36318C
26318C
46318C
063FFC
06300C
063000
063000
063004
063004
063006
063FFE
061FFC
000000
ENDCHAR

STARTCHAR cns2_2925
ENCODING 10533
SWIDTH 960 0
DWIDTH 24 0
BBX 24 24 0 -2
BITMAP
000000
038408
0307FC
03061C
060618
063618
0C3618
0C37F8
0E3618
1E3000
163008
363FFC
26331C
460318
060318
060318
067FFE
060680
060660
060C30
06181C
06300E
06C006
000000
ENDCHAR

STARTCHAR cns2_2926
ENCODING 10534
SWIDTH 960 0
DWIDTH 24 0
BBX 24 24 0 -2
BITMAP
000000
064010
077FF8
066038
0E6030
0C6030
1C7FF0
186030
186030
306030
387FF0
2C6030
4C6030
4C6030
0C7FF0
0C0D80
0C0D80
0C1984
0C1984
0C3184
0C6186
0CC1FE
0D00FC
000000
ENDCHAR

STARTCHAR cns2_2927
ENCODING 10535
SWIDTH 960 0
DWIDTH 24 0
BBX 24 24 0 -2
BITMAP
000000
0701C0
060180
062184
063FFE
0C318E
0C318C
183FFC
18318C
1E318C
363FFC
263000
46000C
467FFE
060C00
060C08
061FFC
06181C
060018
060018
060038
0603F0
0600E0
000000
ENDCHAR

STARTCHAR cns2_2928
ENCODING 10536
SWIDTH 960 0
DWIDTH 24 0
BBX 24 24 0 -2
BITMAP
000000
030038
039C30
030760
0601C0
060E70
0C7038
0C0718
0E0604
1EFFFE
160C00
360DC0
261984
463FFE
06718E
06F18C
07318C
06318C
06318C
0631BC
063198
060180
060180
000000
ENDCHAR

STARTCHAR cns2_2929
ENCODING 10537
SWIDTH 960 0
DWIDTH 24 0
BBX 24 24 0 -2
BITMAP
000000
030080
038840
031C60
031838
06301E
06600C
0D8008
0C3FFC
1E301C
163018
363018
263018
463FF8
0636D8
0606C0
0606C0
060CC4
060CC4
0618C4
0618C6
0630FE
06C07C
000000
ENDCHAR

STARTCHAR cns2_292A
ENCODING 10538
SWIDTH 960 0
DWIDTH 24 0
BBX 24 24 0 -2
BITMAP
000000
070380
060300
060300
0C3B1C
0C3318
0C3318
182310
186310
187338
3C4B24
6C4F24
4C8746
0C8342
0D0380
0C0308
0C7FFC
0C0300
0C0300
0C0300
0C0304
0CFFFE
0C0000
000000
ENDCHAR

STARTCHAR cns2_292B
ENCODING 10539
SWIDTH 960 0
DWIDTH 24 0
BBX 24 24 0 -2
BITMAP
000000
030E00
038C20
031FF0
071860
063060
0660C4
0EBFFE
0C318E
1C318C
1C318C
36318C
263FFC
66330C
460340
0607E0
0606C0
060EC4
060CC4
0618C4
0630C6
0660FE
07807C
000000
ENDCHAR

STARTCHAR cns2_292C
ENCODING 10540
SWIDTH 960 0
DWIDTH 24 0
BBX 24 24 0 -2
BITMAP
000000
070800
06180C
069BFE
0C5060
0C3060
0C2060
187060
189060
191860
3C1868
6C1BFC
4C3860
0C2860
0C6C60
0C4C60
0C8C60
0C0C60
0C0C60
0C0C60
0C1C64
0CFBFE
0C3000
000000
ENDCHAR

STARTCHAR cns2_292D
ENCODING 10541
SWIDTH 960 0
DWIDTH 24 0
BBX 24 24 0 -2
BITMAP
000000
060000
07000C
067FFE
0C0180
0C0180
0C0380
1807C0
180DB0
181998
3C318C
6C618E
4D8186
0C0180
0C2184
0C3FFE
0C300E
0C300C
0C300C
0C300C
0C300C
0C3FFC
0C300C
000000
ENDCHAR

STARTCHAR cns2_292E
ENCODING 10542
SWIDTH 960 0
DWIDTH 24 0
BBX 24 24 0 -2
BITMAP
000000
060380
07731C
066318
0C6318
0C7FF8
0C6618
180E00
180D00
1818C0
3C3060
6C6038
4CC19E
0F1FCC
0C0000
0C0020
0C3FF0
0C0070
0C0060
0C00C0
0C00C0
0C0180
0C0300
000000
ENDCHAR

STARTCHAR cns2_292F
ENCODING 10543
SWIDTH 960 0
DWIDTH 24 0
BBX 24 24 0 -2
BITMAP
000000
070018
06007C
063FE0
064206
0C3186
0C18CC
0C18D8
180020
180300
3C0600
2C060C
4DFFFE
0C0C10
0C0C10
0C1820
0C3E60
0C31C0
0C01E0
0C0398
0C061C
0C380E
0FC004
000000
ENDCHAR

STARTCHAR cns2_2930
ENCODING 10544
SWIDTH 960 0
DWIDTH 24 0
BBX 24 24 0 -2
BITMAP
000000
070018
06103C
06FBE0
0C3060
0C3060
0C6060
186060
18C86C
18FFFE
3C1C60
6C1860
4C9860
0C9860
0CD860
0C5060
0C3068
0C33FC
0C7000
0C5800
0C8C00
0D07FE
0E01FC
000000
ENDCHAR

STARTCHAR cns2_2931
ENCODING 10545
SWIDTH 960 0
DWIDTH 24 0
BBX 24 24 0 -2
BITMAP
000000
0E0C00
0C3E30
0DF038
0C3030
183030
183630
1BFF30
303030
307060
707860
58F460
58F660
19B360
1932C0
1930C0
1A30C8
18318C
183184
18333E
1837E6
183306
183000
000000
ENDCHAR

STARTCHAR cns2_2932
ENCODING 10546
SWIDTH 960 0
DWIDTH 24 0
BBX 24 24 0 -2
BITMAP
000000
00180E
7FFC0C
0001CC
11118C
19998C
11118C
22218C
44418C
22218C
33318C
19998C
11118C
00018C
7FFD8C
01818C
01818C
01818C
01800C
018E0C
0FF00C
7F01FC
700038
000000
ENDCHAR

STARTCHAR cns2_2933
ENCODING 10547
SWIDTH 960 0
DWIDTH 24 0
BBX 24 24 0 -2
BITMAP
000000
01C00E
01800C
1D9C0C
1998CC
1998CC
1190CC
3190CC
39B8CC
25A4CC
27A4CC
43C6CC
41C2CC
0180CC
018CCC
3FFECC
0180CC
0180CC
01800C
018E0C
01F80C
7F807C
380018
000000
ENDCHAR

ENDFONT
